<svg width="1440" height="1024" viewBox="0 0 1440 1024" fill="none" xmlns="http://www.w3.org/2000/svg">
<g clip-path="url(#clip0_52_349)">
<rect width="1440" height="1024" fill="#020F20"/>
<path d="M25.768 -38.4861C25.768 -38.4861 28.0423 636.355 28.0226 630.493" stroke="url(#paint0_linear_52_349)" stroke-opacity="0.2" stroke-width="0.5" stroke-miterlimit="10"/>
<path d="M25.768 -38.4861C25.768 -38.4861 28.0423 636.355 28.0226 630.493" stroke="url(#paint1_linear_52_349)" stroke-opacity="0.2" stroke-width="0.5" stroke-miterlimit="10"/>
<path d="M-65.7031 49.9386L255.746 48.8552C264.03 48.8273 270.768 55.5204 270.796 63.8046L271.352 228.884C271.38 237.168 278.119 243.862 286.403 243.834L394.097 243.471" stroke="url(#paint2_linear_52_349)" stroke-opacity="0.4" stroke-miterlimit="10"/>
<path d="M-65.7031 49.9386L255.746 48.8552C264.03 48.8273 270.768 55.5204 270.796 63.8046L271.352 228.884C271.38 237.168 278.119 243.862 286.403 243.834L394.097 243.471" stroke="url(#paint3_linear_52_349)" stroke-opacity="0.2" stroke-miterlimit="10"/>
<path d="M73.8956 -38.6484L74.9446 272.618" stroke="url(#paint4_linear_52_349)" stroke-opacity="0.2" stroke-miterlimit="10"/>
<path d="M89.3028 -38.7001L90.604 347.42C90.6189 351.838 94.2127 355.408 98.6309 355.393L135.047 355.27C139.466 355.255 143.059 358.825 143.074 363.243L143.535 499.965C143.55 504.383 139.98 507.977 135.562 507.991L99.1456 508.114C94.7274 508.129 91.1578 511.723 91.1726 516.141L91.2905 551.12" stroke="url(#paint5_linear_52_349)" stroke-opacity="0.15" stroke-miterlimit="10"/>
<path d="M89.3028 -38.7001L90.604 347.42C90.6189 351.838 94.2127 355.408 98.6309 355.393L135.047 355.27C139.466 355.255 143.059 358.825 143.074 363.243L143.535 499.965C143.55 504.383 139.98 507.977 135.562 507.991L99.1456 508.114C94.7274 508.129 91.1578 511.723 91.1726 516.141L91.2905 551.12" stroke="url(#paint6_linear_52_349)" stroke-opacity="0.2" stroke-miterlimit="10"/>
<path d="M-11.2393 436.962L391.061 435.607C395.479 435.592 399.049 431.998 399.034 427.58L398.988 414.021C398.973 409.602 402.543 406.009 406.961 405.994L432.656 405.907C437.074 405.892 440.668 409.462 440.683 413.88L440.729 427.439C440.743 431.857 444.337 435.427 448.755 435.412L476.494 435.319" stroke="url(#paint7_linear_52_349)" stroke-opacity="0.2" stroke-miterlimit="10"/>
<path d="M-65.2202 193.29L177.457 192.472C181.875 192.457 185.469 196.027 185.483 200.445L185.813 298.237C185.828 302.655 189.422 306.225 193.84 306.21L315.681 305.8" stroke="url(#paint8_linear_52_349)" stroke-opacity="0.2" stroke-miterlimit="10"/>
<path d="M226.508 354.962L226.087 229.867C226.072 225.449 229.641 221.855 234.06 221.84L302.633 221.609C307.051 221.594 310.62 218.001 310.606 213.582L309.753 -39.4433" stroke="url(#paint9_linear_52_349)" stroke-opacity="0.2" stroke-miterlimit="10"/>
<path d="M1430.02 952.126C1430.02 952.126 755.175 952.126 761.038 952.126" stroke="url(#paint10_linear_52_349)" stroke-opacity="0.2" stroke-width="0.5" stroke-miterlimit="10"/>
<path d="M1430.02 952.126C1430.02 952.126 755.175 952.126 761.038 952.126" stroke="url(#paint11_linear_52_349)" stroke-opacity="0.2" stroke-width="0.5" stroke-miterlimit="10"/>
<path d="M1341.9 1043.9V722.444C1341.9 714.16 1335.19 707.444 1326.9 707.444H1161.82C1153.54 707.444 1146.82 700.729 1146.82 692.444V584.75" stroke="url(#paint12_linear_52_349)" stroke-opacity="0.4" stroke-miterlimit="10"/>
<path d="M1341.9 1043.9V722.444C1341.9 714.16 1335.19 707.444 1326.9 707.444H1161.82C1153.54 707.444 1146.82 700.729 1146.82 692.444V584.75" stroke="url(#paint13_linear_52_349)" stroke-opacity="0.2" stroke-miterlimit="10"/>
<path d="M1430.02 903.999H1118.75" stroke="url(#paint14_linear_52_349)" stroke-opacity="0.2" stroke-miterlimit="10"/>
<path d="M1430.02 888.591H1043.9C1039.48 888.591 1035.9 885.01 1035.9 880.591V844.175C1035.9 839.757 1032.32 836.175 1027.9 836.175H891.176C886.758 836.175 883.176 839.757 883.176 844.175V880.591C883.176 885.01 879.595 888.591 875.176 888.591H840.197" stroke="url(#paint15_linear_52_349)" stroke-opacity="0.15" stroke-miterlimit="10"/>
<path d="M1430.02 888.591H1043.9C1039.48 888.591 1035.9 885.01 1035.9 880.591V844.175C1035.9 839.757 1032.32 836.175 1027.9 836.175H891.176C886.758 836.175 883.176 839.757 883.176 844.175V880.591C883.176 885.01 879.595 888.591 875.176 888.591H840.197" stroke="url(#paint16_linear_52_349)" stroke-opacity="0.2" stroke-miterlimit="10"/>
<path d="M954.699 990.736V588.433C954.699 584.015 958.281 580.433 962.699 580.433H976.259C980.677 580.433 984.259 576.852 984.259 572.433V546.739C984.259 542.32 980.677 538.739 976.259 538.739H962.699C958.281 538.739 954.699 535.157 954.699 530.739V503" stroke="url(#paint17_linear_52_349)" stroke-opacity="0.2" stroke-miterlimit="10"/>
<path d="M1198.55 1043.9V801.217C1198.55 796.799 1194.97 793.217 1190.55 793.217H1092.76C1088.34 793.217 1084.76 789.635 1084.76 785.217V663.375" stroke="url(#paint18_linear_52_349)" stroke-opacity="0.2" stroke-miterlimit="10"/>
<path d="M1035.9 752.713H1160.99C1165.41 752.713 1168.99 749.132 1168.99 744.713V676.14C1168.99 671.722 1172.58 668.14 1176.99 668.14H1430.02" stroke="url(#paint19_linear_52_349)" stroke-opacity="0.2" stroke-miterlimit="10"/>
<g style="mix-blend-mode:hard-light" filter="url(#filter0_f_52_349)">
<path d="M1092.91 1113.67C838.959 865.425 430.92 871.134 182.672 1125.09C-65.5751 1379.04 -59.8658 1787.08 194.088 2035.33C448.043 2283.57 856.078 2277.87 1104.33 2023.91C1352.57 1769.96 1346.87 1361.92 1092.91 1113.67Z" fill="url(#paint20_linear_52_349)"/>
</g>
<g opacity="0.4">
<circle cx="8" cy="8" r="8" transform="matrix(-1 0 0 1 279 214)" fill="#D9D9D9" fill-opacity="0.31"/>
<circle cx="8" cy="8" r="7.875" transform="matrix(-1 0 0 1 279 214)" stroke="white" stroke-opacity="0.5" stroke-width="0.25"/>
<circle cx="4" cy="4" r="4" transform="matrix(-1 0 0 1 275 218)" fill="#D9D9D9"/>
<circle cx="4" cy="4" r="3.5" transform="matrix(-1 0 0 1 275 218)" stroke="white" stroke-opacity="0.5"/>
</g>
<g opacity="0.4">
<circle cx="8" cy="8" r="8" transform="matrix(-1 0 0 1 152 429)" fill="#D9D9D9" fill-opacity="0.31"/>
<circle cx="8" cy="8" r="7.875" transform="matrix(-1 0 0 1 152 429)" stroke="white" stroke-opacity="0.5" stroke-width="0.25"/>
<circle cx="4" cy="4" r="4" transform="matrix(-1 0 0 1 148 433)" fill="#D9D9D9"/>
<circle cx="4" cy="4" r="3.5" transform="matrix(-1 0 0 1 148 433)" stroke="white" stroke-opacity="0.5"/>
</g>
<g opacity="0.4">
<circle cx="8" cy="8" r="8" transform="matrix(-1 0 0 1 98 184)" fill="#D9D9D9" fill-opacity="0.31"/>
<circle cx="8" cy="8" r="7.875" transform="matrix(-1 0 0 1 98 184)" stroke="white" stroke-opacity="0.5" stroke-width="0.25"/>
<circle cx="4" cy="4" r="4" transform="matrix(-1 0 0 1 94 188)" fill="#D9D9D9"/>
<circle cx="4" cy="4" r="3.5" transform="matrix(-1 0 0 1 94 188)" stroke="white" stroke-opacity="0.5"/>
</g>
<g opacity="0.5">
<circle cx="8" cy="8" r="8" transform="matrix(-1 0 0 1 1176 699)" fill="#D9D9D9" fill-opacity="0.31"/>
<circle cx="8" cy="8" r="7.875" transform="matrix(-1 0 0 1 1176 699)" stroke="white" stroke-opacity="0.5" stroke-width="0.25"/>
<circle cx="4" cy="4" r="4" transform="matrix(-1 0 0 1 1172 703)" fill="#D9D9D9"/>
<circle cx="4" cy="4" r="3.5" transform="matrix(-1 0 0 1 1172 703)" stroke="white" stroke-opacity="0.5"/>
</g>
<g opacity="0.5">
<circle cx="4.5" cy="4.5" r="4.5" transform="matrix(-1 0 0 1 1089 748)" fill="#D9D9D9" fill-opacity="0.31"/>
<circle cx="4.5" cy="4.5" r="4.375" transform="matrix(-1 0 0 1 1089 748)" stroke="white" stroke-opacity="0.5" stroke-width="0.25"/>
<circle cx="2.25" cy="2.25" r="2.25" transform="matrix(-1 0 0 1 1086.75 750.25)" fill="#D9D9D9"/>
<circle cx="2.25" cy="2.25" r="1.75" transform="matrix(-1 0 0 1 1086.75 750.25)" stroke="white" stroke-opacity="0.5"/>
</g>
<g opacity="0.5">
<circle cx="4.5" cy="4.5" r="4.5" transform="matrix(-1 0 0 1 1347 884)" fill="#D9D9D9" fill-opacity="0.31"/>
<circle cx="4.5" cy="4.5" r="4.375" transform="matrix(-1 0 0 1 1347 884)" stroke="white" stroke-opacity="0.5" stroke-width="0.25"/>
<circle cx="2.25" cy="2.25" r="2.25" transform="matrix(-1 0 0 1 1344.75 886.25)" fill="#D9D9D9"/>
<circle cx="2.25" cy="2.25" r="1.75" transform="matrix(-1 0 0 1 1344.75 886.25)" stroke="white" stroke-opacity="0.5"/>
</g>
<g opacity="0.5">
<circle cx="4.5" cy="4.5" r="4.5" transform="matrix(-1 0 0 1 1204 884)" fill="#D9D9D9" fill-opacity="0.31"/>
<circle cx="4.5" cy="4.5" r="4.375" transform="matrix(-1 0 0 1 1204 884)" stroke="white" stroke-opacity="0.5" stroke-width="0.25"/>
<circle cx="2.25" cy="2.25" r="2.25" transform="matrix(-1 0 0 1 1201.75 886.25)" fill="#D9D9D9"/>
<circle cx="2.25" cy="2.25" r="1.75" transform="matrix(-1 0 0 1 1201.75 886.25)" stroke="white" stroke-opacity="0.5"/>
</g>
<g opacity="0.4">
<circle cx="4.5" cy="4.5" r="4.5" transform="matrix(-1 0 0 1 231 301)" fill="#D9D9D9" fill-opacity="0.31"/>
<circle cx="4.5" cy="4.5" r="4.375" transform="matrix(-1 0 0 1 231 301)" stroke="white" stroke-opacity="0.5" stroke-width="0.25"/>
<circle cx="2.25" cy="2.25" r="2.25" transform="matrix(-1 0 0 1 228.75 303.25)" fill="#D9D9D9"/>
<circle cx="2.25" cy="2.25" r="1.75" transform="matrix(-1 0 0 1 228.75 303.25)" stroke="white" stroke-opacity="0.5"/>
</g>
</g>
<defs>
<filter id="filter0_f_52_349" x="-500" y="431" width="2287" height="2287" filterUnits="userSpaceOnUse" color-interpolation-filters="sRGB">
<feFlood flood-opacity="0" result="BackgroundImageFix"/>
<feBlend mode="normal" in="SourceGraphic" in2="BackgroundImageFix" result="shape"/>
<feGaussianBlur stdDeviation="250" result="effect1_foregroundBlur_52_349"/>
</filter>
<linearGradient id="paint0_linear_52_349" x1="26.3643" y1="154.034" x2="27.8881" y2="606.624" gradientUnits="userSpaceOnUse">
<stop stop-color="white"/>
<stop offset="1" stop-color="#020F20"/>
</linearGradient>
<linearGradient id="paint1_linear_52_349" x1="28.5227" y1="630.529" x2="26.268" y2="-38.4878" gradientUnits="userSpaceOnUse">
<stop stop-color="#2C83F6"/>
<stop offset="0.514372" stop-color="#25B1F2"/>
<stop offset="1" stop-color="#0B1726"/>
</linearGradient>
<linearGradient id="paint2_linear_52_349" x1="-7.78266" y1="82.4262" x2="346.414" y2="75.8758" gradientUnits="userSpaceOnUse">
<stop stop-color="#020F20"/>
<stop offset="0.175029" stop-color="#BECEE2"/>
<stop offset="1" stop-color="#020F20"/>
</linearGradient>
<linearGradient id="paint3_linear_52_349" x1="381.86" y1="247.336" x2="58.6724" y2="43.9241" gradientUnits="userSpaceOnUse">
<stop stop-color="#2C83F6" stop-opacity="0"/>
<stop offset="0.0776411" stop-color="#2B8AF5"/>
<stop offset="0.514372" stop-color="#25B1F2"/>
<stop offset="1" stop-color="#0B1726"/>
</linearGradient>
<linearGradient id="paint4_linear_52_349" x1="75.4446" y1="272.616" x2="74.3956" y2="-38.6501" gradientUnits="userSpaceOnUse">
<stop stop-color="#2C83F6"/>
<stop offset="0.514372" stop-color="#25B1F2"/>
<stop offset="1" stop-color="#0B1726"/>
</linearGradient>
<linearGradient id="paint5_linear_52_349" x1="90.2966" y1="256.21" x2="91.4699" y2="519.023" gradientUnits="userSpaceOnUse">
<stop stop-color="#B4B8BD"/>
<stop offset="1" stop-color="#020F20"/>
</linearGradient>
<linearGradient id="paint6_linear_52_349" x1="117.499" y1="551.032" x2="115.511" y2="-38.7884" gradientUnits="userSpaceOnUse">
<stop stop-color="#2C83F6"/>
<stop offset="0.514372" stop-color="#25B1F2"/>
<stop offset="1" stop-color="#0B1726"/>
</linearGradient>
<linearGradient id="paint7_linear_52_349" x1="232.627" y1="436.141" x2="232.528" y2="406.582" gradientUnits="userSpaceOnUse">
<stop stop-color="#2C83F6"/>
<stop offset="0.514372" stop-color="#25B1F2"/>
<stop offset="1" stop-color="#0B1726"/>
</linearGradient>
<linearGradient id="paint8_linear_52_349" x1="334.099" y1="318.498" x2="38.1728" y2="192.494" gradientUnits="userSpaceOnUse">
<stop stop-color="#2C83F6" stop-opacity="0"/>
<stop offset="0.0795942" stop-color="#2B8AF5"/>
<stop offset="0.428271" stop-color="#25B1F2"/>
<stop offset="1" stop-color="#02162F"/>
</linearGradient>
<linearGradient id="paint9_linear_52_349" x1="233" y1="346.5" x2="267.466" y2="-39.3007" gradientUnits="userSpaceOnUse">
<stop stop-color="#2C83F6" stop-opacity="0.91"/>
<stop offset="0.235" stop-color="#2B89F5"/>
<stop offset="0.514372" stop-color="#25B1F2"/>
<stop offset="1" stop-color="#0B1726"/>
</linearGradient>
<linearGradient id="paint10_linear_52_349" x1="1237.5" y1="952.179" x2="784.907" y2="952.18" gradientUnits="userSpaceOnUse">
<stop stop-color="white"/>
<stop offset="1" stop-color="#020F20"/>
</linearGradient>
<linearGradient id="paint11_linear_52_349" x1="761" y1="951.626" x2="1430.02" y2="951.626" gradientUnits="userSpaceOnUse">
<stop stop-color="#2C83F6"/>
<stop offset="0.514372" stop-color="#25B1F2"/>
<stop offset="1" stop-color="#0B1726"/>
</linearGradient>
<linearGradient id="paint12_linear_52_349" x1="1309.22" y1="986.084" x2="1314.58" y2="631.868" gradientUnits="userSpaceOnUse">
<stop stop-color="#020F20"/>
<stop offset="0.175029" stop-color="#BECEE2"/>
<stop offset="1" stop-color="#020F20"/>
</linearGradient>
<linearGradient id="paint13_linear_52_349" x1="1143" y1="597" x2="1347.5" y2="919.5" gradientUnits="userSpaceOnUse">
<stop stop-color="#2C83F6" stop-opacity="0"/>
<stop offset="0.0776411" stop-color="#2B8AF5"/>
<stop offset="0.514372" stop-color="#25B1F2"/>
<stop offset="1" stop-color="#0B1726"/>
</linearGradient>
<linearGradient id="paint14_linear_52_349" x1="1118.75" y1="903.499" x2="1430.02" y2="903.499" gradientUnits="userSpaceOnUse">
<stop stop-color="#2C83F6"/>
<stop offset="0.514372" stop-color="#25B1F2"/>
<stop offset="1" stop-color="#0B1726"/>
</linearGradient>
<linearGradient id="paint15_linear_52_349" x1="1135.11" y1="888.591" x2="872.293" y2="888.304" gradientUnits="userSpaceOnUse">
<stop stop-color="#B4B8BD"/>
<stop offset="1" stop-color="#020F20"/>
</linearGradient>
<linearGradient id="paint16_linear_52_349" x1="840.197" y1="862.383" x2="1430.02" y2="862.383" gradientUnits="userSpaceOnUse">
<stop stop-color="#2C83F6"/>
<stop offset="0.514372" stop-color="#25B1F2"/>
<stop offset="1" stop-color="#0B1726"/>
</linearGradient>
<linearGradient id="paint17_linear_52_349" x1="954.699" y1="746.868" x2="984.259" y2="746.868" gradientUnits="userSpaceOnUse">
<stop stop-color="#2C83F6"/>
<stop offset="0.514372" stop-color="#25B1F2"/>
<stop offset="1" stop-color="#0B1726"/>
</linearGradient>
<linearGradient id="paint18_linear_52_349" x1="1072" y1="645" x2="1199" y2="940.5" gradientUnits="userSpaceOnUse">
<stop stop-color="#2C83F6" stop-opacity="0"/>
<stop offset="0.0795942" stop-color="#2B8AF5"/>
<stop offset="0.428271" stop-color="#25B1F2"/>
<stop offset="1" stop-color="#02162F"/>
</linearGradient>
<linearGradient id="paint19_linear_52_349" x1="1035.9" y1="710.427" x2="1430.02" y2="710.427" gradientUnits="userSpaceOnUse">
<stop stop-color="#2C83F6"/>
<stop offset="0.514372" stop-color="#25B1F2"/>
<stop offset="1" stop-color="#0B1726"/>
</linearGradient>
<linearGradient id="paint20_linear_52_349" x1="44773" y1="1574.5" x2="122.753" y2="1574.5" gradientUnits="userSpaceOnUse">
<stop stop-color="#4F83C2" stop-opacity="0"/>
<stop offset="0.11" stop-color="#3C93CC" stop-opacity="0.24"/>
<stop offset="0.23" stop-color="#2CA2D5" stop-opacity="0.44"/>
<stop offset="0.34" stop-color="#1EAEDC" stop-opacity="0.61"/>
<stop offset="0.46" stop-color="#13B8E2" stop-opacity="0.75"/>
<stop offset="0.58" stop-color="#0BC0E7" stop-opacity="0.86"/>
<stop offset="0.7" stop-color="#04C5EA" stop-opacity="0.94"/>
<stop offset="0.83" stop-color="#01C8EC" stop-opacity="0.98"/>
<stop offset="0.98" stop-color="#1AA8D6"/>
<stop offset="0.99" stop-color="#3D7EB9"/>
<stop offset="1" stop-color="#4970B0"/>
</linearGradient>
<clipPath id="clip0_52_349">
<rect width="1440" height="1024" fill="white"/>
</clipPath>
</defs>
</svg>
