<svg width="85" height="86" viewBox="0 0 85 86" fill="none" xmlns="http://www.w3.org/2000/svg">
<path d="M48.1072 63.6438L46.4627 52.6088L57.6077 51.7142L58.5023 50.7845C55.6468 47.6048 51.9671 45.14 47.8573 43.7493C45.3573 42.9642 42.6425 42.4641 39.8573 42.4641C37.0721 42.4641 34.3925 42.9641 31.8925 43.7493C22.787 46.8196 15.9625 54.9293 14.8925 64.7843C14.037 63.964 13.2128 63.1046 12.4628 62.1788C7.14246 55.8233 4.21276 47.7138 4.21276 39.3588C4.14635 19.7498 20.1818 3.74984 39.8218 3.74984C59.4668 3.74984 75.5018 19.7498 75.5018 39.3948C75.5018 43.6448 74.7166 47.8596 73.2518 51.7498L77.1073 52.035C78.5018 47.9998 79.2518 43.7147 79.2518 39.355C79.2518 17.64 61.5718 0 39.8568 0C18.1458 0 0.430756 17.645 0.430756 39.359C0.430756 48.609 3.68076 57.539 9.53626 64.574C17.0363 73.6092 28.0713 78.789 39.8213 78.789C43.2158 78.789 46.5361 78.3242 49.751 77.5038L41.7862 72.8593L48.0714 63.6093L48.1072 63.6438Z" fill="white"/>
<path d="M53.9322 27.0337C53.9322 19.2485 47.6119 12.9287 39.8272 12.9287C32.042 12.9287 25.7572 19.249 25.7572 27.0337C25.7572 34.8189 32.0424 41.1037 39.8272 41.1037C47.6124 41.1037 53.9322 34.8185 53.9322 27.0337Z" fill="white"/>
<path d="M79.3972 64.3188L80.7527 55.1743L76.073 54.8188L72.1082 54.5337H71.5028L65.2176 47.7134L60.2879 53.0337L58.8934 54.4985L49.6434 55.2133L50.9989 64.3578L45.7841 72.0375L53.3896 76.393L53.8192 76.643L56.5692 85.4633L65.2137 82.1078L73.8192 85.4633L76.5692 76.643L84.5692 71.9985L79.3544 64.3188L79.3972 64.3188ZM63.7522 75.1778L61.0374 72.6075L55.9319 67.752L58.5022 65.0372L63.5022 69.7872L71.7874 60.252L72.682 61.0372L74.6117 62.7169L63.7167 75.2169L63.7522 75.1778Z" fill="#1BD14D"/>
</svg>
