<svg width="20" height="20" viewBox="0 0 20 20" fill="none" xmlns="http://www.w3.org/2000/svg">
<path d="M14.3975 10.7991C12.4166 10.7991 10.7986 12.4202 10.7986 14.4011C10.7986 16.3821 12.4166 18.0001 14.3975 18.0001C16.3785 18.0001 17.9965 16.3821 17.9965 14.4011C17.9965 12.4202 16.3785 10.7991 14.3975 10.7991ZM14.3968 12.7364C14.5557 12.7364 14.7082 12.7995 14.8207 12.9119C14.9332 13.0242 14.9965 13.1766 14.9967 13.3356V14.1504L15.4811 14.6347C15.5933 14.7472 15.6564 14.8996 15.6564 15.0585C15.6564 15.2174 15.5933 15.3699 15.4811 15.4823C15.3686 15.5946 15.2162 15.6576 15.0573 15.6576C14.8984 15.6576 14.746 15.5946 14.6335 15.4823L14.003 14.8519C13.9387 14.7957 13.8871 14.7265 13.8516 14.6487C13.8162 14.571 13.7978 14.4866 13.7976 14.4011V13.3356C13.7978 13.1768 13.861 13.0245 13.9733 12.9121C14.0856 12.7998 14.2379 12.7366 14.3968 12.7364Z" fill="white"/>
<path d="M9.98662 2C5.58237 2 2 5.58237 2 9.98662C2 14.3909 5.58237 17.9762 9.98662 17.9762C10.1896 17.9762 10.3904 17.9671 10.5889 17.9526C10.7475 17.9411 10.8949 17.8672 10.999 17.747C11.1031 17.6269 11.1552 17.4705 11.144 17.3119C11.1383 17.2332 11.1172 17.1563 11.0817 17.0857C11.0463 17.0152 10.9972 16.9523 10.9374 16.9007C10.8776 16.8492 10.8082 16.8099 10.7332 16.7852C10.6582 16.7605 10.5791 16.7509 10.5004 16.7568C10.3304 16.7689 10.1593 16.7745 9.98662 16.7745C6.23085 16.7745 3.19873 13.7424 3.19873 9.98662C3.19873 6.23086 6.23085 3.20168 9.98662 3.20168C13.7424 3.20168 16.7745 6.23086 16.7745 9.98662C16.7745 10.1571 16.7654 10.3293 16.7538 10.5004C16.7483 10.5791 16.7583 10.6581 16.7834 10.733C16.8084 10.8078 16.848 10.877 16.8999 10.9365C16.9517 10.996 17.0148 11.0447 17.0855 11.0798C17.1562 11.1149 17.2331 11.1357 17.3118 11.1411C17.4704 11.1523 17.6269 11.1001 17.747 10.996C17.8671 10.892 17.941 10.7445 17.9525 10.586C17.9661 10.3907 17.9732 10.1894 17.9732 9.98662C17.9732 5.58237 14.3909 2 9.98662 2Z" fill="white"/>
<path d="M14.7846 4.34122L4.3385 14.7873C4.22632 14.8998 4.16333 15.0521 4.16333 15.211C4.16333 15.3698 4.22632 15.5222 4.3385 15.6347C4.45097 15.7469 4.60335 15.8099 4.7622 15.8099C4.92105 15.8099 5.07342 15.7469 5.18589 15.6347L15.6349 5.1886C15.7471 5.07613 15.8101 4.92376 15.8101 4.76491C15.8101 4.60606 15.7471 4.45369 15.6349 4.34122C15.5792 4.28523 15.5129 4.24079 15.44 4.21048C15.367 4.18016 15.2888 4.16455 15.2098 4.16455C15.1308 4.16455 15.0525 4.18016 14.9796 4.21048C14.9066 4.24079 14.8403 4.28523 14.7846 4.34122Z" fill="white"/>
</svg>
