<svg width="20" height="20" viewBox="0 0 20 20" fill="none" xmlns="http://www.w3.org/2000/svg">
<path fill-rule="evenodd" clip-rule="evenodd" d="M15.7143 9.57136C15.7143 10.8337 14.6909 11.8571 13.4285 11.8571C12.1662 11.8571 11.1428 10.8337 11.1428 9.57136C11.1428 8.30899 12.1662 7.28564 13.4285 7.28564C14.6909 7.28564 15.7143 8.30899 15.7143 9.57136ZM14.5714 9.57136C14.5714 10.2025 14.0597 10.7142 13.4285 10.7142C12.7973 10.7142 12.2857 10.2025 12.2857 9.57136C12.2857 8.94018 12.7973 8.4285 13.4285 8.4285C14.0597 8.4285 14.5714 8.94018 14.5714 9.57136Z" fill="white"/>
<path fill-rule="evenodd" clip-rule="evenodd" d="M13.4286 5H6.57143C4.0467 5 2 7.0467 2 9.57143C2 12.0961 4.0467 14.1429 6.57143 14.1429H13.4286C15.9533 14.1429 18 12.0961 18 9.57143C18 7.0467 15.9533 5 13.4286 5ZM3.14286 9.57143C3.14286 7.67789 4.67787 6.14286 6.57143 6.14286H13.4286C15.3222 6.14286 16.8571 7.67789 16.8571 9.57143C16.8571 11.465 15.3222 13 13.4286 13H6.57143C4.67787 13 3.14286 11.465 3.14286 9.57143Z" fill="white"/>
</svg>
