<svg width="20" height="20" viewBox="0 0 20 20" fill="none" xmlns="http://www.w3.org/2000/svg">
<path fill-rule="evenodd" clip-rule="evenodd" d="M4.28575 9.57136C4.28575 10.8337 5.30906 11.8571 6.57146 11.8571C7.83383 11.8571 8.85718 10.8337 8.85718 9.57136C8.85718 8.30899 7.83383 7.28564 6.57146 7.28564C5.30906 7.28564 4.28575 8.30899 4.28575 9.57136ZM5.42861 9.57136C5.42861 10.2025 5.94026 10.7142 6.57146 10.7142C7.20266 10.7142 7.71432 10.2025 7.71432 9.57136C7.71432 8.94018 7.20266 8.4285 6.57146 8.4285C5.94026 8.4285 5.42861 8.94018 5.42861 9.57136Z" fill="white"/>
<path fill-rule="evenodd" clip-rule="evenodd" d="M6.57143 5H13.4286C15.9533 5 18 7.0467 18 9.57143C18 12.0961 15.9533 14.1429 13.4286 14.1429H6.57143C4.04674 14.1429 2 12.0961 2 9.57143C2 7.0467 4.04674 5 6.57143 5ZM16.8571 9.57143C16.8571 7.67789 15.3221 6.14286 13.4286 6.14286H6.57143C4.67783 6.14286 3.14286 7.67789 3.14286 9.57143C3.14286 11.465 4.67783 13 6.57143 13H13.4286C15.3221 13 16.8571 11.465 16.8571 9.57143Z" fill="white"/>
</svg>
