<svg width="20" height="20" viewBox="0 0 20 20" fill="none" xmlns="http://www.w3.org/2000/svg">
<path fill-rule="evenodd" clip-rule="evenodd" d="M5.59998 4.71667L15.2833 14.4C16.3829 13.0821 16.9498 11.4007 16.8726 9.68605C16.7953 7.97144 16.0795 6.34774 14.8659 5.1341C13.6522 3.92046 12.0285 3.20467 10.3139 3.12742C8.59932 3.05018 6.91783 3.61707 5.59998 4.71667ZM14.4 15.2833L4.71665 5.6C3.61705 6.91785 3.05016 8.59934 3.1274 10.3139C3.20464 12.0286 3.92044 13.6523 5.13408 14.8659C6.34772 16.0795 7.97142 16.7953 9.68603 16.8726C11.4006 16.9498 13.0821 16.3829 14.4 15.2833ZM4.25415 4.255C7.42665 1.08167 12.5708 1.08167 15.7441 4.255C18.9175 7.4275 18.9175 12.5717 15.7441 15.745C12.5716 18.9183 7.42748 18.9183 4.25415 15.745C1.08081 12.5725 1.08081 7.42833 4.25415 4.255Z" fill="white"/>
</svg>
