<svg width="265" height="165" viewBox="0 0 265 165" fill="none" xmlns="http://www.w3.org/2000/svg">
<rect opacity="0.5" x="39.5728" y="10.4031" width="2.77416" height="126.918" rx="1.38708" fill="#454459"/>
<rect x="39.2261" y="102.644" width="3.4677" height="34.6769" rx="1.73385" fill="url(#paint0_linear_206_1149)"/>
<rect opacity="0.5" x="103.764" y="10.4031" width="2.77416" height="126.918" rx="1.38708" fill="#454459"/>
<rect x="103.416" y="63.8055" width="3.4677" height="73.5151" rx="1.73385" fill="url(#paint1_linear_206_1149)"/>
<rect opacity="0.5" x="167.953" y="10.4031" width="2.77416" height="126.918" rx="1.38708" fill="#454459"/>
<rect x="167.606" y="53.7491" width="3.4677" height="83.5714" rx="1.73385" fill="url(#paint2_linear_206_1149)"/>
<rect opacity="0.5" x="252.95" y="10.4031" width="2.77416" height="126.918" rx="1.38708" fill="#454459"/>
<rect x="252.603" y="87.7328" width="3.4677" height="49.588" rx="1.73385" fill="url(#paint3_linear_206_1149)"/>
<rect opacity="0.5" x="71.667" y="10.4031" width="2.77416" height="126.918" rx="1.38708" fill="#454459"/>
<rect x="71.3213" y="87.7328" width="3.4677" height="49.588" rx="1.73385" fill="url(#paint4_linear_206_1149)"/>
<rect opacity="0.5" x="135.857" y="10.4031" width="2.77416" height="126.918" rx="1.38708" fill="#454459"/>
<rect x="135.51" y="104.031" width="3.4677" height="33.2899" rx="1.73385" fill="url(#paint5_linear_206_1149)"/>
<rect opacity="0.3" x="199.7" width="24.2739" height="147.724" rx="12.1369" fill="#454459"/>
<rect opacity="0.5" x="210.449" y="10.4031" width="2.77416" height="126.918" rx="1.38708" fill="#454459"/>
<rect x="210.104" y="34.3302" width="3.4677" height="102.991" rx="1.73385" fill="url(#paint6_linear_206_1149)"/>
<path opacity="0.5" d="M31.8937 158.821L29.3497 151.429H29.3017C29.3177 151.629 29.3297 151.849 29.3377 152.089C29.3537 152.321 29.3657 152.561 29.3737 152.809C29.3817 153.049 29.3857 153.285 29.3857 153.517V158.821H28.4017V150.253H29.9377L32.3377 157.261H32.3857L34.8217 150.253H36.3457V158.821H35.3137V153.481C35.3137 153.257 35.3137 153.029 35.3137 152.797C35.3217 152.557 35.3337 152.321 35.3497 152.089C35.3657 151.857 35.3777 151.641 35.3857 151.441H35.3377L32.7817 158.821H31.8937ZM43.3644 155.593C43.3644 156.121 43.3044 156.589 43.1844 156.997C43.0644 157.405 42.8884 157.757 42.6564 158.053C42.4244 158.341 42.1404 158.561 41.8044 158.713C41.4684 158.865 41.0884 158.941 40.6644 158.941C40.2644 158.941 39.9004 158.865 39.5724 158.713C39.2444 158.561 38.9644 158.341 38.7324 158.053C38.5004 157.765 38.3204 157.417 38.1924 157.009C38.0644 156.593 38.0004 156.121 38.0004 155.593C38.0004 154.881 38.1044 154.281 38.3124 153.793C38.5284 153.297 38.8364 152.921 39.2364 152.665C39.6364 152.401 40.1204 152.269 40.6884 152.269C41.2244 152.269 41.6924 152.397 42.0924 152.653C42.4924 152.909 42.8044 153.285 43.0284 153.781C43.2524 154.269 43.3644 154.873 43.3644 155.593ZM39.0564 155.593C39.0564 156.113 39.1124 156.561 39.2244 156.937C39.3444 157.305 39.5244 157.589 39.7644 157.789C40.0044 157.981 40.3124 158.077 40.6884 158.077C41.0564 158.077 41.3604 157.981 41.6004 157.789C41.8404 157.589 42.0164 157.305 42.1284 156.937C42.2484 156.561 42.3084 156.113 42.3084 155.593C42.3084 155.065 42.2484 154.621 42.1284 154.261C42.0164 153.893 41.8404 153.617 41.6004 153.433C41.3604 153.241 41.0524 153.145 40.6764 153.145C40.1084 153.145 39.6964 153.357 39.4404 153.781C39.1844 154.205 39.0564 154.809 39.0564 155.593ZM47.7072 152.269C48.3872 152.269 48.8992 152.453 49.2432 152.821C49.5872 153.189 49.7592 153.773 49.7592 154.573V158.821H48.7392V154.681C48.7392 154.169 48.6432 153.785 48.4512 153.529C48.2592 153.273 47.9512 153.145 47.5272 153.145C46.9272 153.145 46.5072 153.341 46.2672 153.733C46.0272 154.117 45.9072 154.701 45.9072 155.485V158.821H44.8872V152.389H45.7032L45.8472 153.265H45.9072C46.0352 153.041 46.1912 152.857 46.3752 152.713C46.5592 152.561 46.7672 152.449 46.9992 152.377C47.2312 152.305 47.4672 152.269 47.7072 152.269Z" fill="white"/>
<path opacity="0.5" d="M3.17244 20.744C3.70044 20.744 4.15644 20.848 4.54044 21.056C4.93244 21.256 5.23244 21.544 5.44044 21.92C5.64844 22.288 5.75244 22.732 5.75244 23.252C5.75244 23.836 5.63644 24.344 5.40444 24.776C5.18044 25.208 4.84844 25.54 4.40844 25.772C3.97644 26.004 3.44844 26.12 2.82444 26.12C2.42444 26.12 2.05244 26.084 1.70844 26.012C1.37244 25.94 1.08444 25.832 0.844438 25.688V24.692C1.10844 24.86 1.41644 24.992 1.76844 25.088C2.12844 25.184 2.47644 25.232 2.81244 25.232C3.20444 25.232 3.54044 25.156 3.82044 25.004C4.10044 24.852 4.31644 24.636 4.46844 24.356C4.62044 24.068 4.69644 23.728 4.69644 23.336C4.69644 22.776 4.54044 22.352 4.22844 22.064C3.92444 21.768 3.45644 21.62 2.82444 21.62C2.60844 21.62 2.37644 21.64 2.12844 21.68C1.88044 21.712 1.66444 21.752 1.48044 21.8L1.00044 21.44L1.30044 17.432H5.20044V18.38H2.17644L1.98444 20.864C2.12844 20.832 2.30444 20.804 2.51244 20.78C2.72044 20.756 2.94044 20.744 3.17244 20.744ZM12.0588 21.704C12.0588 22.4 12.0108 23.02 11.9148 23.564C11.8188 24.108 11.6668 24.572 11.4588 24.956C11.2588 25.332 10.9948 25.62 10.6668 25.82C10.3388 26.02 9.94681 26.12 9.49081 26.12C8.93081 26.12 8.45881 25.964 8.07481 25.652C7.69881 25.332 7.41481 24.848 7.22281 24.2C7.03081 23.544 6.93481 22.712 6.93481 21.704C6.93481 20.752 7.02281 19.952 7.19881 19.304C7.37481 18.648 7.65081 18.152 8.02681 17.816C8.40281 17.472 8.89081 17.3 9.49081 17.3C10.0668 17.3 10.5428 17.472 10.9188 17.816C11.3028 18.152 11.5868 18.648 11.7708 19.304C11.9628 19.96 12.0588 20.76 12.0588 21.704ZM7.97881 21.704C7.97881 22.488 8.02681 23.14 8.12281 23.66C8.22681 24.18 8.38681 24.572 8.60281 24.836C8.82681 25.092 9.12281 25.22 9.49081 25.22C9.85881 25.22 10.1508 25.092 10.3668 24.836C10.5908 24.58 10.7548 24.192 10.8588 23.672C10.9628 23.144 11.0148 22.488 11.0148 21.704C11.0148 20.928 10.9628 20.284 10.8588 19.772C10.7548 19.252 10.5908 18.864 10.3668 18.608C10.1508 18.344 9.85881 18.212 9.49081 18.212C9.12281 18.212 8.82681 18.34 8.60281 18.596C8.38681 18.852 8.22681 19.24 8.12281 19.76C8.02681 20.272 7.97881 20.92 7.97881 21.704ZM14.7892 17.312C15.3252 17.312 15.7332 17.548 16.0132 18.02C16.3012 18.484 16.4452 19.14 16.4452 19.988C16.4452 20.836 16.3052 21.5 16.0252 21.98C15.7532 22.452 15.3412 22.688 14.7892 22.688C14.4372 22.688 14.1412 22.58 13.9012 22.364C13.6612 22.148 13.4772 21.84 13.3492 21.44C13.2292 21.032 13.1692 20.548 13.1692 19.988C13.1692 19.132 13.3012 18.472 13.5652 18.008C13.8292 17.544 14.2372 17.312 14.7892 17.312ZM14.7772 18.044C14.5132 18.044 14.3212 18.208 14.2012 18.536C14.0812 18.856 14.0212 19.34 14.0212 19.988C14.0212 20.636 14.0812 21.124 14.2012 21.452C14.3212 21.78 14.5172 21.944 14.7892 21.944C15.0612 21.944 15.2612 21.784 15.3892 21.464C15.5172 21.136 15.5812 20.644 15.5812 19.988C15.5812 19.34 15.5132 18.856 15.3772 18.536C15.2492 18.208 15.0492 18.044 14.7772 18.044ZM19.7212 17.432L15.6172 26H14.7412L18.8452 17.432H19.7212ZM19.6612 20.744C20.0132 20.744 20.3092 20.848 20.5492 21.056C20.7972 21.264 20.9852 21.568 21.1132 21.968C21.2412 22.36 21.3052 22.844 21.3052 23.42C21.3052 24.276 21.1692 24.94 20.8972 25.412C20.6252 25.884 20.2132 26.12 19.6612 26.12C19.3092 26.12 19.0092 26.012 18.7612 25.796C18.5212 25.58 18.3412 25.272 18.2212 24.872C18.1012 24.464 18.0412 23.98 18.0412 23.42C18.0412 22.556 18.1732 21.896 18.4372 21.44C18.7012 20.976 19.1092 20.744 19.6612 20.744ZM19.6492 21.488C19.3852 21.488 19.1892 21.648 19.0612 21.968C18.9412 22.288 18.8812 22.772 18.8812 23.42C18.8812 24.068 18.9412 24.556 19.0612 24.884C19.1892 25.204 19.3892 25.364 19.6612 25.364C19.9332 25.364 20.1332 25.204 20.2612 24.884C20.3892 24.556 20.4532 24.068 20.4532 23.42C20.4532 22.78 20.3852 22.3 20.2492 21.98C20.1212 21.652 19.9212 21.488 19.6492 21.488Z" fill="white"/>
<path opacity="0.5" d="M6.17244 56.092H5.05644V58H4.04844V56.092H0.388438V55.216L3.97644 49.372H5.05644V55.168H6.17244V56.092ZM4.04844 52.264C4.04844 52.096 4.04844 51.936 4.04844 51.784C4.05644 51.632 4.06444 51.484 4.07244 51.34C4.08044 51.196 4.08444 51.06 4.08444 50.932C4.09244 50.804 4.09644 50.684 4.09644 50.572H4.06044C3.99644 50.732 3.92044 50.9 3.83244 51.076C3.74444 51.252 3.66044 51.408 3.58044 51.544L1.36044 55.168H4.04844V52.264ZM12.0588 53.704C12.0588 54.4 12.0108 55.02 11.9148 55.564C11.8188 56.108 11.6668 56.572 11.4588 56.956C11.2588 57.332 10.9948 57.62 10.6668 57.82C10.3388 58.02 9.94681 58.12 9.49081 58.12C8.93081 58.12 8.45881 57.964 8.07481 57.652C7.69881 57.332 7.41481 56.848 7.22281 56.2C7.03081 55.544 6.93481 54.712 6.93481 53.704C6.93481 52.752 7.02281 51.952 7.19881 51.304C7.37481 50.648 7.65081 50.152 8.02681 49.816C8.40281 49.472 8.89081 49.3 9.49081 49.3C10.0668 49.3 10.5428 49.472 10.9188 49.816C11.3028 50.152 11.5868 50.648 11.7708 51.304C11.9628 51.96 12.0588 52.76 12.0588 53.704ZM7.97881 53.704C7.97881 54.488 8.02681 55.14 8.12281 55.66C8.22681 56.18 8.38681 56.572 8.60281 56.836C8.82681 57.092 9.12281 57.22 9.49081 57.22C9.85881 57.22 10.1508 57.092 10.3668 56.836C10.5908 56.58 10.7548 56.192 10.8588 55.672C10.9628 55.144 11.0148 54.488 11.0148 53.704C11.0148 52.928 10.9628 52.284 10.8588 51.772C10.7548 51.252 10.5908 50.864 10.3668 50.608C10.1508 50.344 9.85881 50.212 9.49081 50.212C9.12281 50.212 8.82681 50.34 8.60281 50.596C8.38681 50.852 8.22681 51.24 8.12281 51.76C8.02681 52.272 7.97881 52.92 7.97881 53.704ZM14.7892 49.312C15.3252 49.312 15.7332 49.548 16.0132 50.02C16.3012 50.484 16.4452 51.14 16.4452 51.988C16.4452 52.836 16.3052 53.5 16.0252 53.98C15.7532 54.452 15.3412 54.688 14.7892 54.688C14.4372 54.688 14.1412 54.58 13.9012 54.364C13.6612 54.148 13.4772 53.84 13.3492 53.44C13.2292 53.032 13.1692 52.548 13.1692 51.988C13.1692 51.132 13.3012 50.472 13.5652 50.008C13.8292 49.544 14.2372 49.312 14.7892 49.312ZM14.7772 50.044C14.5132 50.044 14.3212 50.208 14.2012 50.536C14.0812 50.856 14.0212 51.34 14.0212 51.988C14.0212 52.636 14.0812 53.124 14.2012 53.452C14.3212 53.78 14.5172 53.944 14.7892 53.944C15.0612 53.944 15.2612 53.784 15.3892 53.464C15.5172 53.136 15.5812 52.644 15.5812 51.988C15.5812 51.34 15.5132 50.856 15.3772 50.536C15.2492 50.208 15.0492 50.044 14.7772 50.044ZM19.7212 49.432L15.6172 58H14.7412L18.8452 49.432H19.7212ZM19.6612 52.744C20.0132 52.744 20.3092 52.848 20.5492 53.056C20.7972 53.264 20.9852 53.568 21.1132 53.968C21.2412 54.36 21.3052 54.844 21.3052 55.42C21.3052 56.276 21.1692 56.94 20.8972 57.412C20.6252 57.884 20.2132 58.12 19.6612 58.12C19.3092 58.12 19.0092 58.012 18.7612 57.796C18.5212 57.58 18.3412 57.272 18.2212 56.872C18.1012 56.464 18.0412 55.98 18.0412 55.42C18.0412 54.556 18.1732 53.896 18.4372 53.44C18.7012 52.976 19.1092 52.744 19.6612 52.744ZM19.6492 53.488C19.3852 53.488 19.1892 53.648 19.0612 53.968C18.9412 54.288 18.8812 54.772 18.8812 55.42C18.8812 56.068 18.9412 56.556 19.0612 56.884C19.1892 57.204 19.3892 57.364 19.6612 57.364C19.9332 57.364 20.1332 57.204 20.2612 56.884C20.3892 56.556 20.4532 56.068 20.4532 55.42C20.4532 54.78 20.3852 54.3 20.2492 53.98C20.1212 53.652 19.9212 53.488 19.6492 53.488Z" fill="white"/>
<path opacity="0.5" d="M5.52444 83.424C5.52444 83.792 5.45644 84.116 5.32044 84.396C5.19244 84.668 5.00444 84.9 4.75644 85.092C4.50844 85.276 4.21644 85.408 3.88044 85.488V85.536C4.49644 85.624 4.96044 85.848 5.27244 86.208C5.58444 86.568 5.74044 87.032 5.74044 87.6C5.74044 88.088 5.63244 88.524 5.41644 88.908C5.20044 89.292 4.87244 89.592 4.43244 89.808C4.00044 90.016 3.45244 90.12 2.78844 90.12C2.38044 90.12 2.00044 90.088 1.64844 90.024C1.30444 89.96 0.972438 89.852 0.652438 89.7V88.704C0.980438 88.872 1.32844 89.004 1.69644 89.1C2.06444 89.188 2.42044 89.232 2.76444 89.232C3.42844 89.232 3.90844 89.084 4.20444 88.788C4.50844 88.484 4.66044 88.076 4.66044 87.564C4.66044 87.212 4.57644 86.924 4.40844 86.7C4.24044 86.468 3.99644 86.3 3.67644 86.196C3.35644 86.084 2.96444 86.028 2.50044 86.028H1.81644V85.128H2.52444C2.94044 85.128 3.29244 85.06 3.58044 84.924C3.86844 84.788 4.08844 84.6 4.24044 84.36C4.39244 84.112 4.46844 83.828 4.46844 83.508C4.46844 83.092 4.34444 82.772 4.09644 82.548C3.84844 82.316 3.50444 82.2 3.06444 82.2C2.80044 82.2 2.56044 82.228 2.34444 82.284C2.13644 82.332 1.93644 82.408 1.74444 82.512C1.56044 82.616 1.37244 82.736 1.18044 82.872L0.676438 82.164C0.884438 81.996 1.10844 81.848 1.34844 81.72C1.59644 81.584 1.86444 81.484 2.15244 81.42C2.44844 81.348 2.76444 81.312 3.10044 81.312C3.90044 81.312 4.50444 81.508 4.91244 81.9C5.32044 82.292 5.52444 82.8 5.52444 83.424ZM12.0588 85.704C12.0588 86.4 12.0108 87.02 11.9148 87.564C11.8188 88.108 11.6668 88.572 11.4588 88.956C11.2588 89.332 10.9948 89.62 10.6668 89.82C10.3388 90.02 9.94681 90.12 9.49081 90.12C8.93081 90.12 8.45881 89.964 8.07481 89.652C7.69881 89.332 7.41481 88.848 7.22281 88.2C7.03081 87.544 6.93481 86.712 6.93481 85.704C6.93481 84.752 7.02281 83.952 7.19881 83.304C7.37481 82.648 7.65081 82.152 8.02681 81.816C8.40281 81.472 8.89081 81.3 9.49081 81.3C10.0668 81.3 10.5428 81.472 10.9188 81.816C11.3028 82.152 11.5868 82.648 11.7708 83.304C11.9628 83.96 12.0588 84.76 12.0588 85.704ZM7.97881 85.704C7.97881 86.488 8.02681 87.14 8.12281 87.66C8.22681 88.18 8.38681 88.572 8.60281 88.836C8.82681 89.092 9.12281 89.22 9.49081 89.22C9.85881 89.22 10.1508 89.092 10.3668 88.836C10.5908 88.58 10.7548 88.192 10.8588 87.672C10.9628 87.144 11.0148 86.488 11.0148 85.704C11.0148 84.928 10.9628 84.284 10.8588 83.772C10.7548 83.252 10.5908 82.864 10.3668 82.608C10.1508 82.344 9.85881 82.212 9.49081 82.212C9.12281 82.212 8.82681 82.34 8.60281 82.596C8.38681 82.852 8.22681 83.24 8.12281 83.76C8.02681 84.272 7.97881 84.92 7.97881 85.704ZM14.7892 81.312C15.3252 81.312 15.7332 81.548 16.0132 82.02C16.3012 82.484 16.4452 83.14 16.4452 83.988C16.4452 84.836 16.3052 85.5 16.0252 85.98C15.7532 86.452 15.3412 86.688 14.7892 86.688C14.4372 86.688 14.1412 86.58 13.9012 86.364C13.6612 86.148 13.4772 85.84 13.3492 85.44C13.2292 85.032 13.1692 84.548 13.1692 83.988C13.1692 83.132 13.3012 82.472 13.5652 82.008C13.8292 81.544 14.2372 81.312 14.7892 81.312ZM14.7772 82.044C14.5132 82.044 14.3212 82.208 14.2012 82.536C14.0812 82.856 14.0212 83.34 14.0212 83.988C14.0212 84.636 14.0812 85.124 14.2012 85.452C14.3212 85.78 14.5172 85.944 14.7892 85.944C15.0612 85.944 15.2612 85.784 15.3892 85.464C15.5172 85.136 15.5812 84.644 15.5812 83.988C15.5812 83.34 15.5132 82.856 15.3772 82.536C15.2492 82.208 15.0492 82.044 14.7772 82.044ZM19.7212 81.432L15.6172 90H14.7412L18.8452 81.432H19.7212ZM19.6612 84.744C20.0132 84.744 20.3092 84.848 20.5492 85.056C20.7972 85.264 20.9852 85.568 21.1132 85.968C21.2412 86.36 21.3052 86.844 21.3052 87.42C21.3052 88.276 21.1692 88.94 20.8972 89.412C20.6252 89.884 20.2132 90.12 19.6612 90.12C19.3092 90.12 19.0092 90.012 18.7612 89.796C18.5212 89.58 18.3412 89.272 18.2212 88.872C18.1012 88.464 18.0412 87.98 18.0412 87.42C18.0412 86.556 18.1732 85.896 18.4372 85.44C18.7012 84.976 19.1092 84.744 19.6612 84.744ZM19.6492 85.488C19.3852 85.488 19.1892 85.648 19.0612 85.968C18.9412 86.288 18.8812 86.772 18.8812 87.42C18.8812 88.068 18.9412 88.556 19.0612 88.884C19.1892 89.204 19.3892 89.364 19.6612 89.364C19.9332 89.364 20.1332 89.204 20.2612 88.884C20.3892 88.556 20.4532 88.068 20.4532 87.42C20.4532 86.78 20.3852 86.3 20.2492 85.98C20.1212 85.652 19.9212 85.488 19.6492 85.488Z" fill="white"/>
<path opacity="0.5" d="M5.77644 122H0.664438V121.172L2.70444 118.82C3.10444 118.372 3.43244 117.976 3.68844 117.632C3.94444 117.288 4.13244 116.96 4.25244 116.648C4.38044 116.328 4.44444 115.976 4.44444 115.592C4.44444 115.152 4.32044 114.812 4.07244 114.572C3.82444 114.332 3.49244 114.212 3.07644 114.212C2.72444 114.212 2.40844 114.276 2.12844 114.404C1.85644 114.524 1.57644 114.704 1.28844 114.944L0.736438 114.248C0.960438 114.056 1.19244 113.892 1.43244 113.756C1.67244 113.612 1.93244 113.504 2.21244 113.432C2.49244 113.352 2.78844 113.312 3.10044 113.312C3.60444 113.312 4.03244 113.404 4.38444 113.588C4.73644 113.772 5.00844 114.032 5.20044 114.368C5.40044 114.696 5.50044 115.088 5.50044 115.544C5.50044 115.88 5.45644 116.2 5.36844 116.504C5.28044 116.8 5.15244 117.092 4.98444 117.38C4.82444 117.66 4.62444 117.948 4.38444 118.244C4.14444 118.54 3.87644 118.848 3.58044 119.168L1.93644 121.016V121.064H5.77644V122ZM12.0588 117.704C12.0588 118.4 12.0108 119.02 11.9148 119.564C11.8188 120.108 11.6668 120.572 11.4588 120.956C11.2588 121.332 10.9948 121.62 10.6668 121.82C10.3388 122.02 9.94681 122.12 9.49081 122.12C8.93081 122.12 8.45881 121.964 8.07481 121.652C7.69881 121.332 7.41481 120.848 7.22281 120.2C7.03081 119.544 6.93481 118.712 6.93481 117.704C6.93481 116.752 7.02281 115.952 7.19881 115.304C7.37481 114.648 7.65081 114.152 8.02681 113.816C8.40281 113.472 8.89081 113.3 9.49081 113.3C10.0668 113.3 10.5428 113.472 10.9188 113.816C11.3028 114.152 11.5868 114.648 11.7708 115.304C11.9628 115.96 12.0588 116.76 12.0588 117.704ZM7.97881 117.704C7.97881 118.488 8.02681 119.14 8.12281 119.66C8.22681 120.18 8.38681 120.572 8.60281 120.836C8.82681 121.092 9.12281 121.22 9.49081 121.22C9.85881 121.22 10.1508 121.092 10.3668 120.836C10.5908 120.58 10.7548 120.192 10.8588 119.672C10.9628 119.144 11.0148 118.488 11.0148 117.704C11.0148 116.928 10.9628 116.284 10.8588 115.772C10.7548 115.252 10.5908 114.864 10.3668 114.608C10.1508 114.344 9.85881 114.212 9.49081 114.212C9.12281 114.212 8.82681 114.34 8.60281 114.596C8.38681 114.852 8.22681 115.24 8.12281 115.76C8.02681 116.272 7.97881 116.92 7.97881 117.704ZM14.7892 113.312C15.3252 113.312 15.7332 113.548 16.0132 114.02C16.3012 114.484 16.4452 115.14 16.4452 115.988C16.4452 116.836 16.3052 117.5 16.0252 117.98C15.7532 118.452 15.3412 118.688 14.7892 118.688C14.4372 118.688 14.1412 118.58 13.9012 118.364C13.6612 118.148 13.4772 117.84 13.3492 117.44C13.2292 117.032 13.1692 116.548 13.1692 115.988C13.1692 115.132 13.3012 114.472 13.5652 114.008C13.8292 113.544 14.2372 113.312 14.7892 113.312ZM14.7772 114.044C14.5132 114.044 14.3212 114.208 14.2012 114.536C14.0812 114.856 14.0212 115.34 14.0212 115.988C14.0212 116.636 14.0812 117.124 14.2012 117.452C14.3212 117.78 14.5172 117.944 14.7892 117.944C15.0612 117.944 15.2612 117.784 15.3892 117.464C15.5172 117.136 15.5812 116.644 15.5812 115.988C15.5812 115.34 15.5132 114.856 15.3772 114.536C15.2492 114.208 15.0492 114.044 14.7772 114.044ZM19.7212 113.432L15.6172 122H14.7412L18.8452 113.432H19.7212ZM19.6612 116.744C20.0132 116.744 20.3092 116.848 20.5492 117.056C20.7972 117.264 20.9852 117.568 21.1132 117.968C21.2412 118.36 21.3052 118.844 21.3052 119.42C21.3052 120.276 21.1692 120.94 20.8972 121.412C20.6252 121.884 20.2132 122.12 19.6612 122.12C19.3092 122.12 19.0092 122.012 18.7612 121.796C18.5212 121.58 18.3412 121.272 18.2212 120.872C18.1012 120.464 18.0412 119.98 18.0412 119.42C18.0412 118.556 18.1732 117.896 18.4372 117.44C18.7012 116.976 19.1092 116.744 19.6612 116.744ZM19.6492 117.488C19.3852 117.488 19.1892 117.648 19.0612 117.968C18.9412 118.288 18.8812 118.772 18.8812 119.42C18.8812 120.068 18.9412 120.556 19.0612 120.884C19.1892 121.204 19.3892 121.364 19.6612 121.364C19.9332 121.364 20.1332 121.204 20.2612 120.884C20.3892 120.556 20.4532 120.068 20.4532 119.42C20.4532 118.78 20.3852 118.3 20.2492 117.98C20.1212 117.652 19.9212 117.488 19.6492 117.488Z" fill="white"/>
<path opacity="0.5" d="M4.14444 154H3.12444V148.096C3.12444 147.88 3.12444 147.692 3.12444 147.532C3.13244 147.364 3.14044 147.204 3.14844 147.052C3.15644 146.892 3.16444 146.732 3.17244 146.572C3.06844 146.676 2.96844 146.772 2.87244 146.86C2.77644 146.948 2.65244 147.06 2.50044 147.196L1.64844 147.94L1.09644 147.268L3.26844 145.432H4.14444V154ZM12.0588 149.704C12.0588 150.4 12.0108 151.02 11.9148 151.564C11.8188 152.108 11.6668 152.572 11.4588 152.956C11.2588 153.332 10.9948 153.62 10.6668 153.82C10.3388 154.02 9.94681 154.12 9.49081 154.12C8.93081 154.12 8.45881 153.964 8.07481 153.652C7.69881 153.332 7.41481 152.848 7.22281 152.2C7.03081 151.544 6.93481 150.712 6.93481 149.704C6.93481 148.752 7.02281 147.952 7.19881 147.304C7.37481 146.648 7.65081 146.152 8.02681 145.816C8.40281 145.472 8.89081 145.3 9.49081 145.3C10.0668 145.3 10.5428 145.472 10.9188 145.816C11.3028 146.152 11.5868 146.648 11.7708 147.304C11.9628 147.96 12.0588 148.76 12.0588 149.704ZM7.97881 149.704C7.97881 150.488 8.02681 151.14 8.12281 151.66C8.22681 152.18 8.38681 152.572 8.60281 152.836C8.82681 153.092 9.12281 153.22 9.49081 153.22C9.85881 153.22 10.1508 153.092 10.3668 152.836C10.5908 152.58 10.7548 152.192 10.8588 151.672C10.9628 151.144 11.0148 150.488 11.0148 149.704C11.0148 148.928 10.9628 148.284 10.8588 147.772C10.7548 147.252 10.5908 146.864 10.3668 146.608C10.1508 146.344 9.85881 146.212 9.49081 146.212C9.12281 146.212 8.82681 146.34 8.60281 146.596C8.38681 146.852 8.22681 147.24 8.12281 147.76C8.02681 148.272 7.97881 148.92 7.97881 149.704ZM14.7892 145.312C15.3252 145.312 15.7332 145.548 16.0132 146.02C16.3012 146.484 16.4452 147.14 16.4452 147.988C16.4452 148.836 16.3052 149.5 16.0252 149.98C15.7532 150.452 15.3412 150.688 14.7892 150.688C14.4372 150.688 14.1412 150.58 13.9012 150.364C13.6612 150.148 13.4772 149.84 13.3492 149.44C13.2292 149.032 13.1692 148.548 13.1692 147.988C13.1692 147.132 13.3012 146.472 13.5652 146.008C13.8292 145.544 14.2372 145.312 14.7892 145.312ZM14.7772 146.044C14.5132 146.044 14.3212 146.208 14.2012 146.536C14.0812 146.856 14.0212 147.34 14.0212 147.988C14.0212 148.636 14.0812 149.124 14.2012 149.452C14.3212 149.78 14.5172 149.944 14.7892 149.944C15.0612 149.944 15.2612 149.784 15.3892 149.464C15.5172 149.136 15.5812 148.644 15.5812 147.988C15.5812 147.34 15.5132 146.856 15.3772 146.536C15.2492 146.208 15.0492 146.044 14.7772 146.044ZM19.7212 145.432L15.6172 154H14.7412L18.8452 145.432H19.7212ZM19.6612 148.744C20.0132 148.744 20.3092 148.848 20.5492 149.056C20.7972 149.264 20.9852 149.568 21.1132 149.968C21.2412 150.36 21.3052 150.844 21.3052 151.42C21.3052 152.276 21.1692 152.94 20.8972 153.412C20.6252 153.884 20.2132 154.12 19.6612 154.12C19.3092 154.12 19.0092 154.012 18.7612 153.796C18.5212 153.58 18.3412 153.272 18.2212 152.872C18.1012 152.464 18.0412 151.98 18.0412 151.42C18.0412 150.556 18.1732 149.896 18.4372 149.44C18.7012 148.976 19.1092 148.744 19.6612 148.744ZM19.6492 149.488C19.3852 149.488 19.1892 149.648 19.0612 149.968C18.9412 150.288 18.8812 150.772 18.8812 151.42C18.8812 152.068 18.9412 152.556 19.0612 152.884C19.1892 153.204 19.3892 153.364 19.6612 153.364C19.9332 153.364 20.1332 153.204 20.2612 152.884C20.3892 152.556 20.4532 152.068 20.4532 151.42C20.4532 150.78 20.3852 150.3 20.2492 149.98C20.1212 149.652 19.9212 149.488 19.6492 149.488Z" fill="white"/>
<path opacity="0.5" d="M164.837 158.821H163.781V150.253H168.065V151.189H164.837V154.237H167.873V155.173H164.837V158.821ZM171.974 152.269C172.086 152.269 172.202 152.277 172.322 152.293C172.45 152.301 172.562 152.317 172.658 152.341L172.526 153.325C172.43 153.301 172.326 153.281 172.214 153.265C172.11 153.249 172.006 153.241 171.902 153.241C171.686 153.241 171.478 153.293 171.278 153.397C171.086 153.501 170.914 153.653 170.762 153.853C170.618 154.045 170.502 154.273 170.414 154.537C170.334 154.801 170.294 155.093 170.294 155.413V158.821H169.274V152.389H170.09L170.222 153.529H170.27C170.39 153.289 170.534 153.073 170.702 152.881C170.87 152.689 171.062 152.541 171.278 152.437C171.494 152.325 171.726 152.269 171.974 152.269ZM174.77 152.389V158.821H173.75V152.389H174.77ZM174.278 149.965C174.446 149.965 174.586 150.021 174.698 150.133C174.81 150.245 174.866 150.417 174.866 150.649C174.866 150.873 174.81 151.041 174.698 151.153C174.586 151.265 174.446 151.321 174.278 151.321C174.102 151.321 173.954 151.265 173.834 151.153C173.722 151.041 173.666 150.873 173.666 150.649C173.666 150.417 173.722 150.245 173.834 150.133C173.946 150.021 174.094 149.965 174.278 149.965Z" fill="white"/>
<path opacity="0.5" d="M66.0747 158.821H65.0187V151.189H62.7147V150.253H68.3667V151.189H66.0747V158.821ZM73.7691 152.389V158.821H72.9411L72.7971 157.969H72.7371C72.6171 158.185 72.4611 158.365 72.2691 158.509C72.0851 158.653 71.8811 158.761 71.6571 158.833C71.4331 158.905 71.1931 158.941 70.9371 158.941C70.4731 158.941 70.0891 158.853 69.7851 158.677C69.4811 158.501 69.2531 158.241 69.1011 157.897C68.9491 157.545 68.8731 157.109 68.8731 156.589V152.389H69.9051V156.481C69.9051 157.017 70.0011 157.417 70.1931 157.681C70.3931 157.937 70.6971 158.065 71.1051 158.065C71.5131 158.065 71.8371 157.977 72.0771 157.801C72.3171 157.625 72.4891 157.369 72.5931 157.033C72.6971 156.689 72.7491 156.265 72.7491 155.761V152.389H73.7691ZM77.8682 152.269C78.3802 152.269 78.8122 152.393 79.1642 152.641C79.5242 152.881 79.7962 153.217 79.9802 153.649C80.1722 154.081 80.2682 154.581 80.2682 155.149V155.797H76.3562C76.3722 156.541 76.5322 157.105 76.8362 157.489C77.1482 157.873 77.5962 158.065 78.1802 158.065C78.5162 158.065 78.8242 158.029 79.1042 157.957C79.3922 157.885 79.6882 157.773 79.9922 157.621V158.521C79.7042 158.665 79.4122 158.769 79.1162 158.833C78.8202 158.905 78.4842 158.941 78.1082 158.941C77.5242 158.941 77.0202 158.809 76.5962 158.545C76.1802 158.281 75.8602 157.905 75.6362 157.417C75.4202 156.921 75.3122 156.333 75.3122 155.653C75.3122 154.941 75.4122 154.333 75.6122 153.829C75.8202 153.325 76.1162 152.941 76.5002 152.677C76.8842 152.405 77.3402 152.269 77.8682 152.269ZM77.8562 153.109C77.4162 153.109 77.0682 153.269 76.8122 153.589C76.5642 153.909 76.4162 154.373 76.3682 154.981H79.2242C79.2242 154.621 79.1762 154.301 79.0802 154.021C78.9842 153.741 78.8362 153.521 78.6362 153.361C78.4362 153.193 78.1762 153.109 77.8562 153.109Z" fill="white"/>
<path opacity="0.5" d="M101.708 150.253L99.6198 158.821H98.4918L97.0398 153.265C97.0078 153.129 96.9718 152.985 96.9318 152.833C96.8918 152.681 96.8558 152.529 96.8238 152.377C96.7918 152.225 96.7638 152.081 96.7398 151.945C96.7158 151.809 96.6958 151.685 96.6798 151.573C96.6718 151.653 96.6558 151.757 96.6318 151.885C96.6158 152.013 96.5918 152.153 96.5598 152.305C96.5278 152.457 96.4918 152.617 96.4518 152.785C96.4198 152.945 96.3798 153.109 96.3318 153.277L94.9158 158.821H93.7878L91.6998 150.253H92.7918L94.0158 155.497C94.0558 155.689 94.0958 155.881 94.1358 156.073C94.1758 156.257 94.2118 156.437 94.2438 156.613C94.2758 156.789 94.3038 156.957 94.3278 157.117C94.3518 157.277 94.3718 157.429 94.3878 157.573C94.4118 157.405 94.4358 157.237 94.4598 157.069C94.4918 156.893 94.5278 156.717 94.5678 156.541C94.6078 156.357 94.6478 156.177 94.6878 156.001C94.7278 155.817 94.7678 155.637 94.8078 155.461L96.1638 150.253H97.2078L98.5878 155.485C98.6358 155.653 98.6798 155.829 98.7198 156.013C98.7598 156.197 98.7958 156.377 98.8278 156.553C98.8678 156.729 98.8998 156.905 98.9238 157.081C98.9558 157.249 98.9838 157.413 99.0078 157.573C99.0398 157.349 99.0718 157.125 99.1038 156.901C99.1438 156.669 99.1878 156.433 99.2358 156.193C99.2918 155.953 99.3478 155.717 99.4038 155.485L100.628 150.253H101.708ZM104.791 152.269C105.303 152.269 105.735 152.393 106.087 152.641C106.447 152.881 106.719 153.217 106.903 153.649C107.095 154.081 107.191 154.581 107.191 155.149V155.797H103.279C103.295 156.541 103.455 157.105 103.759 157.489C104.071 157.873 104.519 158.065 105.103 158.065C105.439 158.065 105.747 158.029 106.027 157.957C106.315 157.885 106.611 157.773 106.915 157.621V158.521C106.627 158.665 106.335 158.769 106.039 158.833C105.743 158.905 105.407 158.941 105.031 158.941C104.447 158.941 103.943 158.809 103.519 158.545C103.103 158.281 102.783 157.905 102.559 157.417C102.343 156.921 102.235 156.333 102.235 155.653C102.235 154.941 102.335 154.333 102.535 153.829C102.743 153.325 103.039 152.941 103.423 152.677C103.807 152.405 104.263 152.269 104.791 152.269ZM104.779 153.109C104.339 153.109 103.991 153.269 103.735 153.589C103.487 153.909 103.339 154.373 103.291 154.981H106.147C106.147 154.621 106.099 154.301 106.003 154.021C105.907 153.741 105.759 153.521 105.559 153.361C105.359 153.193 105.099 153.109 104.779 153.109ZM110.704 158.941C109.976 158.941 109.4 158.661 108.976 158.101C108.552 157.541 108.34 156.713 108.34 155.617C108.34 154.521 108.552 153.689 108.976 153.121C109.4 152.553 109.976 152.269 110.704 152.269C110.984 152.269 111.236 152.309 111.46 152.389C111.684 152.469 111.88 152.581 112.048 152.725C112.224 152.861 112.372 153.025 112.492 153.217H112.552C112.544 153.081 112.532 152.925 112.516 152.749C112.5 152.565 112.492 152.409 112.492 152.281V149.701H113.524V158.821H112.696L112.552 157.969H112.492C112.372 158.161 112.228 158.329 112.06 158.473C111.892 158.617 111.696 158.733 111.472 158.821C111.248 158.901 110.992 158.941 110.704 158.941ZM110.896 158.077C111.472 158.077 111.884 157.893 112.132 157.525C112.38 157.157 112.504 156.597 112.504 155.845V155.593C112.504 154.785 112.384 154.173 112.144 153.757C111.904 153.341 111.484 153.133 110.884 153.133C110.38 153.133 110.004 153.357 109.756 153.805C109.516 154.245 109.396 154.853 109.396 155.629C109.396 156.413 109.52 157.017 109.768 157.441C110.016 157.865 110.392 158.077 110.896 158.077Z" fill="white"/>
<path opacity="0.5" d="M209.638 159.74C209.638 160.148 209.546 160.492 209.362 160.772C209.178 161.052 208.914 161.264 208.57 161.408C208.234 161.552 207.826 161.624 207.346 161.624C206.954 161.624 206.61 161.588 206.314 161.516C206.018 161.444 205.758 161.348 205.534 161.228V160.256C205.758 160.392 206.03 160.512 206.35 160.616C206.678 160.712 207.01 160.76 207.346 160.76C207.794 160.76 208.122 160.676 208.33 160.508C208.538 160.34 208.642 160.112 208.642 159.824C208.642 159.656 208.602 159.508 208.522 159.38C208.442 159.252 208.302 159.128 208.102 159.008C207.91 158.88 207.638 158.74 207.286 158.588C206.926 158.42 206.614 158.256 206.35 158.096C206.086 157.928 205.882 157.732 205.738 157.508C205.594 157.276 205.522 156.988 205.522 156.644C205.522 156.116 205.722 155.704 206.122 155.408C206.53 155.104 207.062 154.952 207.718 154.952C208.07 154.952 208.394 154.988 208.69 155.06C208.994 155.132 209.282 155.236 209.554 155.372L209.194 156.188C209.042 156.108 208.882 156.04 208.714 155.984C208.546 155.928 208.374 155.884 208.198 155.852C208.03 155.82 207.854 155.804 207.67 155.804C207.302 155.804 207.014 155.876 206.806 156.02C206.606 156.164 206.506 156.356 206.506 156.596C206.506 156.772 206.55 156.924 206.638 157.052C206.734 157.172 206.886 157.292 207.094 157.412C207.302 157.524 207.582 157.66 207.934 157.82C208.286 157.98 208.59 158.144 208.846 158.312C209.102 158.472 209.298 158.668 209.434 158.9C209.57 159.124 209.638 159.404 209.638 159.74ZM213.259 154.952C213.971 154.952 214.491 155.132 214.819 155.492C215.155 155.852 215.323 156.4 215.323 157.136V161.504H214.567L214.387 160.604H214.351C214.191 160.828 214.023 161.02 213.847 161.18C213.671 161.332 213.467 161.444 213.235 161.516C213.011 161.588 212.747 161.624 212.443 161.624C212.075 161.624 211.755 161.548 211.483 161.396C211.211 161.244 210.999 161.024 210.847 160.736C210.703 160.448 210.631 160.108 210.631 159.716C210.631 159.076 210.855 158.58 211.303 158.228C211.759 157.876 212.443 157.684 213.355 157.652L214.315 157.616V157.22C214.315 156.7 214.215 156.332 214.015 156.116C213.823 155.9 213.539 155.792 213.163 155.792C212.883 155.792 212.607 155.836 212.335 155.924C212.071 156.012 211.815 156.12 211.567 156.248L211.243 155.48C211.515 155.32 211.823 155.192 212.167 155.096C212.519 155 212.883 154.952 213.259 154.952ZM213.499 158.384C212.835 158.408 212.367 158.532 212.095 158.756C211.823 158.98 211.687 159.3 211.687 159.716C211.687 160.084 211.779 160.356 211.963 160.532C212.155 160.708 212.407 160.796 212.719 160.796C213.183 160.796 213.563 160.64 213.859 160.328C214.163 160.016 214.315 159.556 214.315 158.948V158.348L213.499 158.384ZM219.089 160.76C219.233 160.76 219.373 160.748 219.509 160.724C219.653 160.692 219.777 160.66 219.881 160.628V161.432C219.761 161.488 219.609 161.532 219.425 161.564C219.241 161.604 219.053 161.624 218.861 161.624C218.549 161.624 218.269 161.564 218.021 161.444C217.773 161.324 217.577 161.128 217.433 160.856C217.289 160.576 217.217 160.2 217.217 159.728V155.888H216.413V155.372L217.241 155.012L217.601 153.596H218.237V155.072H219.809V155.888H218.237V159.668C218.237 160.036 218.309 160.312 218.453 160.496C218.605 160.672 218.817 160.76 219.089 160.76Z" fill="white"/>
<path opacity="0.5" d="M132.343 158.821H131.287V151.189H128.983V150.253H134.635V151.189H132.343V158.821ZM136.726 152.341C136.726 152.501 136.718 152.661 136.702 152.821C136.694 152.981 136.682 153.129 136.666 153.265H136.738C136.85 153.049 136.998 152.869 137.182 152.725C137.366 152.573 137.57 152.461 137.794 152.389C138.026 152.309 138.266 152.269 138.514 152.269C138.978 152.269 139.362 152.353 139.666 152.521C139.97 152.689 140.198 152.941 140.35 153.277C140.502 153.613 140.578 154.045 140.578 154.573V158.821H139.558V154.681C139.558 154.153 139.462 153.765 139.27 153.517C139.078 153.269 138.77 153.145 138.346 153.145C137.946 153.145 137.626 153.233 137.386 153.409C137.154 153.585 136.986 153.849 136.882 154.201C136.778 154.545 136.726 154.973 136.726 155.485V158.821H135.706V149.701H136.726V152.341ZM145.109 152.269C145.221 152.269 145.337 152.277 145.457 152.293C145.585 152.301 145.697 152.317 145.793 152.341L145.661 153.325C145.565 153.301 145.461 153.281 145.349 153.265C145.245 153.249 145.141 153.241 145.037 153.241C144.821 153.241 144.613 153.293 144.413 153.397C144.221 153.501 144.049 153.653 143.897 153.853C143.753 154.045 143.637 154.273 143.549 154.537C143.469 154.801 143.429 155.093 143.429 155.413V158.821H142.409V152.389H143.225L143.357 153.529H143.405C143.525 153.289 143.669 153.073 143.837 152.881C144.005 152.689 144.197 152.541 144.413 152.437C144.629 152.325 144.861 152.269 145.109 152.269Z" fill="white"/>
<path opacity="0.5" d="M250.362 156.505C250.362 157.009 250.25 157.441 250.026 157.801C249.802 158.161 249.482 158.441 249.066 158.641C248.65 158.841 248.162 158.941 247.602 158.941C247.314 158.941 247.038 158.925 246.774 158.893C246.518 158.861 246.278 158.817 246.054 158.761C245.838 158.705 245.638 158.633 245.454 158.545V157.513C245.742 157.649 246.078 157.765 246.462 157.861C246.846 157.957 247.23 158.005 247.614 158.005C247.982 158.005 248.29 157.945 248.538 157.825C248.794 157.705 248.986 157.541 249.114 157.333C249.242 157.117 249.306 156.873 249.306 156.601C249.306 156.321 249.254 156.085 249.15 155.893C249.046 155.701 248.866 155.525 248.61 155.365C248.354 155.205 248.002 155.033 247.554 154.849C247.226 154.713 246.934 154.569 246.678 154.417C246.43 154.265 246.222 154.093 246.054 153.901C245.886 153.701 245.758 153.477 245.67 153.229C245.59 152.973 245.55 152.677 245.55 152.341C245.542 151.893 245.646 151.505 245.862 151.177C246.078 150.841 246.378 150.585 246.762 150.409C247.146 150.225 247.586 150.133 248.082 150.133C248.506 150.133 248.894 150.177 249.246 150.265C249.606 150.353 249.926 150.461 250.206 150.589L249.882 151.513C249.602 151.385 249.31 151.281 249.006 151.201C248.702 151.121 248.39 151.081 248.07 151.081C247.758 151.081 247.49 151.133 247.266 151.237C247.05 151.341 246.886 151.489 246.774 151.681C246.67 151.865 246.618 152.081 246.618 152.329C246.618 152.625 246.67 152.869 246.774 153.061C246.878 153.245 247.05 153.413 247.29 153.565C247.538 153.717 247.87 153.881 248.286 154.057C248.742 154.249 249.122 154.457 249.426 154.681C249.738 154.897 249.97 155.153 250.122 155.449C250.282 155.737 250.362 156.089 250.362 156.505ZM256.663 152.389V158.821H255.835L255.691 157.969H255.631C255.511 158.185 255.355 158.365 255.163 158.509C254.979 158.653 254.775 158.761 254.551 158.833C254.327 158.905 254.087 158.941 253.831 158.941C253.367 158.941 252.983 158.853 252.679 158.677C252.375 158.501 252.147 158.241 251.995 157.897C251.843 157.545 251.767 157.109 251.767 156.589V152.389H252.799V156.481C252.799 157.017 252.895 157.417 253.087 157.681C253.287 157.937 253.591 158.065 253.999 158.065C254.407 158.065 254.731 157.977 254.971 157.801C255.211 157.625 255.383 157.369 255.487 157.033C255.591 156.689 255.643 156.265 255.643 155.761V152.389H256.663ZM261.35 152.269C262.03 152.269 262.542 152.453 262.886 152.821C263.23 153.189 263.402 153.773 263.402 154.573V158.821H262.382V154.681C262.382 154.169 262.286 153.785 262.094 153.529C261.902 153.273 261.594 153.145 261.17 153.145C260.57 153.145 260.15 153.341 259.91 153.733C259.67 154.117 259.55 154.701 259.55 155.485V158.821H258.53V152.389H259.346L259.49 153.265H259.55C259.678 153.041 259.834 152.857 260.018 152.713C260.202 152.561 260.41 152.449 260.642 152.377C260.874 152.305 261.11 152.269 261.35 152.269Z" fill="white"/>
<defs>
<linearGradient id="paint0_linear_206_1149" x1="40.9599" y1="102.644" x2="40.9599" y2="137.321" gradientUnits="userSpaceOnUse">
<stop stop-color="#99FFA3"/>
<stop offset="1" stop-color="#68EE76"/>
</linearGradient>
<linearGradient id="paint1_linear_206_1149" x1="105.15" y1="63.8055" x2="105.15" y2="137.321" gradientUnits="userSpaceOnUse">
<stop stop-color="#99FFA3"/>
<stop offset="1" stop-color="#68EE76"/>
</linearGradient>
<linearGradient id="paint2_linear_206_1149" x1="169.34" y1="53.7491" x2="169.34" y2="137.321" gradientUnits="userSpaceOnUse">
<stop stop-color="#99FFA3"/>
<stop offset="1" stop-color="#68EE76"/>
</linearGradient>
<linearGradient id="paint3_linear_206_1149" x1="254.336" y1="87.7328" x2="254.336" y2="137.321" gradientUnits="userSpaceOnUse">
<stop stop-color="#99FFA3"/>
<stop offset="1" stop-color="#68EE76"/>
</linearGradient>
<linearGradient id="paint4_linear_206_1149" x1="73.0551" y1="87.7328" x2="73.0551" y2="137.321" gradientUnits="userSpaceOnUse">
<stop stop-color="#99FFA3"/>
<stop offset="1" stop-color="#68EE76"/>
</linearGradient>
<linearGradient id="paint5_linear_206_1149" x1="137.244" y1="104.031" x2="137.244" y2="137.321" gradientUnits="userSpaceOnUse">
<stop stop-color="#99FFA3"/>
<stop offset="1" stop-color="#68EE76"/>
</linearGradient>
<linearGradient id="paint6_linear_206_1149" x1="211.837" y1="34.3302" x2="211.837" y2="137.321" gradientUnits="userSpaceOnUse">
<stop stop-color="#99FFA3"/>
<stop offset="1" stop-color="#68EE76"/>
</linearGradient>
</defs>
</svg>
