<svg width="24" height="24" viewBox="0 0 24 24" fill="none" xmlns="http://www.w3.org/2000/svg">
<g clip-path="url(#clip0_173_752)">
<path d="M8.02214 3.91163C8.02214 3.68396 8.20841 3.49769 8.43608 3.49769H18.3499C18.5776 3.49769 18.7638 3.68396 18.7638 3.91163C18.7638 4.1393 18.5776 4.32557 18.3499 4.32557H8.43608C8.20841 4.32557 8.02214 4.1393 8.02214 3.91163ZM3.17491 3.91163C3.17491 2.98441 3.92829 2.23103 4.8555 2.23103C5.78272 2.23103 6.5361 2.98441 6.5361 3.91163C6.5361 4.83885 5.78272 5.59223 4.8555 5.59223C3.92829 5.59223 3.17491 4.83885 3.17491 3.91163ZM4.00278 3.91163C4.00278 4.37937 4.3836 4.76435 4.8555 4.76435C5.3274 4.76435 5.70823 4.38353 5.70823 3.91163C5.70823 3.43973 5.3274 3.05891 4.8555 3.05891C4.3836 3.05891 4.00278 3.43973 4.00278 3.91163ZM8.43594 11.3251H18.3498C18.5774 11.3251 18.7637 11.1389 18.7637 10.9112C18.7637 10.6835 18.5774 10.4973 18.3498 10.4973H8.43594C8.20828 10.4973 8.02201 10.6835 8.02201 10.9112C8.02201 11.1389 8.20828 11.3251 8.43594 11.3251ZM3.17491 10.9112C3.17491 9.98398 3.92829 9.2306 4.8555 9.2306C5.78272 9.2306 6.5361 9.98398 6.5361 10.9112C6.5361 11.8384 5.78272 12.5918 4.8555 12.5918C3.92829 12.5918 3.17491 11.8384 3.17491 10.9112ZM4.00278 10.9112C4.00278 11.3789 4.3836 11.7639 4.8555 11.7639C5.3274 11.7639 5.70823 11.3831 5.70823 10.9112C5.70823 10.4393 5.3274 10.0585 4.8555 10.0585C4.3836 10.0585 4.00278 10.4393 4.00278 10.9112ZM6.53194 17.9109C6.53194 18.8381 5.77856 19.5915 4.85134 19.5915C3.92413 19.5915 3.17075 18.8381 3.17075 17.9109C3.17075 16.9837 3.92413 16.2303 4.85134 16.2303C5.77856 16.2303 6.53194 16.9837 6.53194 17.9109ZM5.70407 17.9109C5.70407 17.4432 5.32325 17.0582 4.85134 17.0582C4.37944 17.0582 3.99862 17.439 3.99862 17.9109C3.99862 18.3828 4.37944 18.7636 4.85134 18.7636C5.32325 18.7636 5.70407 18.3828 5.70407 17.9109ZM13.1382 15.7584C13.1382 14.3138 14.3138 13.1341 15.7626 13.1341C17.2113 13.1341 18.3869 14.3097 18.3869 15.7584C18.3869 17.2072 17.2113 18.3828 15.7626 18.3828C14.3138 18.3828 13.1382 17.2072 13.1382 15.7584ZM13.9661 15.7584C13.9661 16.7477 14.7733 17.5549 15.7626 17.5549C16.7519 17.5549 17.5591 16.7477 17.5591 15.7584C17.5591 14.7691 16.7519 13.962 15.7626 13.962C14.7733 13.962 13.9661 14.7691 13.9661 15.7584ZM23.6275 23.0148L23.0231 23.6192C22.7706 23.8717 22.4353 24 22.1 24C21.7648 24 21.4336 23.8717 21.177 23.6192L19.3681 21.8103C19.3391 21.8103 19.3101 21.8186 19.2811 21.8186H2.53743C1.13833 21.8186 0 20.6802 0 19.2811V16.5326C0 15.6426 0.463609 14.8603 1.15902 14.4091C0.463609 13.9579 0 13.1714 0 12.2815V9.53294C0 8.64297 0.463609 7.86064 1.15902 7.40946C0.463609 6.95827 0 6.17178 0 5.28597V2.53743C0 1.13833 1.13833 0 2.53743 0H19.2811C20.6802 0 21.8186 1.13833 21.8186 2.53743V5.28597C21.8186 6.17594 21.355 6.95827 20.6595 7.41359C21.355 7.86477 21.8186 8.65126 21.8186 9.54121V12.2897C21.8186 13.1797 21.3508 13.9621 20.6513 14.4174C21.3508 14.8686 21.8186 15.655 21.8186 16.5409V19.2894C21.8186 19.3142 21.8144 19.3349 21.8144 19.3598L23.6316 21.177C24.1408 21.6861 24.1408 22.514 23.6316 23.0231L23.6275 23.0148ZM20.9907 16.5325C20.9907 15.8123 20.5312 15.1955 19.8938 14.9471C19.9434 15.2079 19.9724 15.477 19.9724 15.7543C19.9724 16.7643 19.6123 17.6957 19.0162 18.4199L19.3805 18.7842L19.3929 18.7718C19.811 18.3537 20.494 18.2916 20.9907 18.5855V16.5241L20.9907 16.5325ZM15.7628 19.1403C17.6255 19.1403 19.1447 17.6212 19.1447 15.7584C19.1447 13.8956 17.6297 12.3764 15.7628 12.3764C13.8958 12.3764 12.3808 13.8914 12.3808 15.7584C12.3808 17.6253 13.8958 19.1403 15.7628 19.1403ZM0.827932 5.28187C0.827932 6.22565 1.59371 6.99143 2.53748 6.99143C2.5499 6.99143 2.55818 6.99556 2.5706 6.9997H19.2481C19.2481 6.9997 19.2688 6.99556 19.2812 6.99556C20.225 6.99556 20.9907 6.22979 20.9907 5.28601V2.53747C20.9907 1.5937 20.225 0.82792 19.2812 0.82792H2.53748C1.59371 0.82792 0.827932 1.5937 0.827932 2.53747V5.28601V5.28187ZM0.827932 12.2816C0.827932 13.2254 1.59371 13.9911 2.53748 13.9911C2.5499 13.9911 2.55818 13.9953 2.5706 13.9994H11.9464C12.6128 12.5548 14.074 11.5489 15.767 11.5489C17.4601 11.5489 18.8923 12.5382 19.567 13.9622C20.3742 13.8256 20.9951 13.126 20.9951 12.2857V9.53718C20.9951 8.59341 20.2293 7.82763 19.2856 7.82763H2.53762C1.59384 7.82763 0.828064 8.59341 0.828064 9.53305L0.827932 12.2816ZM2.53748 20.9908H18.6025C18.4741 20.788 18.4038 20.5562 18.4038 20.3078C18.4038 19.9601 18.5404 19.6331 18.7846 19.3847L18.7929 19.3765L18.4286 19.0122C17.7001 19.6083 16.7729 19.9684 15.763 19.9684C14.4094 19.9684 13.2049 19.3226 12.4351 18.3251H8.43638C8.20871 18.3251 8.02244 18.1388 8.02244 17.9111C8.02244 17.6835 8.20871 17.4972 8.43638 17.4972H11.9341C11.6899 16.9674 11.5533 16.3795 11.5533 15.7587C11.5533 15.4399 11.5905 15.1253 11.6609 14.8273H2.53762C1.59384 14.8273 0.828064 15.5931 0.828064 16.5369V19.2854C0.828064 20.2292 1.59384 20.995 2.53762 20.995L2.53748 20.9908ZM23.0399 21.7566L20.6473 19.364C20.5563 19.273 20.4362 19.2233 20.312 19.2233C20.1879 19.2233 20.0637 19.273 19.9768 19.364L19.3724 19.9684C19.2814 20.0594 19.2317 20.1795 19.2317 20.3037C19.2317 20.4278 19.2814 20.552 19.3724 20.6389L21.765 23.0315C21.9512 23.2177 22.2534 23.2177 22.4397 23.0315L23.044 22.4271C23.2303 22.2409 23.2303 21.9387 23.044 21.7524L23.0399 21.7566Z" fill="url(#paint0_linear_173_752)"/>
</g>
<defs>
<linearGradient id="paint0_linear_173_752" x1="12.0067" y1="4.47034e-08" x2="12.0067" y2="24" gradientUnits="userSpaceOnUse">
<stop stop-color="#2B87F6"/>
<stop offset="1" stop-color="#28AEF2"/>
</linearGradient>
<clipPath id="clip0_173_752">
<rect width="24" height="24" fill="white"/>
</clipPath>
</defs>
</svg>
