<svg width="26" height="24" viewBox="0 0 26 24" fill="none" xmlns="http://www.w3.org/2000/svg">
<g opacity="0.5">
<path fill-rule="evenodd" clip-rule="evenodd" d="M12.1469 1.60636C5.96925 1.60636 0.950195 6.6282 0.950195 12.8031C0.950195 18.9807 5.96944 23.9999 12.1469 23.9999C18.3245 23.9999 23.3437 18.9807 23.3437 12.8031C23.3437 12.6583 23.2862 12.5193 23.1837 12.4169C23.0813 12.3145 22.9424 12.257 22.7975 12.257H17.7112C17.6229 12.2408 17.5321 12.2466 17.4466 12.2739C17.4264 12.2784 17.4065 12.284 17.3869 12.2908C17.357 12.3052 17.3284 12.3224 17.3015 12.342C17.2987 12.3448 17.2958 12.3476 17.293 12.3505C17.2813 12.3586 17.2699 12.3671 17.2589 12.3761C17.241 12.3893 17.2239 12.4036 17.2077 12.4188C17.1987 12.4298 17.1902 12.4412 17.1821 12.4529C17.1763 12.4585 17.1706 12.4641 17.165 12.4699C17.1591 12.4783 17.1534 12.4868 17.148 12.4955C17.1479 12.4984 17.1479 12.5012 17.148 12.504C17.1388 12.5178 17.1302 12.5321 17.1223 12.5467C17.1223 12.5495 17.1223 12.5523 17.1223 12.5552C17.1132 12.569 17.1046 12.5832 17.0967 12.5978C17.0967 12.6006 17.0967 12.6035 17.0967 12.6063C17.0904 12.6203 17.0848 12.6345 17.0797 12.649C17.0797 12.6518 17.0797 12.6546 17.0797 12.6574C17.0713 12.6882 17.0655 12.7196 17.0626 12.7513C17.0626 12.7541 17.0626 12.7569 17.0626 12.7598C17.0604 12.7882 17.0604 12.8167 17.0626 12.8451C17.0625 12.8507 17.0625 12.8564 17.0626 12.862C17.0304 15.5565 14.8466 17.718 12.1469 17.718C9.42416 17.718 7.23129 15.5251 7.23129 12.8023C7.23129 10.0969 9.40182 7.90967 12.1043 7.88665C12.1185 7.88721 12.1327 7.88721 12.1469 7.88665C12.1498 7.88667 12.1526 7.88667 12.1555 7.88665C12.1898 7.88705 12.2241 7.88422 12.2579 7.87818C12.3492 7.8601 12.4344 7.81898 12.5054 7.7587C12.5173 7.74783 12.5287 7.73644 12.5395 7.72457C12.5424 7.72178 12.5452 7.71895 12.5481 7.7161C12.5599 7.70523 12.5713 7.69384 12.5822 7.68196C12.5822 7.67914 12.5822 7.67632 12.5822 7.6735C12.5881 7.6651 12.5938 7.65654 12.5993 7.64783C12.6051 7.64231 12.6108 7.63666 12.6163 7.63089C12.633 7.60374 12.6473 7.57519 12.659 7.54555C12.659 7.54273 12.659 7.53992 12.659 7.5371C12.6653 7.52312 12.671 7.50888 12.6761 7.49441C12.6761 7.49159 12.6761 7.48877 12.6761 7.48595C12.6958 7.41665 12.7016 7.34415 12.6931 7.27261V2.15214C12.6931 2.00728 12.6356 1.86835 12.5331 1.76592C12.4307 1.66349 12.2918 1.60596 12.1469 1.60596V1.60636Z" fill="white"/>
<path fill-rule="evenodd" clip-rule="evenodd" d="M14.1267 0.000333364C13.9819 0.000333726 13.8429 0.0578712 13.7405 0.160298C13.6381 0.262725 13.5805 0.401662 13.5805 0.546517V5.50484C13.5794 5.52473 13.5794 5.54468 13.5805 5.56458C13.5773 5.59864 13.5773 5.63293 13.5805 5.66699C13.5805 5.66981 13.5805 5.67262 13.5805 5.67544C13.5828 5.68977 13.5856 5.70401 13.589 5.71812C13.589 5.72095 13.589 5.72377 13.589 5.72659C13.597 5.76177 13.6084 5.79608 13.6231 5.829C13.6586 5.91247 13.7143 5.98579 13.7853 6.04234C13.7989 6.05442 13.8132 6.06581 13.828 6.07647C13.8308 6.0765 13.8336 6.0765 13.8364 6.07647C13.8475 6.08547 13.8588 6.09403 13.8706 6.10214C13.8734 6.10216 13.8762 6.10216 13.879 6.10214C13.9833 6.15859 14.1031 6.17957 14.2204 6.1619C16.7877 6.21193 18.8472 8.26274 18.8971 10.83C18.8963 10.8471 18.8963 10.8642 18.8971 10.8812V10.8897C18.8936 10.9562 18.9023 11.0227 18.9228 11.086C18.9227 11.0888 18.9227 11.0917 18.9228 11.0945C18.9278 11.1089 18.9334 11.1232 18.9397 11.1371C18.9397 11.14 18.9397 11.1428 18.9397 11.1456C18.9476 11.1602 18.9562 11.1745 18.9654 11.1883C18.9653 11.1911 18.9653 11.1939 18.9654 11.1968C18.9825 11.227 19.0025 11.2556 19.0251 11.2821C19.0305 11.2908 19.0362 11.2994 19.042 11.3078C19.0476 11.3135 19.0534 11.3192 19.0592 11.3247C19.0621 11.3247 19.0649 11.3247 19.0677 11.3247C19.0911 11.3498 19.1168 11.3727 19.1445 11.393C19.1473 11.393 19.1501 11.393 19.153 11.393C19.1825 11.4131 19.2139 11.4302 19.2468 11.4442C19.2801 11.456 19.3144 11.4646 19.3492 11.4699C19.3521 11.4699 19.3549 11.4699 19.3577 11.4699C19.4254 11.4828 19.4949 11.4828 19.5625 11.4699H24.5038C24.5755 11.4699 24.6465 11.4557 24.7128 11.4283C24.779 11.4008 24.8393 11.3606 24.89 11.3099C24.9407 11.2592 24.9809 11.199 25.0084 11.1327C25.0358 11.0664 25.0499 10.9954 25.0499 10.9237C25.0499 4.89883 20.1511 0 14.1263 0L14.1267 0.000333364ZM14.6729 1.10977C19.6716 1.38283 23.6679 5.37912 23.941 10.3778H19.9726C19.7121 7.58029 17.4704 5.34714 14.6729 5.08667V1.10977Z" fill="white"/>
</g>
</svg>
