<svg width="25" height="24" viewBox="0 0 25 24" fill="none" xmlns="http://www.w3.org/2000/svg">
<g clip-path="url(#clip0_68_1284)">
<mask id="mask0_68_1284" style="mask-type:luminance" maskUnits="userSpaceOnUse" x="0" y="0" width="24" height="24">
<path d="M24 0H0V24H24V0Z" fill="white"/>
</mask>
<g mask="url(#mask0_68_1284)">
<path fill-rule="evenodd" clip-rule="evenodd" d="M18.9767 0.346665L21.5371 1.82493C22.3377 2.28715 22.738 2.98047 22.738 3.90491V6.86146C22.738 7.7859 22.3377 8.4792 21.5372 8.94145L18.9767 10.4197C18.1761 10.8819 17.3756 10.8819 16.575 10.4197L14.0146 8.94145C13.214 8.4792 12.8137 7.7859 12.8136 6.86148V4.58234H6.56312C6.02975 4.58234 5.76307 4.84902 5.76307 5.38239V6.56099C5.89641 6.61233 6.02975 6.67649 6.16309 6.75348L8.72349 8.23174C9.52411 8.69399 9.92437 9.38729 9.92437 10.3117V13.2683C9.92445 14.1927 9.52411 14.886 8.72357 15.3483L6.1631 16.8266C6.02976 16.9035 5.89641 16.9677 5.76307 17.019V18.1976C5.76307 18.731 6.02975 18.9977 6.56312 18.9977H12.8136V16.7185C12.8136 15.7941 13.214 15.1008 14.0145 14.6386L16.575 13.1603C17.3756 12.6981 18.1761 12.6981 18.9767 13.1603L21.5371 14.6386C22.3377 15.1008 22.738 15.7941 22.738 16.7185V19.6751C22.738 20.5995 22.3377 21.2928 21.5372 21.7551L18.9767 23.2334C18.1761 23.6955 17.3756 23.6955 16.575 23.2334L14.0146 21.7551C13.5077 21.4624 13.1613 21.0772 12.9753 20.5994H12.9707H6.56312C5.76253 20.5994 5.16209 20.3992 4.7618 19.9989C4.36151 19.5986 4.16136 18.9982 4.16136 18.1976V17.019C4.02802 16.9677 3.89469 16.9035 3.76134 16.8266L1.20089 15.3483C0.400314 14.886 1.60388e-05 14.1927 1.60388e-05 13.2683L0 10.3117C0 9.38729 0.40029 8.69399 1.20088 8.23174L3.76133 6.75348C3.89467 6.67649 4.02802 6.61233 4.16136 6.56099V5.38239C4.16136 3.78122 4.96195 2.98063 6.56312 2.98063H12.9707L12.9753 2.98064C13.1613 2.5028 13.5077 2.11756 14.0145 1.82495L16.575 0.346665C17.3756 -0.115555 18.1761 -0.115555 18.9767 0.346665ZM18.1759 1.73377C17.9092 1.5798 17.6425 1.5798 17.3758 1.73377L14.8153 3.21206C14.5487 3.36603 14.4153 3.59699 14.4153 3.90493V6.86147C14.4153 7.16941 14.5487 7.40037 14.8153 7.5543L17.3758 9.03259C17.6425 9.18659 17.9092 9.18659 18.1759 9.03259L20.7363 7.5543C21.003 7.40037 21.1363 7.16941 21.1363 6.86145V3.9049C21.1363 3.59697 21.003 3.36601 20.7363 3.21204L18.1759 1.73377ZM17.7758 2.98063C16.1741 2.98063 15.3733 3.78149 15.3733 5.38319C15.3733 6.98489 16.1741 7.78574 17.7758 7.78574C19.3775 7.78574 20.1784 6.98489 20.1784 5.38319C20.1784 3.78149 19.3775 2.98063 17.7758 2.98063ZM17.7758 6.18404C17.2419 6.18404 16.975 5.91709 16.975 5.38319C16.975 4.84928 17.2419 4.58234 17.7758 4.58234C18.3098 4.58234 18.5767 4.84928 18.5767 5.38319C18.5767 5.91709 18.3098 6.18404 17.7758 6.18404ZM5.36224 8.1406C5.09555 7.9866 4.82886 7.9866 4.56218 8.1406L2.00173 9.61889C1.73505 9.77282 1.6017 10.0038 1.6017 10.3117L1.60172 13.2683C1.60172 13.5762 1.73506 13.8072 2.00174 13.9611L4.56219 15.4394C4.82888 15.5934 5.09556 15.5934 5.36225 15.4394L7.92272 13.9611C8.18941 13.8072 8.32275 13.5762 8.32267 13.2683V10.3117C8.32267 10.0038 8.18933 9.77282 7.92264 9.61889L5.36224 8.1406ZM2.55966 11.79C2.55966 10.1883 3.36051 9.38745 4.96221 9.38745C6.56392 9.38745 7.36477 10.1883 7.36477 11.79C7.36477 13.3917 6.56392 14.1926 4.96221 14.1926C3.36051 14.1926 2.55966 13.3917 2.55966 11.79ZM4.16136 11.79C4.16136 12.3239 4.42831 12.5909 4.96221 12.5909C5.49612 12.5909 5.76307 12.3239 5.76307 11.79C5.76307 11.2561 5.49612 10.9892 4.96221 10.9892C4.42831 10.9892 4.16136 11.2561 4.16136 11.79ZM17.3758 14.5474C17.6425 14.3934 17.9092 14.3934 18.1759 14.5474L20.7363 16.0257C21.003 16.1796 21.1363 16.4106 21.1363 16.7185V19.6751C21.1363 19.983 21.003 20.214 20.7363 20.3679L18.1759 21.8462C17.9092 22.0002 17.6425 22.0002 17.3758 21.8462L14.8153 20.3679C14.5487 20.214 14.4153 19.983 14.4153 19.6751V16.7185C14.4153 16.4106 14.5487 16.1796 14.8153 16.0257L17.3758 14.5474ZM15.3733 18.1968C15.3733 16.5951 16.1741 15.7943 17.7758 15.7943C19.3775 15.7943 20.1784 16.5951 20.1784 18.1968C20.1784 19.7985 19.3775 20.5994 17.7758 20.5994C16.1741 20.5994 15.3733 19.7985 15.3733 18.1968ZM16.975 18.1968C16.975 18.7307 17.2419 18.9977 17.7758 18.9977C18.3098 18.9977 18.5767 18.7307 18.5767 18.1968C18.5767 17.6629 18.3098 17.396 17.7758 17.396C17.2419 17.396 16.975 17.6629 16.975 18.1968Z" fill="white"/>
<path fill-rule="evenodd" clip-rule="evenodd" d="M18.9767 0.346665L21.5371 1.82493C22.3377 2.28715 22.738 2.98047 22.738 3.90491V6.86146C22.738 7.7859 22.3377 8.4792 21.5372 8.94145L18.9767 10.4197C18.1761 10.8819 17.3756 10.8819 16.575 10.4197L14.0146 8.94145C13.214 8.4792 12.8137 7.7859 12.8136 6.86148V4.58234H6.56312C6.02975 4.58234 5.76307 4.84902 5.76307 5.38239V6.56099C5.89641 6.61233 6.02975 6.67649 6.16309 6.75348L8.72349 8.23174C9.52411 8.69399 9.92437 9.38729 9.92437 10.3117V13.2683C9.92445 14.1927 9.52411 14.886 8.72357 15.3483L6.1631 16.8266C6.02976 16.9035 5.89641 16.9677 5.76307 17.019V18.1976C5.76307 18.731 6.02975 18.9977 6.56312 18.9977H12.8136V16.7185C12.8136 15.7941 13.214 15.1008 14.0145 14.6386L16.575 13.1603C17.3756 12.6981 18.1761 12.6981 18.9767 13.1603L21.5371 14.6386C22.3377 15.1008 22.738 15.7941 22.738 16.7185V19.6751C22.738 20.5995 22.3377 21.2928 21.5372 21.7551L18.9767 23.2334C18.1761 23.6955 17.3756 23.6955 16.575 23.2334L14.0146 21.7551C13.5077 21.4624 13.1613 21.0772 12.9753 20.5994H12.9707H6.56312C5.76253 20.5994 5.16209 20.3992 4.7618 19.9989C4.36151 19.5986 4.16136 18.9982 4.16136 18.1976V17.019C4.02802 16.9677 3.89469 16.9035 3.76134 16.8266L1.20089 15.3483C0.400314 14.886 1.60388e-05 14.1927 1.60388e-05 13.2683L0 10.3117C0 9.38729 0.40029 8.69399 1.20088 8.23174L3.76133 6.75348C3.89467 6.67649 4.02802 6.61233 4.16136 6.56099V5.38239C4.16136 3.78122 4.96195 2.98063 6.56312 2.98063H12.9707L12.9753 2.98064C13.1613 2.5028 13.5077 2.11756 14.0145 1.82495L16.575 0.346665C17.3756 -0.115555 18.1761 -0.115555 18.9767 0.346665ZM18.1759 1.73377C17.9092 1.5798 17.6425 1.5798 17.3758 1.73377L14.8153 3.21206C14.5487 3.36603 14.4153 3.59699 14.4153 3.90493V6.86147C14.4153 7.16941 14.5487 7.40037 14.8153 7.5543L17.3758 9.03259C17.6425 9.18659 17.9092 9.18659 18.1759 9.03259L20.7363 7.5543C21.003 7.40037 21.1363 7.16941 21.1363 6.86145V3.9049C21.1363 3.59697 21.003 3.36601 20.7363 3.21204L18.1759 1.73377ZM17.7758 2.98063C16.1741 2.98063 15.3733 3.78149 15.3733 5.38319C15.3733 6.98489 16.1741 7.78574 17.7758 7.78574C19.3775 7.78574 20.1784 6.98489 20.1784 5.38319C20.1784 3.78149 19.3775 2.98063 17.7758 2.98063ZM17.7758 6.18404C17.2419 6.18404 16.975 5.91709 16.975 5.38319C16.975 4.84928 17.2419 4.58234 17.7758 4.58234C18.3098 4.58234 18.5767 4.84928 18.5767 5.38319C18.5767 5.91709 18.3098 6.18404 17.7758 6.18404ZM5.36224 8.1406C5.09555 7.9866 4.82886 7.9866 4.56218 8.1406L2.00173 9.61889C1.73505 9.77282 1.6017 10.0038 1.6017 10.3117L1.60172 13.2683C1.60172 13.5762 1.73506 13.8072 2.00174 13.9611L4.56219 15.4394C4.82888 15.5934 5.09556 15.5934 5.36225 15.4394L7.92272 13.9611C8.18941 13.8072 8.32275 13.5762 8.32267 13.2683V10.3117C8.32267 10.0038 8.18933 9.77282 7.92264 9.61889L5.36224 8.1406ZM2.55966 11.79C2.55966 10.1883 3.36051 9.38745 4.96221 9.38745C6.56392 9.38745 7.36477 10.1883 7.36477 11.79C7.36477 13.3917 6.56392 14.1926 4.96221 14.1926C3.36051 14.1926 2.55966 13.3917 2.55966 11.79ZM4.16136 11.79C4.16136 12.3239 4.42831 12.5909 4.96221 12.5909C5.49612 12.5909 5.76307 12.3239 5.76307 11.79C5.76307 11.2561 5.49612 10.9892 4.96221 10.9892C4.42831 10.9892 4.16136 11.2561 4.16136 11.79ZM17.3758 14.5474C17.6425 14.3934 17.9092 14.3934 18.1759 14.5474L20.7363 16.0257C21.003 16.1796 21.1363 16.4106 21.1363 16.7185V19.6751C21.1363 19.983 21.003 20.214 20.7363 20.3679L18.1759 21.8462C17.9092 22.0002 17.6425 22.0002 17.3758 21.8462L14.8153 20.3679C14.5487 20.214 14.4153 19.983 14.4153 19.6751V16.7185C14.4153 16.4106 14.5487 16.1796 14.8153 16.0257L17.3758 14.5474ZM15.3733 18.1968C15.3733 16.5951 16.1741 15.7943 17.7758 15.7943C19.3775 15.7943 20.1784 16.5951 20.1784 18.1968C20.1784 19.7985 19.3775 20.5994 17.7758 20.5994C16.1741 20.5994 15.3733 19.7985 15.3733 18.1968ZM16.975 18.1968C16.975 18.7307 17.2419 18.9977 17.7758 18.9977C18.3098 18.9977 18.5767 18.7307 18.5767 18.1968C18.5767 17.6629 18.3098 17.396 17.7758 17.396C17.2419 17.396 16.975 17.6629 16.975 18.1968Z" fill="url(#paint0_linear_68_1284)"/>
</g>
</g>
<defs>
<linearGradient id="paint0_linear_68_1284" x1="11.369" y1="4.39211e-08" x2="11.369" y2="23.58" gradientUnits="userSpaceOnUse">
<stop stop-color="#2B87F6"/>
<stop offset="1" stop-color="#28AEF2"/>
</linearGradient>
<clipPath id="clip0_68_1284">
<rect width="24" height="24" fill="white" transform="translate(0.5)"/>
</clipPath>
</defs>
</svg>
