<svg width="24" height="24" viewBox="0 0 24 24" fill="none" xmlns="http://www.w3.org/2000/svg">
<path d="M3.24999 2C2.56364 2 2 2.56365 2 3.25V10.2604C2 10.9467 2.56364 11.5104 3.24999 11.5104H10.2604C10.9467 11.5104 11.5097 10.9467 11.5097 10.2604V3.25C11.5097 2.56365 10.9467 2 10.2604 2H3.24999ZM13.7396 2C13.0533 2 12.4903 2.56365 12.4903 3.25V10.2604C12.4903 10.9467 13.0533 11.5104 13.7396 11.5104H20.75C21.4363 11.5104 22 10.9467 22 10.2604V3.25C22 2.56365 21.4363 2 20.75 2H13.7396ZM3.24999 2.69033H10.2604C10.5766 2.69033 10.82 2.93379 10.82 3.25V6.33257L10.0664 5.43413C9.85314 5.18 9.55146 5.03263 9.24206 5.02936C8.93266 5.02611 8.61893 5.17587 8.415 5.44962L6.38914 8.17053L5.18157 6.72993C4.98039 6.49003 4.69418 6.35277 4.40301 6.35278C4.11184 6.35278 3.82498 6.49004 3.62379 6.72993L2.68966 7.84388V3.25C2.68966 2.93379 2.93379 2.69033 3.24999 2.69033ZM13.7396 2.69033H20.75C21.0662 2.69033 21.3103 2.93379 21.3103 3.25V10.2604C21.3103 10.5766 21.0662 10.82 20.75 10.82H13.7396C13.4234 10.82 13.18 10.5766 13.18 10.2604V3.25C13.18 2.93379 13.4234 2.69033 13.7396 2.69033ZM15.9406 4.45824C15.8789 4.45605 15.8177 4.47047 15.7635 4.5C15.7093 4.52986 15.6641 4.57375 15.6327 4.62707C15.6013 4.6804 15.5848 4.74119 15.585 4.80307V8.70999C15.5856 8.77151 15.6026 8.83175 15.6343 8.88446C15.6661 8.93718 15.7113 8.98044 15.7654 9.00978C15.8194 9.03912 15.8804 9.05346 15.9419 9.05131C16.0034 9.04917 16.0631 9.03061 16.115 8.99758L19.1491 7.04512C19.1972 7.01379 19.2367 6.97096 19.264 6.92051C19.2914 6.87006 19.3057 6.81358 19.3057 6.7562C19.3057 6.69881 19.2914 6.64233 19.264 6.59188C19.2367 6.54143 19.1972 6.4986 19.1491 6.46727L16.115 4.5128C16.0629 4.47925 16.0026 4.46041 15.9406 4.45824ZM16.2753 5.43413L18.3295 6.75754L16.2753 8.07893V5.43413ZM9.23396 5.71902C9.33145 5.72005 9.44267 5.76484 9.53704 5.87729L10.82 7.40679V10.2604C10.82 10.5766 10.5766 10.82 10.2604 10.82H5.27384L8.96727 5.8618C9.04925 5.75176 9.13641 5.71799 9.23396 5.71902ZM4.38753 7.0431C4.39274 7.04286 4.39795 7.0431 4.40304 7.0431C4.4841 7.0431 4.56816 7.07215 4.65224 7.17242L5.96621 8.73828L4.41651 10.82H3.25002C2.93382 10.82 2.68967 10.5766 2.68969 10.2604V8.91878L4.15385 7.17242C4.2327 7.07844 4.31112 7.04673 4.38753 7.0431ZM3.24999 12.4903C2.56364 12.4903 2 13.0533 2 13.7396V20.7527C2 21.439 2.56364 22 3.24999 22H10.2604C10.9467 22 11.5097 21.439 11.5097 20.7527V13.7396C11.5097 13.0533 10.9467 12.4903 10.2604 12.4903H3.24999ZM13.7396 12.4903C13.0533 12.4903 12.4903 13.0533 12.4903 13.7396V20.7527C12.4903 21.439 13.0533 22 13.7396 22H20.75C21.4363 22 22 21.439 22 20.7527V13.7396C22 13.0533 21.4363 12.4903 20.75 12.4903H13.7396ZM3.24999 13.18H10.2604C10.5766 13.18 10.82 13.4234 10.82 13.7396V20.7527C10.82 21.0689 10.5766 21.313 10.2604 21.313H3.24999C2.93379 21.313 2.68965 21.0689 2.68966 20.7527V13.7396C2.68966 13.4234 2.93379 13.18 3.24999 13.18ZM13.7396 13.18H20.75C21.0662 13.18 21.3103 13.4234 21.3103 13.7396V20.7527C21.3103 21.0689 21.0662 21.313 20.75 21.313H13.7396C13.4234 21.313 13.18 21.0689 13.18 20.7527V13.7396C13.18 13.4234 13.4234 13.18 13.7396 13.18ZM18.6447 14.5242C18.3057 14.5244 17.9673 14.654 17.7105 14.9108L17.3697 15.2523L14.997 17.6243C14.9509 17.6712 14.9191 17.7303 14.9054 17.7947L14.5316 19.5512C14.5196 19.6073 14.5217 19.6655 14.5378 19.7205C14.554 19.7755 14.5836 19.8257 14.6239 19.8664C14.6643 19.9072 14.7142 19.9372 14.7692 19.9537C14.8241 19.9703 14.8822 19.9729 14.9384 19.9613L16.6949 19.5869C16.7605 19.573 16.8207 19.5402 16.868 19.4926L19.238 17.1226C19.2415 17.119 19.245 17.1154 19.2484 17.1118L19.5811 16.779C20.0947 16.2655 20.0949 15.4245 19.5811 14.9108C19.3243 14.6539 18.9837 14.5241 18.6447 14.5242ZM4.34711 14.8293C4.3016 14.8292 4.25651 14.838 4.21443 14.8553C4.17235 14.8727 4.13412 14.8982 4.10194 14.9303C4.06976 14.9625 4.04427 15.0007 4.02693 15.0428C4.0096 15.0849 4.00077 15.13 4.00095 15.1755C4.0013 15.267 4.03797 15.3545 4.10289 15.4189C4.16781 15.4834 4.25566 15.5194 4.34711 15.519H9.16325C9.25423 15.5186 9.34139 15.4823 9.40573 15.418C9.47007 15.3537 9.50637 15.2665 9.50673 15.1755C9.5069 15.1302 9.49816 15.0854 9.481 15.0434C9.46383 15.0015 9.43858 14.9634 9.40668 14.9313C9.37479 14.8991 9.33687 14.8736 9.2951 14.8561C9.25334 14.8386 9.20853 14.8295 9.16325 14.8293H4.34711ZM18.646 15.2085C18.8064 15.2085 18.9674 15.2713 19.0932 15.3971C19.3449 15.6488 19.3451 16.039 19.0932 16.2908L18.9942 16.3898L18.0998 15.4968L18.1995 15.3971C18.3254 15.2712 18.4856 15.2085 18.646 15.2085ZM17.6129 15.9837L18.5052 16.8788L16.4511 18.9329L15.3156 19.1747L15.5574 18.0392L17.6129 15.9837ZM4.34711 16.9017C4.25566 16.9013 4.16781 16.9373 4.10289 17.0017C4.03797 17.0661 4.0013 17.1537 4.00095 17.2452C4.00077 17.2907 4.0096 17.3358 4.02693 17.3778C4.04427 17.4199 4.06976 17.4581 4.10194 17.4903C4.13412 17.5225 4.17235 17.548 4.21443 17.5653C4.25651 17.5827 4.3016 17.5915 4.34711 17.5913H9.16325C9.20853 17.5911 9.25334 17.5821 9.2951 17.5646C9.33687 17.5471 9.37479 17.5215 9.40668 17.4894C9.43858 17.4572 9.46383 17.4191 9.481 17.3772C9.49816 17.3353 9.5069 17.2904 9.50673 17.2452C9.50637 17.1542 9.47007 17.067 9.40573 17.0027C9.34139 16.9383 9.25423 16.902 9.16325 16.9017H4.34711ZM4.34711 18.9733C4.25566 18.973 4.16781 19.009 4.10289 19.0734C4.03797 19.1378 4.0013 19.2254 4.00095 19.3168C4.00077 19.3623 4.0096 19.4074 4.02693 19.4495C4.04427 19.4916 4.06976 19.5298 4.10194 19.562C4.13412 19.5942 4.17235 19.6197 4.21443 19.637C4.25651 19.6543 4.3016 19.6632 4.34711 19.663H9.16325C9.20853 19.6628 9.25334 19.6537 9.2951 19.6362C9.33687 19.6187 9.37479 19.5932 9.40668 19.561C9.43858 19.5289 9.46383 19.4908 9.481 19.4489C9.49816 19.407 9.5069 19.3621 9.50673 19.3168C9.50637 19.2258 9.47007 19.1387 9.40573 19.0743C9.34139 19.01 9.25423 18.9737 9.16325 18.9733H4.34711Z" fill="white" fill-opacity="0.5"/>
</svg>
