<svg width="20" height="20" viewBox="0 0 20 20" fill="none" xmlns="http://www.w3.org/2000/svg">
<g clip-path="url(#clip0_173_332)">
<path d="M18.3483 2.55069C18.3416 2.53771 18.3305 2.52754 18.3171 2.522C16.761 1.80514 15.1189 1.29396 13.4319 1.00125C13.4166 0.998393 13.4008 1.00046 13.3867 1.00715C13.3726 1.01385 13.361 1.02483 13.3534 1.03855C13.1298 1.44605 12.9269 1.86461 12.7453 2.29265C10.9268 2.01547 9.07699 2.01547 7.25848 2.29265C7.07569 1.86353 6.86946 1.44485 6.64072 1.03855C6.63287 1.02513 6.62119 1.0144 6.60718 1.00775C6.59317 1.00109 6.57749 0.998832 6.56219 1.00125C4.87499 1.29334 3.2328 1.80456 1.67695 2.52204C1.66363 2.52771 1.65239 2.53739 1.64478 2.54974C-1.46662 7.21525 -2.31895 11.766 -1.90082 16.2605C-1.89965 16.2715 -1.89627 16.2822 -1.89091 16.2918C-1.88555 16.3015 -1.8783 16.31 -1.8696 16.3168C-0.0578585 17.6638 1.96859 18.6919 4.12328 19.3574C4.13845 19.362 4.15466 19.3617 4.16971 19.3568C4.18477 19.3518 4.19795 19.3424 4.20749 19.3297C4.67027 18.6974 5.08032 18.0279 5.43349 17.3279C5.43834 17.3183 5.44111 17.3078 5.44162 17.2971C5.44213 17.2863 5.44035 17.2756 5.43643 17.2655C5.4325 17.2555 5.4265 17.2464 5.41882 17.2389C5.41115 17.2314 5.40197 17.2256 5.3919 17.2219C4.74527 16.9735 4.11925 16.674 3.51973 16.3263C3.50884 16.3198 3.49969 16.3108 3.4931 16.3C3.4865 16.2892 3.48266 16.2769 3.48191 16.2642C3.48117 16.2516 3.48354 16.2389 3.48882 16.2274C3.49409 16.2159 3.50212 16.2058 3.51218 16.1982C3.63797 16.1035 3.76385 16.0051 3.88397 15.9057C3.89465 15.8968 3.90756 15.8912 3.92126 15.8893C3.93496 15.8875 3.94891 15.8895 3.96153 15.8952C7.88925 17.695 12.1416 17.695 16.0228 15.8952C16.0354 15.8891 16.0495 15.8868 16.0634 15.8885C16.0773 15.8902 16.0905 15.8958 16.1013 15.9047C16.2215 16.0041 16.3473 16.1035 16.4741 16.1982C16.4842 16.2057 16.4923 16.2157 16.4976 16.2272C16.503 16.2387 16.5055 16.2513 16.5048 16.264C16.5041 16.2766 16.5004 16.289 16.4939 16.2998C16.4874 16.3107 16.4783 16.3198 16.4674 16.3263C15.8693 16.6769 15.2427 16.9762 14.5944 17.2209C14.5843 17.2248 14.5752 17.2307 14.5675 17.2384C14.5599 17.246 14.554 17.2552 14.5501 17.2653C14.5463 17.2754 14.5446 17.2862 14.5452 17.297C14.5458 17.3078 14.5486 17.3183 14.5536 17.3279C14.9126 18.024 15.3221 18.6927 15.7786 19.3286C15.7879 19.3416 15.801 19.3514 15.8161 19.3566C15.8312 19.3617 15.8476 19.3619 15.8628 19.3573C18.0214 18.6941 20.0514 17.6658 21.8654 16.3168C21.8742 16.3104 21.8816 16.3021 21.887 16.2925C21.8923 16.283 21.8956 16.2724 21.8966 16.2614C22.3972 11.0654 21.0586 6.55189 18.3483 2.55069ZM6.02006 13.5238C4.83753 13.5238 3.86316 12.4342 3.86316 11.096C3.86316 9.7578 4.81863 8.66808 6.02006 8.66808C7.23088 8.66808 8.19583 9.76727 8.17693 11.0959C8.17693 12.4342 7.22141 13.5238 6.02006 13.5238ZM13.9948 13.5238C12.8123 13.5238 11.8379 12.4342 11.8379 11.096C11.8379 9.7578 12.7934 8.66808 13.9948 8.66808C15.2057 8.66808 16.1706 9.76727 16.1517 11.0959C16.1517 12.4342 15.2057 13.5238 13.9948 13.5238Z" fill="white"/>
</g>
<defs>
<clipPath id="clip0_173_332">
<rect width="20" height="20" fill="white"/>
</clipPath>
</defs>
</svg>
