<svg width="18" height="14" viewBox="0 0 18 14" fill="none" xmlns="http://www.w3.org/2000/svg">
<path d="M0.696452 7.26833C0.638943 7.09549 0.638943 6.90867 0.696452 6.73583C1.85229 3.25833 5.13312 0.75 8.99979 0.75C12.8648 0.75 16.144 3.25583 17.3023 6.73167C17.3606 6.90417 17.3606 7.09083 17.3023 7.26417C16.1473 10.7417 12.8665 13.25 8.99979 13.25C5.13479 13.25 1.85479 10.7442 0.696452 7.26833Z" stroke="white" stroke-linecap="round" stroke-linejoin="round"/>
<path d="M11.5 7C11.5 7.66304 11.2366 8.29893 10.7678 8.76777C10.2989 9.23661 9.66304 9.5 9 9.5C8.33696 9.5 7.70107 9.23661 7.23223 8.76777C6.76339 8.29893 6.5 7.66304 6.5 7C6.5 6.33696 6.76339 5.70107 7.23223 5.23223C7.70107 4.76339 8.33696 4.5 9 4.5C9.66304 4.5 10.2989 4.76339 10.7678 5.23223C11.2366 5.70107 11.5 6.33696 11.5 7Z" stroke="white" stroke-linecap="round" stroke-linejoin="round"/>
</svg>
