<svg width="20" height="20" viewBox="0 0 20 20" fill="none" xmlns="http://www.w3.org/2000/svg">
<path d="M18.0591 7.82214C17.46 7.71843 16.5025 7.68515 15.4995 7.68581C15.5859 7.36097 15.6326 7.01917 15.6326 6.66683C15.6326 5.83409 15.3747 5.06218 14.9343 4.4253C15.0021 4.14433 15.2339 2.99667 14.7596 2.03784C13.9198 2.09163 13.1972 2.58253 12.8253 2.8869C12.4643 2.77843 12.0815 2.7189 11.6853 2.7189H9.67805C9.28184 2.7189 8.89973 2.77843 8.53871 2.8869C8.16617 2.58253 7.44418 2.09163 6.60379 2.03784C6.13016 2.99667 6.36121 4.14397 6.42902 4.4253C5.98867 5.06218 5.73074 5.83409 5.73074 6.66683C5.73074 7.01917 5.77746 7.36097 5.86387 7.68644C4.86152 7.68515 3.90336 7.71843 3.30488 7.82214C3.20953 7.83878 3.14617 7.92901 3.16281 8.02378C3.1775 8.10827 3.25051 8.1678 3.33434 8.1678C3.34395 8.1678 3.35418 8.16714 3.36379 8.16526C3.96031 8.06222 4.94602 8.03179 5.97527 8.03597C6.01109 8.13358 6.05145 8.22894 6.0943 8.32272C5.26926 8.3928 4.4884 8.47569 3.95137 8.56851C3.85664 8.58483 3.79328 8.67507 3.80992 8.77015C3.82461 8.85464 3.89824 8.91479 3.98145 8.91479C3.99105 8.91479 4.00066 8.91351 4.0109 8.91159C4.56391 8.81624 5.39664 8.73046 6.26969 8.65812C6.75805 9.49179 7.54277 10.1303 8.47918 10.4285C8.03051 10.753 7.6823 11.2072 7.48965 11.7368C7.15617 11.7368 6.74781 11.7368 6.47769 11.7368C4.41926 11.7368 4.16641 9.11511 1.79688 9.11511C4.01086 9.36729 3.0143 13.3101 6.47769 13.3101C6.80668 13.3101 7.08574 13.3101 7.32258 13.3101C7.32258 14.3785 7.32258 16.5016 7.32258 17.0668C7.32258 17.9334 6.90336 17.9616 6.87645 17.9623C8.66672 17.9623 8.66672 16.6194 8.66672 16.6194V13.0362C8.66672 13.0362 8.66672 12.5881 9.11414 12.5881C9.11414 12.5881 9.11414 16.9132 9.11414 17.0668C9.11414 17.9334 8.69492 17.9616 8.66805 17.9623C10.1607 17.9623 10.4084 17.029 10.4494 16.7186H10.4577V12.8121C10.4577 12.6885 10.5582 12.5881 10.6817 12.5881C10.8052 12.5881 10.9057 12.6885 10.9057 12.8121V16.7185H10.914C10.9556 17.029 11.2033 17.9622 12.6954 17.9622C12.6685 17.9615 12.2492 17.9334 12.2492 17.0667C12.2492 16.9132 12.2492 12.5881 12.2492 12.5881C12.6973 12.5881 12.6973 13.0362 12.6973 13.0362V16.6194C12.6973 16.6194 12.6973 17.9622 14.4869 17.9622C14.46 17.9615 14.0407 17.9334 14.0407 17.0667C14.0407 16.3031 14.0407 12.6879 14.0407 12.6879C14.0407 11.7576 13.5844 10.9348 12.8842 10.4285C13.8212 10.1301 14.6053 9.49171 15.0937 8.65804C15.9667 8.73038 16.7994 8.81612 17.3531 8.91151C17.3627 8.91343 17.3729 8.91472 17.3825 8.91472C17.4657 8.91472 17.5394 8.85456 17.5541 8.77007C17.5701 8.67499 17.5067 8.58476 17.412 8.56843C16.8756 8.47562 16.0941 8.39272 15.2691 8.32265C15.312 8.2289 15.3523 8.13351 15.3888 8.03589C16.4173 8.03175 17.4037 8.06214 17.9996 8.16519C18.0092 8.1671 18.0194 8.16772 18.0296 8.16772C18.1122 8.16772 18.1865 8.10819 18.2005 8.0237C18.2172 7.92901 18.1538 7.83878 18.0591 7.82214ZM11.7429 9.66198H9.54398C8.15953 9.66198 7.03684 8.53933 7.03684 7.15456C7.03684 5.7698 8.15953 4.64741 9.54398 4.64741H11.7429C13.1277 4.64741 14.2504 5.76976 14.2504 7.15456C14.2504 8.53937 13.1277 9.66198 11.7429 9.66198ZM9.69855 6.13589V7.09151C9.69855 7.43108 9.42332 7.70597 9.0841 7.70597C8.74488 7.70597 8.46965 7.43105 8.46965 7.09151V6.13589C8.46965 5.79667 8.74484 5.52144 9.0841 5.52144C9.42336 5.52144 9.69855 5.79667 9.69855 6.13589ZM12.9757 6.13589V7.09151C12.9757 7.43108 12.7005 7.70597 12.3612 7.70597C12.022 7.70597 11.7468 7.43105 11.7468 7.09151V6.13589C11.7468 5.79667 12.0221 5.52144 12.3612 5.52144C12.7005 5.52144 12.9757 5.79667 12.9757 6.13589Z" fill="white"/>
</svg>
