<svg width="24" height="24" viewBox="0 0 24 24" fill="none" xmlns="http://www.w3.org/2000/svg">
<g clip-path="url(#clip0_246_622)">
<path d="M23.3372 4.81701C23.2372 4.61157 23.0849 4.43611 22.8955 4.30831C22.7061 4.18051 22.4864 4.10489 22.2585 4.08906L21.1327 3.98564L23.1136 1.98689C23.2396 1.85774 23.3095 1.68402 23.308 1.50358C23.3066 1.32313 23.2339 1.15058 23.1058 1.02349C22.9777 0.896403 22.8045 0.825081 22.6241 0.825057C22.4436 0.825033 22.2705 0.896309 22.1423 1.02336L20.1508 3.0328L20.0444 1.87499C20.0286 1.6472 19.953 1.4276 19.8254 1.23828C19.6977 1.04897 19.5224 0.896632 19.3172 0.7966C19.0871 0.69045 18.8299 0.657707 18.5806 0.70282C18.3313 0.747933 18.1019 0.868714 17.9236 1.04875L16.4478 2.52494C16.3767 2.59609 16.3221 2.68202 16.2879 2.77664C16.2536 2.87126 16.2407 2.97224 16.2499 3.07244L16.507 5.86818C16.529 6.10766 16.4983 6.34907 16.4171 6.57542C16.3358 6.80178 16.2059 7.00759 16.0366 7.17839L10.8824 12.3774C10.8189 12.4414 10.7686 12.5173 10.7344 12.6007C10.7002 12.6842 10.6827 12.7736 10.6831 12.8638C10.6835 12.954 10.7016 13.0432 10.7365 13.1264C10.7714 13.2096 10.8223 13.2851 10.8863 13.3486C10.9496 13.4116 11.0248 13.4614 11.1075 13.495C11.1902 13.5286 11.2787 13.5454 11.368 13.5444C11.4581 13.5447 11.5474 13.5272 11.6307 13.493C11.7141 13.4587 11.7898 13.4083 11.8537 13.3447L17.0378 8.11585C17.2088 7.9434 17.4158 7.8109 17.644 7.72783C17.8722 7.64477 18.1159 7.61321 18.3578 7.6354L21.0612 7.88388C21.0823 7.88579 21.1034 7.88676 21.124 7.88676C21.214 7.88677 21.3031 7.86904 21.3862 7.83459C21.4694 7.80013 21.5449 7.74962 21.6085 7.68595L23.0849 6.20999C23.2649 6.03183 23.3857 5.80254 23.4309 5.55331C23.476 5.30408 23.4433 5.04699 23.3372 4.81701ZM20.8668 6.48951L17.9155 6.21835L17.644 3.2671L18.6989 2.21204L18.9181 4.59584C18.9327 4.75526 19.0026 4.90452 19.1158 5.01774C19.229 5.13095 19.3783 5.20095 19.5377 5.2156L21.9212 5.43479L20.8668 6.48951Z" fill="white" fill-opacity="0.8"/>
<path d="M12.7027 9.20928C11.8663 8.90161 10.9498 8.88935 10.1055 9.17454C9.26117 9.45974 8.53982 10.0252 8.06128 10.777C7.58274 11.5288 7.37582 12.4218 7.47489 13.3074C7.57395 14.1931 7.97304 15.0182 8.60587 15.6457C9.23869 16.2732 10.0671 16.6654 10.9536 16.757C11.8401 16.8486 12.7312 16.6341 13.479 16.1493C14.2268 15.6644 14.7861 14.9383 15.0642 14.0916C15.3422 13.2449 15.3223 12.3285 15.0076 11.4948L12.5162 14.0076C12.2123 14.3113 11.8002 14.4821 11.3705 14.4825C10.9408 14.4828 10.5285 14.3127 10.224 14.0095C9.91952 13.7063 9.74771 13.2947 9.74625 12.865C9.7448 12.4353 9.91383 12.0226 10.2163 11.7173L12.7027 9.20928Z" fill="white" fill-opacity="0.8"/>
<path d="M20.9755 8.81738L18.272 8.56894C18.2503 8.56691 18.2286 8.56594 18.207 8.56594C18.0179 8.56647 17.8368 8.642 17.7034 8.77594L17.1188 9.36563C17.9767 10.7748 18.2893 12.4493 17.9974 14.0731C17.7056 15.6969 16.8295 17.1578 15.5345 18.18C14.2396 19.2022 12.6152 19.7152 10.968 19.622C9.32081 19.5288 7.76467 18.836 6.59322 17.6742C5.42177 16.5125 4.71603 14.9622 4.60916 13.3158C4.50229 11.6694 5.00168 10.0409 6.01311 8.73743C7.02454 7.43398 8.47805 6.54579 10.0994 6.24045C11.7207 5.93511 13.3977 6.23373 14.814 7.07996L15.3707 6.51833C15.4437 6.44482 15.4997 6.35619 15.5347 6.25869C15.5697 6.1612 15.5828 6.05721 15.5732 5.95406L15.3163 3.15829C15.3137 3.13001 15.3189 3.10253 15.3177 3.07433C13.0586 2.16345 10.5539 2.06255 8.22882 2.78875C5.90376 3.51494 3.9017 5.02348 2.5626 7.05821C1.2235 9.09293 0.629911 11.5284 0.882618 13.9511C1.13533 16.3738 2.21876 18.6343 3.94894 20.3489C5.67912 22.0635 7.9494 23.1264 10.3743 23.3571C12.7992 23.5879 15.2292 22.9722 17.2517 21.6147C19.2742 20.2573 20.7645 18.2416 21.4696 15.9101C22.1747 13.5785 22.0511 11.0748 21.1198 8.82401C21.0725 8.82386 21.0243 8.82184 20.9755 8.81738Z" fill="white" fill-opacity="0.8"/>
</g>
<defs>
<clipPath id="clip0_246_622">
<rect width="24" height="24" fill="white"/>
</clipPath>
</defs>
</svg>
