<svg width="336" height="189" viewBox="0 0 336 189" fill="none" xmlns="http://www.w3.org/2000/svg">
<path d="M36 114.692C26.7678 115.993 28.72 117.044 23 119.63V189H335V65.0749C335 65.0749 326.401 82.0175 319.66 81.3004C309.225 80.1903 313.763 71.7251 303.28 72.3646C295.485 72.8402 294.18 95.2738 283 94.7041C268.877 93.9843 274.424 82.8311 260.38 81.3004C250.517 80.2255 250.811 63.897 240.88 63.664C225.539 63.3041 223.38 49.9541 210.2 48.8495C179.095 46.2424 207.58 4.32663 176.4 6.05181C145.973 7.73529 179.938 75.234 149.62 72.3646C141.984 71.642 138.765 65.3009 131.16 66.2507C121.768 67.4237 122.543 78.7813 113.48 81.3004C101.633 84.5934 95.433 69.991 83.32 72.3646C71.7164 74.6384 72.3128 90.4417 60.44 90.4713C44.4511 90.5113 51.7984 112.466 36 114.692Z" fill="url(#paint0_linear_204_1093)"/>
<path d="M22 121.5C27.72 118.64 22.2678 118.938 31.5 117.5C47.2984 115.038 44.4511 93.2727 60.44 93.2285C72.3128 93.1957 71.7164 75.7226 83.32 73.2085C95.433 70.5841 101.633 86.7294 113.48 83.0885C122.543 80.3032 121.768 67.7455 131.16 66.4485C138.765 65.3984 141.984 72.4095 149.62 73.2085C179.938 76.381 146.073 7.36136 176.5 5.49998C207.68 3.59251 179.095 44.326 210.2 47.2086C223.38 48.43 225.539 63.1906 240.88 63.5886C250.811 63.8462 250.517 81.9 260.38 83.0885C274.424 84.781 268.877 97.1127 283 97.9085C294.18 98.5385 295.485 73.7343 303.28 73.2085C313.763 72.5014 309.225 81.8611 319.66 83.0885C326.401 83.8814 335 65.1485 335 65.1485" stroke="url(#paint1_linear_204_1093)" stroke-width="3" stroke-linecap="round"/>
<path opacity="0.5" d="M195.966 0.324463H242.743V160.236H195.966V0.324463Z" fill="url(#paint2_linear_204_1093)"/>
<g filter="url(#filter0_d_204_1093)">
<circle cx="219.4" cy="50.4" r="10.4" fill="white"/>
<circle cx="219.4" cy="50.4" r="8.4" stroke="url(#paint3_linear_204_1093)" stroke-width="4"/>
</g>
<path opacity="0.5" d="M46.5018 157.628H45.4818V151.724C45.4818 151.508 45.4818 151.32 45.4818 151.16C45.4898 150.992 45.4978 150.832 45.5058 150.68C45.5138 150.52 45.5218 150.36 45.5298 150.2C45.4258 150.304 45.3258 150.4 45.2298 150.488C45.1338 150.576 45.0098 150.688 44.8578 150.824L44.0058 151.568L43.4538 150.896L45.6258 149.06H46.5018V157.628Z" fill="white"/>
<path opacity="0.5" d="M1.59487 21.352C1.59487 20.8 1.62687 20.276 1.69087 19.78C1.76287 19.284 1.87487 18.828 2.02687 18.412C2.18687 17.988 2.39887 17.62 2.66287 17.308C2.93487 16.988 3.27087 16.744 3.67087 16.576C4.07087 16.4 4.55087 16.312 5.11087 16.312C5.27887 16.312 5.45087 16.32 5.62687 16.336C5.81087 16.352 5.96687 16.38 6.09487 16.42V17.32C5.95887 17.28 5.80687 17.248 5.63887 17.224C5.47887 17.2 5.31087 17.188 5.13487 17.188C4.67887 17.188 4.29087 17.272 3.97087 17.44C3.65887 17.608 3.40687 17.844 3.21487 18.148C3.02287 18.452 2.87887 18.812 2.78287 19.228C2.69487 19.644 2.63887 20.104 2.61487 20.608H2.67487C2.78687 20.408 2.92287 20.236 3.08287 20.092C3.25087 19.94 3.44687 19.824 3.67087 19.744C3.90287 19.656 4.16287 19.612 4.45087 19.612C4.91487 19.612 5.31087 19.72 5.63887 19.936C5.97487 20.152 6.23087 20.46 6.40687 20.86C6.59087 21.26 6.68287 21.724 6.68287 22.252C6.68287 22.828 6.58287 23.332 6.38287 23.764C6.19087 24.188 5.91087 24.52 5.54287 24.76C5.18287 25 4.74287 25.12 4.22287 25.12C3.83887 25.12 3.48687 25.044 3.16687 24.892C2.84687 24.732 2.56687 24.496 2.32687 24.184C2.09487 23.864 1.91487 23.468 1.78687 22.996C1.65887 22.524 1.59487 21.976 1.59487 21.352ZM4.21087 24.232C4.64287 24.232 4.99087 24.072 5.25487 23.752C5.51887 23.424 5.65087 22.928 5.65087 22.264C5.65087 21.696 5.53087 21.256 5.29087 20.944C5.05887 20.624 4.70687 20.464 4.23487 20.464C3.90687 20.464 3.62287 20.54 3.38287 20.692C3.15087 20.844 2.97087 21.036 2.84287 21.268C2.71487 21.5 2.65087 21.744 2.65087 22C2.65087 22.256 2.67887 22.516 2.73487 22.78C2.79887 23.036 2.89487 23.276 3.02287 23.5C3.15887 23.716 3.32287 23.892 3.51487 24.028C3.71487 24.164 3.94687 24.232 4.21087 24.232ZM12.8932 20.704C12.8932 21.4 12.8452 22.02 12.7492 22.564C12.6532 23.108 12.5012 23.572 12.2932 23.956C12.0932 24.332 11.8292 24.62 11.5012 24.82C11.1732 25.02 10.7812 25.12 10.3252 25.12C9.76525 25.12 9.29325 24.964 8.90925 24.652C8.53325 24.332 8.24925 23.848 8.05725 23.2C7.86525 22.544 7.76925 21.712 7.76925 20.704C7.76925 19.752 7.85725 18.952 8.03325 18.304C8.20925 17.648 8.48525 17.152 8.86125 16.816C9.23725 16.472 9.72525 16.3 10.3252 16.3C10.9012 16.3 11.3772 16.472 11.7532 16.816C12.1372 17.152 12.4212 17.648 12.6052 18.304C12.7972 18.96 12.8932 19.76 12.8932 20.704ZM8.81325 20.704C8.81325 21.488 8.86125 22.14 8.95725 22.66C9.06125 23.18 9.22125 23.572 9.43725 23.836C9.66125 24.092 9.95725 24.22 10.3252 24.22C10.6932 24.22 10.9852 24.092 11.2012 23.836C11.4252 23.58 11.5892 23.192 11.6932 22.672C11.7972 22.144 11.8492 21.488 11.8492 20.704C11.8492 19.928 11.7972 19.284 11.6932 18.772C11.5892 18.252 11.4252 17.864 11.2012 17.608C10.9852 17.344 10.6932 17.212 10.3252 17.212C9.95725 17.212 9.66125 17.34 9.43725 17.596C9.22125 17.852 9.06125 18.24 8.95725 18.76C8.86125 19.272 8.81325 19.92 8.81325 20.704ZM19.1276 20.704C19.1276 21.4 19.0796 22.02 18.9836 22.564C18.8876 23.108 18.7356 23.572 18.5276 23.956C18.3276 24.332 18.0636 24.62 17.7356 24.82C17.4076 25.02 17.0156 25.12 16.5596 25.12C15.9996 25.12 15.5276 24.964 15.1436 24.652C14.7676 24.332 14.4836 23.848 14.2916 23.2C14.0996 22.544 14.0036 21.712 14.0036 20.704C14.0036 19.752 14.0916 18.952 14.2676 18.304C14.4436 17.648 14.7196 17.152 15.0956 16.816C15.4716 16.472 15.9596 16.3 16.5596 16.3C17.1356 16.3 17.6116 16.472 17.9876 16.816C18.3716 17.152 18.6556 17.648 18.8396 18.304C19.0316 18.96 19.1276 19.76 19.1276 20.704ZM15.0476 20.704C15.0476 21.488 15.0956 22.14 15.1916 22.66C15.2956 23.18 15.4556 23.572 15.6716 23.836C15.8956 24.092 16.1916 24.22 16.5596 24.22C16.9276 24.22 17.2196 24.092 17.4356 23.836C17.6596 23.58 17.8236 23.192 17.9276 22.672C18.0316 22.144 18.0836 21.488 18.0836 20.704C18.0836 19.928 18.0316 19.284 17.9276 18.772C17.8236 18.252 17.6596 17.864 17.4356 17.608C17.2196 17.344 16.9276 17.212 16.5596 17.212C16.1916 17.212 15.8956 17.34 15.6716 17.596C15.4556 17.852 15.2956 18.24 15.1916 18.76C15.0956 19.272 15.0476 19.92 15.0476 20.704Z" fill="white"/>
<path opacity="0.5" d="M4.00687 47.1494C4.53487 47.1494 4.99087 47.2534 5.37487 47.4614C5.76687 47.6614 6.06687 47.9494 6.27487 48.3254C6.48287 48.6934 6.58687 49.1374 6.58687 49.6574C6.58687 50.2414 6.47087 50.7494 6.23887 51.1814C6.01487 51.6134 5.68287 51.9454 5.24287 52.1774C4.81087 52.4094 4.28287 52.5254 3.65887 52.5254C3.25887 52.5254 2.88687 52.4894 2.54287 52.4174C2.20687 52.3454 1.91887 52.2374 1.67887 52.0934V51.0974C1.94287 51.2654 2.25087 51.3974 2.60287 51.4934C2.96287 51.5894 3.31087 51.6374 3.64687 51.6374C4.03887 51.6374 4.37487 51.5614 4.65487 51.4094C4.93487 51.2574 5.15087 51.0414 5.30287 50.7614C5.45487 50.4734 5.53087 50.1334 5.53087 49.7414C5.53087 49.1814 5.37487 48.7574 5.06287 48.4694C4.75887 48.1734 4.29087 48.0254 3.65887 48.0254C3.44287 48.0254 3.21087 48.0454 2.96287 48.0854C2.71487 48.1174 2.49887 48.1574 2.31487 48.2054L1.83487 47.8454L2.13487 43.8374H6.03487V44.7854H3.01087L2.81887 47.2694C2.96287 47.2374 3.13887 47.2094 3.34687 47.1854C3.55487 47.1614 3.77487 47.1494 4.00687 47.1494ZM12.8932 48.1094C12.8932 48.8054 12.8452 49.4254 12.7492 49.9694C12.6532 50.5134 12.5012 50.9774 12.2932 51.3614C12.0932 51.7374 11.8292 52.0254 11.5012 52.2254C11.1732 52.4254 10.7812 52.5254 10.3252 52.5254C9.76525 52.5254 9.29325 52.3694 8.90925 52.0574C8.53325 51.7374 8.24925 51.2534 8.05725 50.6054C7.86525 49.9494 7.76925 49.1174 7.76925 48.1094C7.76925 47.1574 7.85725 46.3574 8.03325 45.7094C8.20925 45.0534 8.48525 44.5574 8.86125 44.2214C9.23725 43.8774 9.72525 43.7054 10.3252 43.7054C10.9012 43.7054 11.3772 43.8774 11.7532 44.2214C12.1372 44.5574 12.4212 45.0534 12.6052 45.7094C12.7972 46.3654 12.8932 47.1654 12.8932 48.1094ZM8.81325 48.1094C8.81325 48.8934 8.86125 49.5454 8.95725 50.0654C9.06125 50.5854 9.22125 50.9774 9.43725 51.2414C9.66125 51.4974 9.95725 51.6254 10.3252 51.6254C10.6932 51.6254 10.9852 51.4974 11.2012 51.2414C11.4252 50.9854 11.5892 50.5974 11.6932 50.0774C11.7972 49.5494 11.8492 48.8934 11.8492 48.1094C11.8492 47.3334 11.7972 46.6894 11.6932 46.1774C11.5892 45.6574 11.4252 45.2694 11.2012 45.0134C10.9852 44.7494 10.6932 44.6174 10.3252 44.6174C9.95725 44.6174 9.66125 44.7454 9.43725 45.0014C9.22125 45.2574 9.06125 45.6454 8.95725 46.1654C8.86125 46.6774 8.81325 47.3254 8.81325 48.1094ZM19.1276 48.1094C19.1276 48.8054 19.0796 49.4254 18.9836 49.9694C18.8876 50.5134 18.7356 50.9774 18.5276 51.3614C18.3276 51.7374 18.0636 52.0254 17.7356 52.2254C17.4076 52.4254 17.0156 52.5254 16.5596 52.5254C15.9996 52.5254 15.5276 52.3694 15.1436 52.0574C14.7676 51.7374 14.4836 51.2534 14.2916 50.6054C14.0996 49.9494 14.0036 49.1174 14.0036 48.1094C14.0036 47.1574 14.0916 46.3574 14.2676 45.7094C14.4436 45.0534 14.7196 44.5574 15.0956 44.2214C15.4716 43.8774 15.9596 43.7054 16.5596 43.7054C17.1356 43.7054 17.6116 43.8774 17.9876 44.2214C18.3716 44.5574 18.6556 45.0534 18.8396 45.7094C19.0316 46.3654 19.1276 47.1654 19.1276 48.1094ZM15.0476 48.1094C15.0476 48.8934 15.0956 49.5454 15.1916 50.0654C15.2956 50.5854 15.4556 50.9774 15.6716 51.2414C15.8956 51.4974 16.1916 51.6254 16.5596 51.6254C16.9276 51.6254 17.2196 51.4974 17.4356 51.2414C17.6596 50.9854 17.8236 50.5974 17.9276 50.0774C18.0316 49.5494 18.0836 48.8934 18.0836 48.1094C18.0836 47.3334 18.0316 46.6894 17.9276 46.1774C17.8236 45.6574 17.6596 45.2694 17.4356 45.0134C17.2196 44.7494 16.9276 44.6174 16.5596 44.6174C16.1916 44.6174 15.8956 44.7454 15.6716 45.0014C15.4556 45.2574 15.2956 45.6454 15.1916 46.1654C15.0956 46.6774 15.0476 47.3254 15.0476 48.1094Z" fill="white"/>
<path opacity="0.5" d="M7.00687 77.9027H5.89087V79.8107H4.88287V77.9027H1.22287V77.0267L4.81087 71.1827H5.89087V76.9787H7.00687V77.9027ZM4.88287 74.0747C4.88287 73.9067 4.88287 73.7467 4.88287 73.5947C4.89087 73.4427 4.89887 73.2947 4.90687 73.1507C4.91487 73.0067 4.91887 72.8707 4.91887 72.7427C4.92687 72.6147 4.93087 72.4947 4.93087 72.3827H4.89487C4.83087 72.5427 4.75487 72.7107 4.66687 72.8867C4.57887 73.0627 4.49487 73.2187 4.41487 73.3547L2.19487 76.9787H4.88287V74.0747ZM12.8932 75.5147C12.8932 76.2107 12.8452 76.8307 12.7492 77.3747C12.6532 77.9187 12.5012 78.3827 12.2932 78.7667C12.0932 79.1427 11.8292 79.4307 11.5012 79.6307C11.1732 79.8307 10.7812 79.9307 10.3252 79.9307C9.76525 79.9307 9.29325 79.7747 8.90925 79.4627C8.53325 79.1427 8.24925 78.6587 8.05725 78.0107C7.86525 77.3547 7.76925 76.5227 7.76925 75.5147C7.76925 74.5627 7.85725 73.7627 8.03325 73.1147C8.20925 72.4587 8.48525 71.9627 8.86125 71.6267C9.23725 71.2827 9.72525 71.1107 10.3252 71.1107C10.9012 71.1107 11.3772 71.2827 11.7532 71.6267C12.1372 71.9627 12.4212 72.4587 12.6052 73.1147C12.7972 73.7707 12.8932 74.5707 12.8932 75.5147ZM8.81325 75.5147C8.81325 76.2987 8.86125 76.9507 8.95725 77.4707C9.06125 77.9907 9.22125 78.3827 9.43725 78.6467C9.66125 78.9027 9.95725 79.0307 10.3252 79.0307C10.6932 79.0307 10.9852 78.9027 11.2012 78.6467C11.4252 78.3907 11.5892 78.0027 11.6932 77.4827C11.7972 76.9547 11.8492 76.2987 11.8492 75.5147C11.8492 74.7387 11.7972 74.0947 11.6932 73.5827C11.5892 73.0627 11.4252 72.6747 11.2012 72.4187C10.9852 72.1547 10.6932 72.0227 10.3252 72.0227C9.95725 72.0227 9.66125 72.1507 9.43725 72.4067C9.22125 72.6627 9.06125 73.0507 8.95725 73.5707C8.86125 74.0827 8.81325 74.7307 8.81325 75.5147ZM19.1276 75.5147C19.1276 76.2107 19.0796 76.8307 18.9836 77.3747C18.8876 77.9187 18.7356 78.3827 18.5276 78.7667C18.3276 79.1427 18.0636 79.4307 17.7356 79.6307C17.4076 79.8307 17.0156 79.9307 16.5596 79.9307C15.9996 79.9307 15.5276 79.7747 15.1436 79.4627C14.7676 79.1427 14.4836 78.6587 14.2916 78.0107C14.0996 77.3547 14.0036 76.5227 14.0036 75.5147C14.0036 74.5627 14.0916 73.7627 14.2676 73.1147C14.4436 72.4587 14.7196 71.9627 15.0956 71.6267C15.4716 71.2827 15.9596 71.1107 16.5596 71.1107C17.1356 71.1107 17.6116 71.2827 17.9876 71.6267C18.3716 71.9627 18.6556 72.4587 18.8396 73.1147C19.0316 73.7707 19.1276 74.5707 19.1276 75.5147ZM15.0476 75.5147C15.0476 76.2987 15.0956 76.9507 15.1916 77.4707C15.2956 77.9907 15.4556 78.3827 15.6716 78.6467C15.8956 78.9027 16.1916 79.0307 16.5596 79.0307C16.9276 79.0307 17.2196 78.9027 17.4356 78.6467C17.6596 78.3907 17.8236 78.0027 17.9276 77.4827C18.0316 76.9547 18.0836 76.2987 18.0836 75.5147C18.0836 74.7387 18.0316 74.0947 17.9276 73.5827C17.8236 73.0627 17.6596 72.6747 17.4356 72.4187C17.2196 72.1547 16.9276 72.0227 16.5596 72.0227C16.1916 72.0227 15.8956 72.1507 15.6716 72.4067C15.4556 72.6627 15.2956 73.0507 15.1916 73.5707C15.0956 74.0827 15.0476 74.7307 15.0476 75.5147Z" fill="white"/>
<path opacity="0.5" d="M6.35887 100.64C6.35887 101.008 6.29087 101.332 6.15487 101.612C6.02687 101.884 5.83887 102.116 5.59087 102.308C5.34287 102.492 5.05087 102.624 4.71487 102.704V102.752C5.33087 102.84 5.79487 103.064 6.10687 103.424C6.41887 103.784 6.57487 104.248 6.57487 104.816C6.57487 105.304 6.46687 105.74 6.25087 106.124C6.03487 106.508 5.70687 106.808 5.26687 107.024C4.83487 107.232 4.28687 107.336 3.62287 107.336C3.21487 107.336 2.83487 107.304 2.48287 107.24C2.13887 107.176 1.80687 107.068 1.48687 106.916V105.92C1.81487 106.088 2.16287 106.22 2.53087 106.316C2.89887 106.404 3.25487 106.448 3.59887 106.448C4.26287 106.448 4.74287 106.3 5.03887 106.004C5.34287 105.7 5.49487 105.292 5.49487 104.78C5.49487 104.428 5.41087 104.14 5.24287 103.916C5.07487 103.684 4.83087 103.516 4.51087 103.412C4.19087 103.3 3.79887 103.244 3.33487 103.244H2.65087V102.344H3.35887C3.77487 102.344 4.12687 102.276 4.41487 102.14C4.70287 102.004 4.92287 101.816 5.07487 101.576C5.22687 101.328 5.30287 101.044 5.30287 100.724C5.30287 100.308 5.17887 99.9881 4.93087 99.7641C4.68287 99.5321 4.33887 99.4161 3.89887 99.4161C3.63487 99.4161 3.39487 99.4441 3.17887 99.5001C2.97087 99.5481 2.77087 99.6241 2.57887 99.7281C2.39487 99.8321 2.20687 99.9521 2.01487 100.088L1.51087 99.3801C1.71887 99.2121 1.94287 99.0641 2.18287 98.9361C2.43087 98.8001 2.69887 98.7001 2.98687 98.6361C3.28287 98.5641 3.59887 98.5281 3.93487 98.5281C4.73487 98.5281 5.33887 98.7241 5.74687 99.1161C6.15487 99.5081 6.35887 100.016 6.35887 100.64ZM12.8932 102.92C12.8932 103.616 12.8452 104.236 12.7492 104.78C12.6532 105.324 12.5012 105.788 12.2932 106.172C12.0932 106.548 11.8292 106.836 11.5012 107.036C11.1732 107.236 10.7812 107.336 10.3252 107.336C9.76525 107.336 9.29325 107.18 8.90925 106.868C8.53325 106.548 8.24925 106.064 8.05725 105.416C7.86525 104.76 7.76925 103.928 7.76925 102.92C7.76925 101.968 7.85725 101.168 8.03325 100.52C8.20925 99.8641 8.48525 99.3681 8.86125 99.0321C9.23725 98.6881 9.72525 98.5161 10.3252 98.5161C10.9012 98.5161 11.3772 98.6881 11.7532 99.0321C12.1372 99.3681 12.4212 99.8641 12.6052 100.52C12.7972 101.176 12.8932 101.976 12.8932 102.92ZM8.81325 102.92C8.81325 103.704 8.86125 104.356 8.95725 104.876C9.06125 105.396 9.22125 105.788 9.43725 106.052C9.66125 106.308 9.95725 106.436 10.3252 106.436C10.6932 106.436 10.9852 106.308 11.2012 106.052C11.4252 105.796 11.5892 105.408 11.6932 104.888C11.7972 104.36 11.8492 103.704 11.8492 102.92C11.8492 102.144 11.7972 101.5 11.6932 100.988C11.5892 100.468 11.4252 100.08 11.2012 99.8241C10.9852 99.5601 10.6932 99.4281 10.3252 99.4281C9.95725 99.4281 9.66125 99.5561 9.43725 99.8121C9.22125 100.068 9.06125 100.456 8.95725 100.976C8.86125 101.488 8.81325 102.136 8.81325 102.92ZM19.1276 102.92C19.1276 103.616 19.0796 104.236 18.9836 104.78C18.8876 105.324 18.7356 105.788 18.5276 106.172C18.3276 106.548 18.0636 106.836 17.7356 107.036C17.4076 107.236 17.0156 107.336 16.5596 107.336C15.9996 107.336 15.5276 107.18 15.1436 106.868C14.7676 106.548 14.4836 106.064 14.2916 105.416C14.0996 104.76 14.0036 103.928 14.0036 102.92C14.0036 101.968 14.0916 101.168 14.2676 100.52C14.4436 99.8641 14.7196 99.3681 15.0956 99.0321C15.4716 98.6881 15.9596 98.5161 16.5596 98.5161C17.1356 98.5161 17.6116 98.6881 17.9876 99.0321C18.3716 99.3681 18.6556 99.8641 18.8396 100.52C19.0316 101.176 19.1276 101.976 19.1276 102.92ZM15.0476 102.92C15.0476 103.704 15.0956 104.356 15.1916 104.876C15.2956 105.396 15.4556 105.788 15.6716 106.052C15.8956 106.308 16.1916 106.436 16.5596 106.436C16.9276 106.436 17.2196 106.308 17.4356 106.052C17.6596 105.796 17.8236 105.408 17.9276 104.888C18.0316 104.36 18.0836 103.704 18.0836 102.92C18.0836 102.144 18.0316 101.5 17.9276 100.988C17.8236 100.468 17.6596 100.08 17.4356 99.8241C17.2196 99.5601 16.9276 99.4281 16.5596 99.4281C16.1916 99.4281 15.8956 99.5561 15.6716 99.8121C15.4556 100.068 15.2956 100.456 15.1916 100.976C15.0956 101.488 15.0476 102.136 15.0476 102.92Z" fill="white"/>
<path opacity="0.5" d="M6.61087 134.621H1.49887V133.793L3.53887 131.441C3.93887 130.993 4.26687 130.597 4.52287 130.253C4.77887 129.909 4.96687 129.581 5.08687 129.269C5.21487 128.949 5.27887 128.597 5.27887 128.213C5.27887 127.773 5.15487 127.433 4.90687 127.193C4.65887 126.953 4.32687 126.833 3.91087 126.833C3.55887 126.833 3.24287 126.897 2.96287 127.025C2.69087 127.145 2.41087 127.325 2.12287 127.565L1.57087 126.869C1.79487 126.677 2.02687 126.513 2.26687 126.377C2.50687 126.233 2.76687 126.125 3.04687 126.053C3.32687 125.973 3.62287 125.933 3.93487 125.933C4.43887 125.933 4.86687 126.025 5.21887 126.209C5.57087 126.393 5.84287 126.653 6.03487 126.989C6.23487 127.317 6.33487 127.709 6.33487 128.165C6.33487 128.501 6.29087 128.821 6.20287 129.125C6.11487 129.421 5.98687 129.713 5.81887 130.001C5.65887 130.281 5.45887 130.569 5.21887 130.865C4.97887 131.161 4.71087 131.469 4.41487 131.789L2.77087 133.637V133.685H6.61087V134.621ZM12.8932 130.325C12.8932 131.021 12.8452 131.641 12.7492 132.185C12.6532 132.729 12.5012 133.193 12.2932 133.577C12.0932 133.953 11.8292 134.241 11.5012 134.441C11.1732 134.641 10.7812 134.741 10.3252 134.741C9.76525 134.741 9.29325 134.585 8.90925 134.273C8.53325 133.953 8.24925 133.469 8.05725 132.821C7.86525 132.165 7.76925 131.333 7.76925 130.325C7.76925 129.373 7.85725 128.573 8.03325 127.925C8.20925 127.269 8.48525 126.773 8.86125 126.437C9.23725 126.093 9.72525 125.921 10.3252 125.921C10.9012 125.921 11.3772 126.093 11.7532 126.437C12.1372 126.773 12.4212 127.269 12.6052 127.925C12.7972 128.581 12.8932 129.381 12.8932 130.325ZM8.81325 130.325C8.81325 131.109 8.86125 131.761 8.95725 132.281C9.06125 132.801 9.22125 133.193 9.43725 133.457C9.66125 133.713 9.95725 133.841 10.3252 133.841C10.6932 133.841 10.9852 133.713 11.2012 133.457C11.4252 133.201 11.5892 132.813 11.6932 132.293C11.7972 131.765 11.8492 131.109 11.8492 130.325C11.8492 129.549 11.7972 128.905 11.6932 128.393C11.5892 127.873 11.4252 127.485 11.2012 127.229C10.9852 126.965 10.6932 126.833 10.3252 126.833C9.95725 126.833 9.66125 126.961 9.43725 127.217C9.22125 127.473 9.06125 127.861 8.95725 128.381C8.86125 128.893 8.81325 129.541 8.81325 130.325ZM19.1276 130.325C19.1276 131.021 19.0796 131.641 18.9836 132.185C18.8876 132.729 18.7356 133.193 18.5276 133.577C18.3276 133.953 18.0636 134.241 17.7356 134.441C17.4076 134.641 17.0156 134.741 16.5596 134.741C15.9996 134.741 15.5276 134.585 15.1436 134.273C14.7676 133.953 14.4836 133.469 14.2916 132.821C14.0996 132.165 14.0036 131.333 14.0036 130.325C14.0036 129.373 14.0916 128.573 14.2676 127.925C14.4436 127.269 14.7196 126.773 15.0956 126.437C15.4716 126.093 15.9596 125.921 16.5596 125.921C17.1356 125.921 17.6116 126.093 17.9876 126.437C18.3716 126.773 18.6556 127.269 18.8396 127.925C19.0316 128.581 19.1276 129.381 19.1276 130.325ZM15.0476 130.325C15.0476 131.109 15.0956 131.761 15.1916 132.281C15.2956 132.801 15.4556 133.193 15.6716 133.457C15.8956 133.713 16.1916 133.841 16.5596 133.841C16.9276 133.841 17.2196 133.713 17.4356 133.457C17.6596 133.201 17.8236 132.813 17.9276 132.293C18.0316 131.765 18.0836 131.109 18.0836 130.325C18.0836 129.549 18.0316 128.905 17.9276 128.393C17.8236 127.873 17.6596 127.485 17.4356 127.229C17.2196 126.965 16.9276 126.833 16.5596 126.833C16.1916 126.833 15.8956 126.961 15.6716 127.217C15.4556 127.473 15.2956 127.861 15.1916 128.381C15.0956 128.893 15.0476 129.541 15.0476 130.325Z" fill="white"/>
<path opacity="0.5" d="M4.97887 162.027H3.95887V156.123C3.95887 155.907 3.95887 155.719 3.95887 155.559C3.96687 155.391 3.97487 155.231 3.98287 155.079C3.99087 154.919 3.99887 154.759 4.00687 154.599C3.90287 154.703 3.80287 154.799 3.70687 154.887C3.61087 154.975 3.48687 155.087 3.33487 155.223L2.48287 155.967L1.93087 155.295L4.10287 153.459H4.97887V162.027ZM12.8932 157.731C12.8932 158.427 12.8452 159.047 12.7492 159.591C12.6532 160.135 12.5012 160.599 12.2932 160.983C12.0932 161.359 11.8292 161.647 11.5012 161.847C11.1732 162.047 10.7812 162.147 10.3252 162.147C9.76525 162.147 9.29325 161.991 8.90925 161.679C8.53325 161.359 8.24925 160.875 8.05725 160.227C7.86525 159.571 7.76925 158.739 7.76925 157.731C7.76925 156.779 7.85725 155.979 8.03325 155.331C8.20925 154.675 8.48525 154.179 8.86125 153.843C9.23725 153.499 9.72525 153.327 10.3252 153.327C10.9012 153.327 11.3772 153.499 11.7532 153.843C12.1372 154.179 12.4212 154.675 12.6052 155.331C12.7972 155.987 12.8932 156.787 12.8932 157.731ZM8.81325 157.731C8.81325 158.515 8.86125 159.167 8.95725 159.687C9.06125 160.207 9.22125 160.599 9.43725 160.863C9.66125 161.119 9.95725 161.247 10.3252 161.247C10.6932 161.247 10.9852 161.119 11.2012 160.863C11.4252 160.607 11.5892 160.219 11.6932 159.699C11.7972 159.171 11.8492 158.515 11.8492 157.731C11.8492 156.955 11.7972 156.311 11.6932 155.799C11.5892 155.279 11.4252 154.891 11.2012 154.635C10.9852 154.371 10.6932 154.239 10.3252 154.239C9.95725 154.239 9.66125 154.367 9.43725 154.623C9.22125 154.879 9.06125 155.267 8.95725 155.787C8.86125 156.299 8.81325 156.947 8.81325 157.731ZM19.1276 157.731C19.1276 158.427 19.0796 159.047 18.9836 159.591C18.8876 160.135 18.7356 160.599 18.5276 160.983C18.3276 161.359 18.0636 161.647 17.7356 161.847C17.4076 162.047 17.0156 162.147 16.5596 162.147C15.9996 162.147 15.5276 161.991 15.1436 161.679C14.7676 161.359 14.4836 160.875 14.2916 160.227C14.0996 159.571 14.0036 158.739 14.0036 157.731C14.0036 156.779 14.0916 155.979 14.2676 155.331C14.4436 154.675 14.7196 154.179 15.0956 153.843C15.4716 153.499 15.9596 153.327 16.5596 153.327C17.1356 153.327 17.6116 153.499 17.9876 153.843C18.3716 154.179 18.6556 154.675 18.8396 155.331C19.0316 155.987 19.1276 156.787 19.1276 157.731ZM15.0476 157.731C15.0476 158.515 15.0956 159.167 15.1916 159.687C15.2956 160.207 15.4556 160.599 15.6716 160.863C15.8956 161.119 16.1916 161.247 16.5596 161.247C16.9276 161.247 17.2196 161.119 17.4356 160.863C17.6596 160.607 17.8236 160.219 17.9276 159.699C18.0316 159.171 18.0836 158.515 18.0836 157.731C18.0836 156.955 18.0316 156.311 17.9276 155.799C17.8236 155.279 17.6596 154.891 17.4356 154.635C17.2196 154.371 16.9276 154.239 16.5596 154.239C16.1916 154.239 15.8956 154.367 15.6716 154.623C15.4556 154.879 15.2956 155.267 15.1916 155.787C15.0956 156.299 15.0476 156.947 15.0476 157.731Z" fill="white"/>
<path d="M218.737 152.372C219.265 152.372 219.721 152.476 220.105 152.684C220.497 152.884 220.797 153.172 221.005 153.548C221.213 153.916 221.317 154.36 221.317 154.88C221.317 155.464 221.201 155.972 220.969 156.404C220.745 156.836 220.413 157.168 219.973 157.4C219.541 157.632 219.013 157.748 218.389 157.748C217.989 157.748 217.617 157.712 217.273 157.64C216.937 157.568 216.649 157.46 216.409 157.316V156.32C216.673 156.488 216.981 156.62 217.333 156.716C217.693 156.812 218.041 156.86 218.377 156.86C218.769 156.86 219.105 156.784 219.385 156.632C219.665 156.48 219.881 156.264 220.033 155.984C220.185 155.696 220.261 155.356 220.261 154.964C220.261 154.404 220.105 153.98 219.793 153.692C219.489 153.396 219.021 153.248 218.389 153.248C218.173 153.248 217.941 153.268 217.693 153.308C217.445 153.34 217.229 153.38 217.045 153.428L216.565 153.068L216.865 149.06H220.765V150.008H217.741L217.549 152.492C217.693 152.46 217.869 152.432 218.077 152.408C218.285 152.384 218.505 152.372 218.737 152.372Z" fill="white"/>
<path opacity="0.5" d="M90.2539 157.628H85.1419V156.8L87.1819 154.448C87.5819 154 87.9099 153.604 88.1659 153.26C88.4219 152.916 88.6099 152.588 88.7299 152.276C88.8579 151.956 88.9219 151.604 88.9219 151.22C88.9219 150.78 88.7979 150.44 88.5499 150.2C88.3019 149.96 87.9699 149.84 87.5539 149.84C87.2019 149.84 86.8859 149.904 86.6059 150.032C86.3339 150.152 86.0539 150.332 85.7659 150.572L85.2139 149.876C85.4379 149.684 85.6699 149.52 85.9099 149.384C86.1499 149.24 86.4099 149.132 86.6899 149.06C86.9699 148.98 87.2659 148.94 87.5779 148.94C88.0819 148.94 88.5099 149.032 88.8619 149.216C89.2139 149.4 89.4859 149.66 89.6779 149.996C89.8779 150.324 89.9779 150.716 89.9779 151.172C89.9779 151.508 89.9339 151.828 89.8459 152.132C89.7579 152.428 89.6299 152.72 89.4619 153.008C89.3019 153.288 89.1019 153.576 88.8619 153.872C88.6219 154.168 88.3539 154.476 88.0579 154.796L86.4139 156.644V156.692H90.2539V157.628Z" fill="white"/>
<path opacity="0.5" d="M134.225 151.052C134.225 151.42 134.157 151.744 134.021 152.024C133.893 152.296 133.705 152.528 133.457 152.72C133.209 152.904 132.917 153.036 132.581 153.116V153.164C133.197 153.252 133.661 153.476 133.973 153.836C134.285 154.196 134.441 154.66 134.441 155.228C134.441 155.716 134.333 156.152 134.117 156.536C133.901 156.92 133.573 157.22 133.133 157.436C132.701 157.644 132.153 157.748 131.489 157.748C131.081 157.748 130.701 157.716 130.349 157.652C130.005 157.588 129.673 157.48 129.353 157.328V156.332C129.681 156.5 130.029 156.632 130.397 156.728C130.765 156.816 131.121 156.86 131.465 156.86C132.129 156.86 132.609 156.712 132.905 156.416C133.209 156.112 133.361 155.704 133.361 155.192C133.361 154.84 133.277 154.552 133.109 154.328C132.941 154.096 132.697 153.928 132.377 153.824C132.057 153.712 131.665 153.656 131.201 153.656H130.517V152.756H131.225C131.641 152.756 131.993 152.688 132.281 152.552C132.569 152.416 132.789 152.228 132.941 151.988C133.093 151.74 133.169 151.456 133.169 151.136C133.169 150.72 133.045 150.4 132.797 150.176C132.549 149.944 132.205 149.828 131.765 149.828C131.501 149.828 131.261 149.856 131.045 149.912C130.837 149.96 130.637 150.036 130.445 150.14C130.261 150.244 130.073 150.364 129.881 150.5L129.377 149.792C129.585 149.624 129.809 149.476 130.049 149.348C130.297 149.212 130.565 149.112 130.853 149.048C131.149 148.976 131.465 148.94 131.801 148.94C132.601 148.94 133.205 149.136 133.613 149.528C134.021 149.92 134.225 150.428 134.225 151.052Z" fill="white"/>
<path d="M223.214 128.403C223.214 128.151 223.108 127.952 222.974 127.677L219.393 120.282C219.141 119.761 218.878 119.568 218.52 119.568C218.163 119.568 217.899 119.761 217.641 120.282L214.067 127.677C213.932 127.958 213.827 128.157 213.827 128.403C213.827 128.878 214.184 129.206 214.759 129.206L222.282 129.2C222.85 129.2 223.214 128.872 223.214 128.403Z" fill="white"/>
<path d="M223.214 93.0433C223.214 92.7914 223.108 92.5922 222.974 92.3168L219.393 84.9222C219.141 84.4008 218.878 84.2074 218.52 84.2074C218.163 84.2074 217.899 84.4008 217.641 84.9222L214.067 92.3168C213.932 92.598 213.827 92.7972 213.827 93.0433C213.827 93.5179 214.184 93.8461 214.759 93.8461L222.282 93.8402C222.85 93.8402 223.214 93.5121 223.214 93.0433Z" fill="white"/>
<path d="M223.214 146.083C223.214 145.832 223.108 145.632 222.974 145.357L219.393 137.962C219.141 137.441 218.878 137.248 218.52 137.248C218.163 137.248 217.899 137.441 217.641 137.962L214.067 145.357C213.932 145.638 213.827 145.837 213.827 146.083C213.827 146.558 214.184 146.886 214.759 146.886L222.282 146.88C222.85 146.88 223.214 146.552 223.214 146.083Z" fill="white"/>
<path d="M223.214 110.724C223.214 110.472 223.108 110.272 222.974 109.997L219.393 102.602C219.141 102.081 218.878 101.888 218.52 101.888C218.163 101.888 217.899 102.081 217.641 102.602L214.067 109.997C213.932 110.278 213.827 110.477 213.827 110.724C213.827 111.198 214.184 111.526 214.759 111.526L222.282 111.52C222.85 111.52 223.214 111.192 223.214 110.724Z" fill="white"/>
<path d="M223.214 75.3634C223.214 75.1115 223.108 74.9122 222.974 74.6368L219.393 67.2423C219.141 66.7208 218.878 66.5275 218.52 66.5275C218.163 66.5275 217.899 66.7208 217.641 67.2423L214.067 74.6368C213.932 74.9181 213.827 75.1173 213.827 75.3634C213.827 75.838 214.184 76.1661 214.759 76.1661L222.282 76.1603C222.85 76.1603 223.214 75.8322 223.214 75.3634Z" fill="white"/>
<path opacity="0.5" d="M259.934 153.98C259.934 153.428 259.966 152.904 260.03 152.408C260.102 151.912 260.214 151.456 260.366 151.04C260.526 150.616 260.738 150.248 261.002 149.936C261.274 149.616 261.61 149.372 262.01 149.204C262.41 149.028 262.89 148.94 263.45 148.94C263.618 148.94 263.79 148.948 263.966 148.964C264.15 148.98 264.306 149.008 264.434 149.048V149.948C264.298 149.908 264.146 149.876 263.978 149.852C263.818 149.828 263.65 149.816 263.474 149.816C263.018 149.816 262.63 149.9 262.31 150.068C261.998 150.236 261.746 150.472 261.554 150.776C261.362 151.08 261.218 151.44 261.122 151.856C261.034 152.272 260.978 152.732 260.954 153.236H261.014C261.126 153.036 261.262 152.864 261.422 152.72C261.59 152.568 261.786 152.452 262.01 152.372C262.242 152.284 262.502 152.24 262.79 152.24C263.254 152.24 263.65 152.348 263.978 152.564C264.314 152.78 264.57 153.088 264.746 153.488C264.93 153.888 265.022 154.352 265.022 154.88C265.022 155.456 264.922 155.96 264.722 156.392C264.53 156.816 264.25 157.148 263.882 157.388C263.522 157.628 263.082 157.748 262.562 157.748C262.178 157.748 261.826 157.672 261.506 157.52C261.186 157.36 260.906 157.124 260.666 156.812C260.434 156.492 260.254 156.096 260.126 155.624C259.998 155.152 259.934 154.604 259.934 153.98ZM262.55 156.86C262.982 156.86 263.33 156.7 263.594 156.38C263.858 156.052 263.99 155.556 263.99 154.892C263.99 154.324 263.87 153.884 263.63 153.572C263.398 153.252 263.046 153.092 262.574 153.092C262.246 153.092 261.962 153.168 261.722 153.32C261.49 153.472 261.31 153.664 261.182 153.896C261.054 154.128 260.99 154.372 260.99 154.628C260.99 154.884 261.018 155.144 261.074 155.408C261.138 155.664 261.234 155.904 261.362 156.128C261.498 156.344 261.662 156.52 261.854 156.656C262.054 156.792 262.286 156.86 262.55 156.86Z" fill="white"/>
<path opacity="0.5" d="M178.01 155.72H176.894V157.628H175.886V155.72H172.226V154.844L175.814 149H176.894V154.796H178.01V155.72ZM175.886 151.892C175.886 151.724 175.886 151.564 175.886 151.412C175.894 151.26 175.902 151.112 175.91 150.968C175.918 150.824 175.922 150.688 175.922 150.56C175.93 150.432 175.934 150.312 175.934 150.2H175.898C175.834 150.36 175.758 150.528 175.67 150.704C175.582 150.88 175.498 151.036 175.418 151.172L173.198 154.796H175.886V151.892Z" fill="white"/>
<path d="M105.929 178H105.049V171.64H103.129V170.86H107.839V171.64H105.929V178ZM110.751 178H108.331V177.49L109.101 177.31V171.55L108.331 171.37V170.86H110.751V171.37L109.981 171.55V177.31L110.751 177.49V178ZM114.925 178L112.805 171.84H112.765C112.778 172.007 112.788 172.19 112.795 172.39C112.808 172.583 112.818 172.783 112.825 172.99C112.831 173.19 112.835 173.387 112.835 173.58V178H112.015V170.86H113.295L115.295 176.7H115.335L117.365 170.86H118.635V178H117.775V173.55C117.775 173.363 117.775 173.173 117.775 172.98C117.781 172.78 117.791 172.583 117.805 172.39C117.818 172.197 117.828 172.017 117.835 171.85H117.795L115.665 178H114.925ZM123.964 178H120.394V170.86H123.964V171.64H121.274V173.89H123.804V174.66H121.274V177.22H123.964V178ZM129.648 178H127.228V177.49L127.998 177.31V171.55L127.228 171.37V170.86H129.648V171.37L128.878 171.55V177.31L129.648 177.49V178ZM136.051 178H135.011L131.701 172.11H131.661C131.668 172.237 131.675 172.37 131.681 172.51C131.695 172.65 131.701 172.797 131.701 172.95C131.708 173.097 131.715 173.25 131.721 173.41C131.728 173.563 131.731 173.717 131.731 173.87V178H130.911V170.86H131.941L135.251 176.7H135.291C135.285 176.6 135.278 176.48 135.271 176.34C135.265 176.2 135.258 176.053 135.251 175.9C135.245 175.74 135.238 175.58 135.231 175.42C135.231 175.26 135.231 175.113 135.231 174.98V170.86H136.051V178ZM139.836 178H138.956V171.64H137.036V170.86H141.746V171.64H139.836V178ZM146.307 178H142.737V170.86H146.307V171.64H143.617V173.89H146.147V174.66H143.617V177.22H146.307V178ZM149.447 170.86C150.007 170.86 150.464 170.937 150.817 171.09C151.177 171.237 151.444 171.46 151.617 171.76C151.791 172.06 151.877 172.433 151.877 172.88C151.877 173.24 151.821 173.547 151.707 173.8C151.594 174.047 151.437 174.25 151.237 174.41C151.044 174.57 150.824 174.7 150.577 174.8L152.347 178H151.337L149.777 175.04H148.617V178H147.737V170.86H149.447ZM149.417 171.63H148.617V174.3H149.487C149.827 174.3 150.107 174.25 150.327 174.15C150.547 174.043 150.711 173.89 150.817 173.69C150.924 173.483 150.977 173.227 150.977 172.92C150.977 172.613 150.921 172.367 150.807 172.18C150.701 171.993 150.531 171.857 150.297 171.77C150.071 171.677 149.777 171.63 149.417 171.63ZM157.912 170.86L155.662 178H154.732L152.492 170.86H153.412L154.822 175.53C154.882 175.703 154.932 175.877 154.972 176.05C155.019 176.223 155.059 176.39 155.092 176.55C155.132 176.71 155.166 176.867 155.192 177.02C155.226 176.867 155.259 176.71 155.292 176.55C155.332 176.383 155.376 176.213 155.422 176.04C155.469 175.867 155.519 175.69 155.572 175.51L156.982 170.86H157.912ZM162.428 178L161.688 175.78H159.288L158.558 178H157.648L160.048 170.84H160.928L163.338 178H162.428ZM160.758 172.76C160.738 172.68 160.708 172.577 160.668 172.45C160.635 172.317 160.598 172.183 160.558 172.05C160.525 171.91 160.498 171.797 160.478 171.71C160.458 171.83 160.432 171.953 160.398 172.08C160.372 172.207 160.342 172.33 160.308 172.45C160.275 172.563 160.245 172.667 160.218 172.76L159.518 174.99H161.458L160.758 172.76ZM164.232 178V170.86H165.112V177.21H167.812V178H164.232ZM172.579 176.07C172.579 176.49 172.486 176.85 172.299 177.15C172.113 177.45 171.846 177.683 171.499 177.85C171.153 178.017 170.746 178.1 170.279 178.1C170.039 178.1 169.809 178.087 169.589 178.06C169.376 178.033 169.176 177.997 168.989 177.95C168.809 177.903 168.643 177.843 168.489 177.77V176.91C168.729 177.023 169.009 177.12 169.329 177.2C169.649 177.28 169.969 177.32 170.289 177.32C170.596 177.32 170.853 177.27 171.059 177.17C171.273 177.07 171.433 176.933 171.539 176.76C171.646 176.58 171.699 176.377 171.699 176.15C171.699 175.917 171.656 175.72 171.569 175.56C171.483 175.4 171.333 175.253 171.119 175.12C170.906 174.987 170.613 174.843 170.239 174.69C169.966 174.577 169.723 174.457 169.509 174.33C169.303 174.203 169.129 174.06 168.989 173.9C168.849 173.733 168.743 173.547 168.669 173.34C168.603 173.127 168.569 172.88 168.569 172.6C168.563 172.227 168.649 171.903 168.829 171.63C169.009 171.35 169.259 171.137 169.579 170.99C169.899 170.837 170.266 170.76 170.679 170.76C171.033 170.76 171.356 170.797 171.649 170.87C171.949 170.943 172.216 171.033 172.449 171.14L172.179 171.91C171.946 171.803 171.703 171.717 171.449 171.65C171.196 171.583 170.936 171.55 170.669 171.55C170.409 171.55 170.186 171.593 169.999 171.68C169.819 171.767 169.683 171.89 169.589 172.05C169.503 172.203 169.459 172.383 169.459 172.59C169.459 172.837 169.503 173.04 169.589 173.2C169.676 173.353 169.819 173.493 170.019 173.62C170.226 173.747 170.503 173.883 170.849 174.03C171.229 174.19 171.546 174.363 171.799 174.55C172.059 174.73 172.253 174.943 172.379 175.19C172.513 175.43 172.579 175.723 172.579 176.07ZM175.784 175.25C175.784 174.697 175.837 174.16 175.944 173.64C176.05 173.113 176.21 172.613 176.424 172.14C176.644 171.667 176.914 171.233 177.234 170.84H178.024C177.724 171.26 177.47 171.71 177.264 172.19C177.064 172.67 176.91 173.167 176.804 173.68C176.704 174.193 176.654 174.713 176.654 175.24C176.654 175.753 176.704 176.267 176.804 176.78C176.91 177.287 177.064 177.773 177.264 178.24C177.47 178.713 177.72 179.16 178.014 179.58H177.234C176.914 179.193 176.644 178.767 176.424 178.3C176.21 177.84 176.05 177.353 175.944 176.84C175.837 176.32 175.784 175.79 175.784 175.25ZM184.272 174.35C184.272 175.15 184.142 175.823 183.882 176.37C183.629 176.91 183.259 177.317 182.772 177.59C182.286 177.863 181.692 178 180.992 178H179.202V170.86H181.152C181.799 170.86 182.356 170.993 182.822 171.26C183.289 171.527 183.646 171.92 183.892 172.44C184.146 172.953 184.272 173.59 184.272 174.35ZM183.352 174.39C183.352 173.763 183.262 173.247 183.082 172.84C182.902 172.427 182.642 172.12 182.302 171.92C181.962 171.72 181.546 171.62 181.052 171.62H180.082V177.24H180.902C181.729 177.24 182.342 177 182.742 176.52C183.149 176.04 183.352 175.33 183.352 174.39ZM189.499 178L188.759 175.78H186.359L185.629 178H184.719L187.119 170.84H187.999L190.409 178H189.499ZM187.829 172.76C187.809 172.68 187.779 172.577 187.739 172.45C187.705 172.317 187.669 172.183 187.629 172.05C187.595 171.91 187.569 171.797 187.549 171.71C187.529 171.83 187.502 171.953 187.469 172.08C187.442 172.207 187.412 172.33 187.379 172.45C187.345 172.563 187.315 172.667 187.289 172.76L186.589 174.99H188.529L187.829 172.76ZM192.502 174.32L194.082 170.86H195.012L192.942 175.23V178H192.062V175.26L189.992 170.86H190.932L192.502 174.32ZM199.562 176.07C199.562 176.49 199.468 176.85 199.282 177.15C199.095 177.45 198.828 177.683 198.482 177.85C198.135 178.017 197.728 178.1 197.262 178.1C197.022 178.1 196.792 178.087 196.572 178.06C196.358 178.033 196.158 177.997 195.972 177.95C195.792 177.903 195.625 177.843 195.472 177.77V176.91C195.712 177.023 195.992 177.12 196.312 177.2C196.632 177.28 196.952 177.32 197.272 177.32C197.578 177.32 197.835 177.27 198.042 177.17C198.255 177.07 198.415 176.933 198.522 176.76C198.628 176.58 198.682 176.377 198.682 176.15C198.682 175.917 198.638 175.72 198.552 175.56C198.465 175.4 198.315 175.253 198.102 175.12C197.888 174.987 197.595 174.843 197.222 174.69C196.948 174.577 196.705 174.457 196.492 174.33C196.285 174.203 196.112 174.06 195.972 173.9C195.832 173.733 195.725 173.547 195.652 173.34C195.585 173.127 195.552 172.88 195.552 172.6C195.545 172.227 195.632 171.903 195.812 171.63C195.992 171.35 196.242 171.137 196.562 170.99C196.882 170.837 197.248 170.76 197.662 170.76C198.015 170.76 198.338 170.797 198.632 170.87C198.932 170.943 199.198 171.033 199.432 171.14L199.162 171.91C198.928 171.803 198.685 171.717 198.432 171.65C198.178 171.583 197.918 171.55 197.652 171.55C197.392 171.55 197.168 171.593 196.982 171.68C196.802 171.767 196.665 171.89 196.572 172.05C196.485 172.203 196.442 172.383 196.442 172.59C196.442 172.837 196.485 173.04 196.572 173.2C196.658 173.353 196.802 173.493 197.002 173.62C197.208 173.747 197.485 173.883 197.832 174.03C198.212 174.19 198.528 174.363 198.782 174.55C199.042 174.73 199.235 174.943 199.362 175.19C199.495 175.43 199.562 175.723 199.562 176.07ZM202.532 175.25C202.532 175.79 202.479 176.32 202.372 176.84C202.272 177.353 202.112 177.84 201.892 178.3C201.679 178.767 201.409 179.193 201.082 179.58H200.312C200.605 179.16 200.852 178.713 201.052 178.24C201.259 177.767 201.412 177.277 201.512 176.77C201.619 176.263 201.672 175.753 201.672 175.24C201.672 174.707 201.619 174.187 201.512 173.68C201.412 173.167 201.259 172.67 201.052 172.19C200.852 171.71 200.602 171.26 200.302 170.84H201.082C201.409 171.233 201.679 171.667 201.892 172.14C202.112 172.613 202.272 173.113 202.372 173.64C202.479 174.167 202.532 174.703 202.532 175.25Z" fill="white"/>
<path opacity="0.5" d="M303.946 157.628L307.126 150.008H302.974V149.06H308.206V149.852L305.074 157.628H303.946Z" fill="white"/>
<defs>
<filter id="filter0_d_204_1093" x="184" y="20" width="70.7998" height="70.8" filterUnits="userSpaceOnUse" color-interpolation-filters="sRGB">
<feFlood flood-opacity="0" result="BackgroundImageFix"/>
<feColorMatrix in="SourceAlpha" type="matrix" values="0 0 0 0 0 0 0 0 0 0 0 0 0 0 0 0 0 0 127 0" result="hardAlpha"/>
<feOffset dy="5"/>
<feGaussianBlur stdDeviation="12.5"/>
<feColorMatrix type="matrix" values="0 0 0 0 0 0 0 0 0 0 0 0 0 0 0 0 0 0 0.1 0"/>
<feBlend mode="normal" in2="BackgroundImageFix" result="effect1_dropShadow_204_1093"/>
<feBlend mode="normal" in="SourceGraphic" in2="effect1_dropShadow_204_1093" result="shape"/>
</filter>
<linearGradient id="paint0_linear_204_1093" x1="179" y1="6" x2="179" y2="189" gradientUnits="userSpaceOnUse">
<stop stop-color="#BC2E30"/>
<stop offset="0.729379" stop-color="#0B2243"/>
<stop offset="1" stop-color="#0B2244"/>
</linearGradient>
<linearGradient id="paint1_linear_204_1093" x1="178.5" y1="5.43506" x2="178.5" y2="121.5" gradientUnits="userSpaceOnUse">
<stop stop-color="#FE6C6C"/>
<stop offset="1" stop-color="#FE464B"/>
</linearGradient>
<linearGradient id="paint2_linear_204_1093" x1="219.354" y1="0.324463" x2="219.354" y2="160.236" gradientUnits="userSpaceOnUse">
<stop offset="0.0104167" stop-color="#FE6C6C" stop-opacity="0"/>
<stop offset="0.28125" stop-color="#FE6C6C"/>
<stop offset="0.666667" stop-color="#FE464B"/>
<stop offset="0.984375" stop-color="#FE464B" stop-opacity="0"/>
</linearGradient>
<linearGradient id="paint3_linear_204_1093" x1="219.4" y1="40" x2="219.4" y2="60.8" gradientUnits="userSpaceOnUse">
<stop stop-color="#FE6C6C"/>
<stop offset="1" stop-color="#FE464B"/>
</linearGradient>
</defs>
</svg>
