<svg width="24" height="24" viewBox="0 0 24 24" fill="none" xmlns="http://www.w3.org/2000/svg">
<path d="M17.2037 10.1128C17.2037 9.82327 17.1905 9.53806 17.1642 9.25727C16.7474 5.19428 13.3162 2.01321 9.13913 2.00004C4.67248 1.98689 1.0395 5.59793 1.02632 10.0646C1.01757 12.3637 1.97408 14.4347 3.50537 15.9134C2.79018 17.0322 1.95651 18.1203 1 19.1778C1 19.1778 3.68086 19.463 6.4802 17.7343C7.30069 18.015 8.17823 18.1774 9.09087 18.1774C9.81045 18.1774 10.5125 18.0853 11.1794 17.9097C14.6369 17.0015 17.1905 13.8599 17.2037 10.1128ZM9.80167 15.1323C9.80167 15.5185 9.49016 15.83 9.10405 15.83C8.71793 15.83 8.402 15.5185 8.402 15.1323V14.4698C8.402 14.0837 8.71793 13.7722 9.10405 13.7722C9.49016 13.7722 9.80167 14.0837 9.80167 14.4698V15.1323ZM10.2448 9.68725C9.9684 9.81887 9.80167 10.0558 9.80167 10.3147V11.5915C9.80167 11.9776 9.49016 12.2891 9.10405 12.2891C8.71793 12.2891 8.402 11.9776 8.402 11.5915V10.3147C8.402 9.52052 8.87149 8.80093 9.63057 8.42799C10.0562 8.22175 10.4203 7.7128 10.2712 7.05465C10.1746 6.62903 9.8236 6.27802 9.39362 6.17711C9.01629 6.09374 8.64771 6.17272 8.35374 6.40528C8.06417 6.63781 7.89744 6.98006 7.89744 7.34861C7.89744 7.73473 7.5859 8.04626 7.19978 8.04626C6.81367 8.04626 6.50216 7.73473 6.50216 7.34861C6.50216 6.55005 6.85756 5.81293 7.4806 5.31272C8.10364 4.81694 8.91538 4.63703 9.70515 4.81694C10.6617 5.03633 11.4163 5.79099 11.6357 6.74311C11.9077 7.94096 11.3374 9.15194 10.2448 9.68725Z" fill="white"/>
<path d="M23.5 15.6282C23.5 12.4252 21.1306 9.77067 18.0505 9.32312C18.0724 9.5864 18.0812 9.85404 18.0812 10.1129C18.0812 10.9466 17.9627 11.7539 17.7433 12.5261H19.8231C20.0688 12.5261 20.2619 12.7236 20.2619 12.9649C20.2619 13.2062 20.0688 13.4037 19.8231 13.4037H17.445C17.1598 14.1145 16.7912 14.7814 16.3393 15.3913H19.8231C20.0688 15.3913 20.2619 15.5887 20.2619 15.83C20.2619 16.0714 20.0688 16.2688 19.8231 16.2688H15.6065C14.5272 17.4096 13.1407 18.2652 11.5567 18.7128C12.6405 20.674 14.729 21.9991 17.1291 21.9991C17.7784 21.9991 18.4015 21.9026 18.9894 21.7271C20.92 22.6617 23.0875 22.3106 23.0875 22.3106C22.4864 21.6481 21.9555 20.968 21.486 20.2704C22.7233 19.1076 23.5 17.4622 23.5 15.6282ZM19.8275 19.1383H14.4306C14.1893 19.1383 13.9919 18.9409 13.9919 18.6996C13.9919 18.4539 14.1893 18.2608 14.4306 18.2608H19.8275C20.0688 18.2608 20.2662 18.4539 20.2662 18.6996C20.2662 18.9409 20.0688 19.1383 19.8275 19.1383Z" fill="white"/>
</svg>
