<svg width="20" height="20" viewBox="0 0 20 20" fill="none" xmlns="http://www.w3.org/2000/svg">
<path d="M19.9955 3.79813C19.2599 4.125 18.4699 4.34563 17.6392 4.44375C18.4861 3.93625 19.1367 3.1325 19.4436 2.175C18.6505 2.64438 17.773 2.98688 16.8386 3.17C16.0899 2.37313 15.0236 1.875 13.843 1.875C11.5774 1.875 9.74174 3.71125 9.74174 5.97687C9.74174 6.29812 9.77736 6.61188 9.84736 6.91187C6.43799 6.74062 3.41549 5.1075 1.39174 2.62563C1.03924 3.23188 0.836738 3.93625 0.836738 4.68812C0.836738 6.11188 1.56111 7.36688 2.66111 8.10313C1.98924 8.08125 1.35674 7.8975 0.803613 7.59C0.802988 7.60687 0.802988 7.625 0.802988 7.64125C0.802988 9.62937 2.21674 11.2875 4.09361 11.6644C3.74986 11.7575 3.38736 11.8081 3.01299 11.8081C2.74799 11.8081 2.49174 11.7825 2.24174 11.735C2.76299 13.3637 4.27861 14.55 6.07299 14.5837C4.66986 15.6838 2.90111 16.3406 0.979238 16.3406C0.647988 16.3406 0.321113 16.3212 0.000488281 16.2831C1.81549 17.4456 3.97174 18.125 6.28861 18.125C13.8336 18.125 17.9605 11.8744 17.9605 6.45312C17.9605 6.27562 17.9555 6.09813 17.948 5.92188C18.7499 5.34375 19.4449 4.62188 19.9955 3.79813Z" fill="white"/>
</svg>
