<svg width="22" height="20" viewBox="0 0 22 20" fill="none" xmlns="http://www.w3.org/2000/svg">
<path d="M14 17.128C14.853 17.3757 15.7368 17.5009 16.625 17.5C18.0534 17.5021 19.4632 17.1764 20.746 16.548C20.7839 15.6517 20.5286 14.7675 20.0188 14.0293C19.5089 13.2912 18.7724 12.7394 17.9207 12.4575C17.069 12.1757 16.1487 12.1791 15.2992 12.4674C14.4496 12.7557 13.7172 13.313 13.213 14.055M14 17.128V17.125C14 16.012 13.714 14.965 13.213 14.055M14 17.128V17.234C12.0755 18.3931 9.8706 19.0038 7.62399 19C5.29299 19 3.11199 18.355 1.24999 17.234L1.24899 17.125C1.24823 15.7095 1.71861 14.3339 2.58598 13.2153C3.45335 12.0966 4.66837 11.2984 6.03948 10.9466C7.4106 10.5948 8.85982 10.7093 10.1587 11.2721C11.4575 11.8349 12.5321 12.814 13.213 14.055M11 4.375C11 5.27011 10.6444 6.12855 10.0115 6.76149C9.37854 7.39442 8.5201 7.75 7.62499 7.75C6.72989 7.75 5.87144 7.39442 5.23851 6.76149C4.60557 6.12855 4.24999 5.27011 4.24999 4.375C4.24999 3.47989 4.60557 2.62145 5.23851 1.98851C5.87144 1.35558 6.72989 1 7.62499 1C8.5201 1 9.37854 1.35558 10.0115 1.98851C10.6444 2.62145 11 3.47989 11 4.375ZM19.25 6.625C19.25 7.32119 18.9734 7.98887 18.4811 8.48116C17.9889 8.97344 17.3212 9.25 16.625 9.25C15.9288 9.25 15.2611 8.97344 14.7688 8.48116C14.2766 7.98887 14 7.32119 14 6.625C14 5.92881 14.2766 5.26113 14.7688 4.76884C15.2611 4.27656 15.9288 4 16.625 4C17.3212 4 17.9889 4.27656 18.4811 4.76884C18.9734 5.26113 19.25 5.92881 19.25 6.625Z" stroke="white" stroke-width="1.5" stroke-linecap="round" stroke-linejoin="round"/>
<path d="M14 17.128C14.853 17.3757 15.7368 17.5009 16.625 17.5C18.0534 17.5021 19.4632 17.1764 20.746 16.548C20.7839 15.6517 20.5286 14.7675 20.0188 14.0293C19.5089 13.2912 18.7724 12.7394 17.9207 12.4575C17.069 12.1757 16.1487 12.1791 15.2992 12.4674C14.4496 12.7557 13.7172 13.313 13.213 14.055M14 17.128V17.125C14 16.012 13.714 14.965 13.213 14.055M14 17.128V17.234C12.0755 18.3931 9.8706 19.0038 7.62399 19C5.29299 19 3.11199 18.355 1.24999 17.234L1.24899 17.125C1.24823 15.7095 1.71861 14.3339 2.58598 13.2153C3.45335 12.0966 4.66837 11.2984 6.03948 10.9466C7.4106 10.5948 8.85982 10.7093 10.1587 11.2721C11.4575 11.8349 12.5321 12.814 13.213 14.055M11 4.375C11 5.27011 10.6444 6.12855 10.0115 6.76149C9.37854 7.39442 8.5201 7.75 7.62499 7.75C6.72989 7.75 5.87144 7.39442 5.23851 6.76149C4.60557 6.12855 4.24999 5.27011 4.24999 4.375C4.24999 3.47989 4.60557 2.62145 5.23851 1.98851C5.87144 1.35558 6.72989 1 7.62499 1C8.5201 1 9.37854 1.35558 10.0115 1.98851C10.6444 2.62145 11 3.47989 11 4.375ZM19.25 6.625C19.25 7.32119 18.9734 7.98887 18.4811 8.48116C17.9889 8.97344 17.3212 9.25 16.625 9.25C15.9288 9.25 15.2611 8.97344 14.7688 8.48116C14.2766 7.98887 14 7.32119 14 6.625C14 5.92881 14.2766 5.26113 14.7688 4.76884C15.2611 4.27656 15.9288 4 16.625 4C17.3212 4 17.9889 4.27656 18.4811 4.76884C18.9734 5.26113 19.25 5.92881 19.25 6.625Z" stroke="url(#paint0_linear_52_602)" stroke-width="1.5" stroke-linecap="round" stroke-linejoin="round"/>
<defs>
<linearGradient id="paint0_linear_52_602" x1="10.9993" y1="1" x2="10.9993" y2="19" gradientUnits="userSpaceOnUse">
<stop stop-color="#2B87F6"/>
<stop offset="1" stop-color="#28AEF2"/>
</linearGradient>
</defs>
</svg>
