<svg width="306" height="90" viewBox="0 0 306 90" fill="none" xmlns="http://www.w3.org/2000/svg">
<path d="M10.7512 82.0691L0 90L291.028 89.4551C299.301 89.4396 306 82.7284 306 74.4551V7.92391H295.718L284.946 0L253.12 2.82997L231.086 19.2438L221.783 2.82997L211.011 16.4138C196.518 10.0747 176.247 16.7911 167.923 20.9418L157.152 13.5838L147.848 16.4138H126.305L115.533 37.3556L104.761 41.8835L93.9888 32.2616H89.5821L81.2584 34.5256H71.4657H62.1627C61.0202 36.7896 58.6373 41.7703 58.2456 43.5815C57.756 45.8455 35.2329 70.7492 34.7432 71.8812C34.2536 73.0132 30.3365 76.4092 28.378 78.1071C26.8112 79.4655 15.9739 81.3144 10.7512 82.0691Z" fill="url(#paint0_linear_145_2904)"/>
<defs>
<linearGradient id="paint0_linear_145_2904" x1="152.5" y1="0" x2="152.5" y2="91.125" gradientUnits="userSpaceOnUse">
<stop stop-color="white"/>
<stop offset="0.0001" stop-color="#1BD14D"/>
<stop offset="1" stop-color="#0A2554"/>
</linearGradient>
</defs>
</svg>
