<svg width="24" height="24" viewBox="0 0 24 24" fill="none" xmlns="http://www.w3.org/2000/svg">
<g clip-path="url(#clip0_246_632)">
<path d="M12 0C5.3725 0 0 5.3725 0 12C0 18.6275 5.3725 24 12 24C18.6275 24 24 18.6275 24 12C24 5.3725 18.6275 0 12 0ZM12.6355 17.5695C12.395 17.8075 12.06 17.926 11.63 17.926C11.1905 17.926 10.8505 17.8105 10.61 17.5775C10.3695 17.344 10.2485 17.016 10.2485 16.592C10.2485 16.1525 10.3665 15.8205 10.602 15.595C10.8375 15.3705 11.18 15.258 11.63 15.258C12.0645 15.258 12.4005 15.3725 12.6395 15.6025C12.8775 15.833 12.9965 16.1625 12.9965 16.592C12.9965 17.005 12.8765 17.3305 12.6355 17.5695ZM15.2255 10.4145C14.964 10.833 14.4665 11.304 13.7345 11.8275C13.232 12.199 12.914 12.4815 12.7815 12.675C12.6475 12.8695 12.5815 13.123 12.5815 13.4365V13.907H10.502V13.326C10.502 12.824 10.609 12.3865 10.824 12.0155C11.0385 11.644 11.431 11.249 12.001 10.8305C12.5505 10.438 12.9125 10.119 13.088 9.873C13.2635 9.627 13.3505 9.352 13.3505 9.049C13.3505 8.709 13.225 8.45 12.974 8.272C12.723 8.094 12.3725 8.005 11.922 8.005C11.1375 8.005 10.2425 8.2615 9.238 8.7745L8.3825 7.0555C9.549 6.4015 10.787 6.0745 12.095 6.0745C13.1725 6.0745 14.03 6.3335 14.6655 6.8515C15.301 7.3695 15.6185 8.06 15.6185 8.9235C15.618 9.499 15.4875 9.996 15.2255 10.4145Z" fill="white" fill-opacity="0.8"/>
</g>
<defs>
<clipPath id="clip0_246_632">
<rect width="24" height="24" fill="white"/>
</clipPath>
</defs>
</svg>
