<svg width="241" height="170" viewBox="0 0 241 170" fill="none" xmlns="http://www.w3.org/2000/svg">
<rect y="99.019" width="7.23804" height="42.624" rx="3.61902" fill="url(#paint0_linear_206_1239)"/>
<rect x="35.4746" y="62.0249" width="7.23804" height="79.6184" rx="3.61902" fill="url(#paint1_linear_206_1239)"/>
<rect x="162.811" y="111.083" width="7.23804" height="30.5606" rx="3.61902" fill="url(#paint2_linear_206_1239)"/>
<rect x="70.9512" y="20.205" width="7.23804" height="121.438" rx="3.61902" fill="url(#paint3_linear_206_1239)"/>
<rect x="198.286" y="23.4219" width="7.23804" height="118.221" rx="3.61902" fill="url(#paint4_linear_206_1239)"/>
<rect x="233.762" y="58.4058" width="7.23804" height="83.2374" rx="3.61902" fill="url(#paint5_linear_206_1239)"/>
<path opacity="0.1" d="M106.327 14.5754C106.327 6.80261 112.628 0.501465 120.401 0.501465C128.174 0.501465 134.475 6.80259 134.475 14.5754V151.294C134.475 159.067 128.174 165.368 120.401 165.368C112.628 165.368 106.327 159.067 106.327 151.294V14.5754Z" fill="#A08CFB"/>
<rect x="117.82" y="44.3318" width="7.23804" height="97.3114" rx="3.61902" fill="url(#paint6_linear_206_1239)"/>
<circle cx="120.401" cy="165.368" r="3.02113" fill="url(#paint7_linear_206_1239)" stroke="white" stroke-width="2"/>
<path opacity="0.5" d="M112.894 154.488L110.35 147.096H110.302C110.318 147.296 110.33 147.516 110.338 147.756C110.354 147.988 110.366 148.228 110.374 148.476C110.382 148.716 110.386 148.952 110.386 149.184V154.488H109.402V145.92H110.938L113.338 152.928H113.386L115.822 145.92H117.346V154.488H116.314V149.148C116.314 148.924 116.314 148.696 116.314 148.464C116.322 148.224 116.334 147.988 116.35 147.756C116.366 147.524 116.378 147.308 116.386 147.108H116.338L113.782 154.488H112.894ZM124.364 151.26C124.364 151.788 124.304 152.256 124.184 152.664C124.064 153.072 123.888 153.424 123.656 153.72C123.424 154.008 123.14 154.228 122.804 154.38C122.468 154.532 122.088 154.608 121.664 154.608C121.264 154.608 120.9 154.532 120.572 154.38C120.244 154.228 119.964 154.008 119.732 153.72C119.5 153.432 119.32 153.084 119.192 152.676C119.064 152.26 119 151.788 119 151.26C119 150.548 119.104 149.948 119.312 149.46C119.528 148.964 119.836 148.588 120.236 148.332C120.636 148.068 121.12 147.936 121.688 147.936C122.224 147.936 122.692 148.064 123.092 148.32C123.492 148.576 123.804 148.952 124.028 149.448C124.252 149.936 124.364 150.54 124.364 151.26ZM120.056 151.26C120.056 151.78 120.112 152.228 120.224 152.604C120.344 152.972 120.524 153.256 120.764 153.456C121.004 153.648 121.312 153.744 121.688 153.744C122.056 153.744 122.36 153.648 122.6 153.456C122.84 153.256 123.016 152.972 123.128 152.604C123.248 152.228 123.308 151.78 123.308 151.26C123.308 150.732 123.248 150.288 123.128 149.928C123.016 149.56 122.84 149.284 122.6 149.1C122.36 148.908 122.052 148.812 121.676 148.812C121.108 148.812 120.696 149.024 120.44 149.448C120.184 149.872 120.056 150.476 120.056 151.26ZM128.707 147.936C129.387 147.936 129.899 148.12 130.243 148.488C130.587 148.856 130.759 149.44 130.759 150.24V154.488H129.739V150.348C129.739 149.836 129.643 149.452 129.451 149.196C129.259 148.94 128.951 148.812 128.527 148.812C127.927 148.812 127.507 149.008 127.267 149.4C127.027 149.784 126.907 150.368 126.907 151.152V154.488H125.887V148.056H126.703L126.847 148.932H126.907C127.035 148.708 127.191 148.524 127.375 148.38C127.559 148.228 127.767 148.116 127.999 148.044C128.231 147.972 128.467 147.936 128.707 147.936Z" fill="white"/>
<defs>
<linearGradient id="paint0_linear_206_1239" x1="3.61902" y1="99.019" x2="3.61902" y2="141.643" gradientUnits="userSpaceOnUse">
<stop stop-color="#B09FFF"/>
<stop offset="1" stop-color="#8D79F6"/>
</linearGradient>
<linearGradient id="paint1_linear_206_1239" x1="39.0936" y1="62.0249" x2="39.0936" y2="141.643" gradientUnits="userSpaceOnUse">
<stop stop-color="#B09FFF"/>
<stop offset="1" stop-color="#8D79F6"/>
</linearGradient>
<linearGradient id="paint2_linear_206_1239" x1="166.43" y1="111.083" x2="166.43" y2="141.643" gradientUnits="userSpaceOnUse">
<stop stop-color="#B09FFF"/>
<stop offset="1" stop-color="#8D79F6"/>
</linearGradient>
<linearGradient id="paint3_linear_206_1239" x1="74.5702" y1="20.205" x2="74.5702" y2="141.643" gradientUnits="userSpaceOnUse">
<stop stop-color="#B09FFF"/>
<stop offset="1" stop-color="#8D79F6"/>
</linearGradient>
<linearGradient id="paint4_linear_206_1239" x1="201.905" y1="23.4219" x2="201.905" y2="141.643" gradientUnits="userSpaceOnUse">
<stop stop-color="#B09FFF"/>
<stop offset="1" stop-color="#8D79F6"/>
</linearGradient>
<linearGradient id="paint5_linear_206_1239" x1="237.381" y1="58.4058" x2="237.381" y2="141.643" gradientUnits="userSpaceOnUse">
<stop stop-color="#B09FFF"/>
<stop offset="1" stop-color="#8D79F6"/>
</linearGradient>
<linearGradient id="paint6_linear_206_1239" x1="121.439" y1="44.3318" x2="121.439" y2="141.643" gradientUnits="userSpaceOnUse">
<stop stop-color="#B09FFF"/>
<stop offset="1" stop-color="#8D79F6"/>
</linearGradient>
<linearGradient id="paint7_linear_206_1239" x1="120.401" y1="161.346" x2="120.401" y2="169.389" gradientUnits="userSpaceOnUse">
<stop stop-color="#B09FFF"/>
<stop offset="1" stop-color="#8D79F6"/>
</linearGradient>
</defs>
</svg>
